<?xml version="1.0" encoding="utf-8"?>
<!-- Generator: Adobe Illustrator 23.0.2, SVG Export Plug-In . SVG Version: 6.00 Build 0)  -->
<svg version="1.1" id="Layer_1" xmlns="http://www.w3.org/2000/svg" xmlns:xlink="http://www.w3.org/1999/xlink" x="0px" y="0px"
	 viewBox="0 0 21.53 6.75" style="enable-background:new 0 0 21.53 6.75;" xml:space="preserve">
<style type="text/css">
	.st0{fill:#606060;stroke:#000000;stroke-width:0.25;stroke-miterlimit:10;}
</style>
<g>
	<path class="st0" d="M0.74,1.17C0.61,1.22,0.5,1.22,0.4,1.18c-0.1-0.04-0.17-0.1-0.21-0.17C0.13,0.92,0.11,0.83,0.14,0.73
		c0.03-0.1,0.1-0.18,0.22-0.25c0.2-0.11,0.46-0.21,0.76-0.28c0.31-0.07,0.63-0.09,0.99-0.06c0.35,0.04,0.67,0.13,0.97,0.28
		s0.54,0.35,0.75,0.58C4.03,1.25,4.19,1.52,4.3,1.82c0.11,0.3,0.16,0.62,0.15,0.95c-0.02,0.35-0.09,0.7-0.2,1.05
		C4.13,4.17,3.96,4.5,3.76,4.81C3.55,5.11,3.31,5.39,3.02,5.64c-0.28,0.25-0.6,0.45-0.94,0.58C1.85,6.29,1.67,6.3,1.54,6.25
		c-0.12-0.04-0.21-0.1-0.25-0.16c-0.02-0.04-0.02-0.1-0.02-0.18s0.05-0.15,0.14-0.23C1.31,4.84,1.24,4.02,1.22,3.22
		C1.2,2.43,1.19,1.71,1.19,1.05C1.04,1.07,0.89,1.11,0.74,1.17z M2.17,1C2.12,0.99,2.07,0.98,2.01,0.98c-0.06,0-0.11-0.01-0.16-0.01
		c0.05,0.07,0.1,0.16,0.13,0.26c0.03,0.1,0.05,0.2,0.05,0.3c0,0.53,0.01,1.11,0.02,1.72S2.1,4.52,2.17,5.23
		c0.39-0.28,0.72-0.63,0.99-1.06C3.44,3.74,3.59,3.3,3.61,2.82C3.61,2.38,3.51,2,3.28,1.66C3.05,1.32,2.68,1.1,2.17,1z"/>
	<path class="st0" d="M9.37,1.82C9.22,1.91,9.05,2,8.88,2.1C8.71,2.2,8.54,2.31,8.37,2.44C8.2,2.56,8.04,2.71,7.88,2.88
		C7.73,3.05,7.59,3.26,7.47,3.49C7.29,3.83,7.18,4.17,7.11,4.51C7.05,4.86,7.01,5.2,7,5.53c0,0.16-0.04,0.32-0.11,0.48
		C6.81,6.17,6.71,6.25,6.58,6.25c-0.17,0-0.3-0.08-0.4-0.26S6.01,5.66,5.97,5.5C5.82,4.88,5.7,4.27,5.6,3.66
		c-0.1-0.61-0.18-1.22-0.25-1.82c0-0.12,0.04-0.2,0.11-0.24c0.07-0.04,0.16-0.05,0.26-0.04c0.1,0.01,0.21,0.04,0.3,0.08
		c0.1,0.04,0.15,0.11,0.17,0.21c0.04,0.32,0.08,0.66,0.13,1.02c0.05,0.35,0.1,0.66,0.16,0.91c0.04-0.3,0.13-0.59,0.29-0.87
		c0.16-0.28,0.35-0.53,0.58-0.76c0.23-0.23,0.5-0.42,0.79-0.58c0.29-0.16,0.59-0.26,0.9-0.32c0.13-0.02,0.24-0.02,0.33,0
		s0.15,0.05,0.18,0.09C9.59,1.39,9.6,1.46,9.58,1.56C9.56,1.66,9.49,1.75,9.37,1.82z"/>
	<path class="st0" d="M13.45,1.5c0.04,0.25,0.06,0.51,0.09,0.78s0.04,0.55,0.05,0.83s0.02,0.55,0.02,0.81s0,0.5-0.01,0.71
		C13.87,4.83,14.04,5,14.1,5.15c0.06,0.15,0.06,0.28,0.02,0.39c-0.05,0.16-0.15,0.24-0.28,0.24c-0.14,0-0.29-0.04-0.47-0.14
		c-0.12,0.09-0.26,0.18-0.42,0.28c-0.16,0.1-0.32,0.2-0.5,0.29c-0.18,0.09-0.35,0.17-0.53,0.24c-0.18,0.07-0.34,0.12-0.49,0.14
		c-0.28,0.04-0.53-0.01-0.76-0.16c-0.22-0.15-0.37-0.37-0.45-0.67c-0.05-0.2-0.07-0.41-0.04-0.62s0.09-0.42,0.2-0.62
		c0.1-0.2,0.25-0.37,0.43-0.53c0.18-0.16,0.39-0.28,0.64-0.37c0.06-0.03,0.15-0.05,0.26-0.07c0.11-0.02,0.22-0.02,0.34-0.02
		c0.12,0,0.24,0.03,0.36,0.07c0.12,0.04,0.24,0.12,0.34,0.22c0-0.15,0-0.31-0.01-0.49c0-0.18-0.01-0.36-0.02-0.55
		c-0.01-0.18-0.02-0.36-0.03-0.52s-0.03-0.3-0.05-0.41c-0.02-0.13-0.07-0.21-0.15-0.24c-0.08-0.03-0.19-0.02-0.31,0.02
		c-0.21,0.07-0.46,0.21-0.74,0.41c-0.28,0.2-0.55,0.42-0.8,0.64c-0.08,0.08-0.17,0.11-0.27,0.11c-0.1-0.01-0.19-0.05-0.26-0.12
		c-0.07-0.07-0.11-0.15-0.12-0.24c-0.01-0.09,0.03-0.19,0.11-0.3c0.15-0.16,0.32-0.32,0.5-0.49c0.18-0.17,0.38-0.32,0.58-0.45
		c0.2-0.14,0.41-0.25,0.62-0.33c0.21-0.09,0.42-0.14,0.63-0.14c0.31-0.01,0.54,0.06,0.71,0.2S13.41,1.27,13.45,1.5z M11.92,4.32
		c-0.11,0.03-0.23,0.08-0.36,0.16c-0.13,0.08-0.24,0.18-0.34,0.3c-0.1,0.12-0.18,0.25-0.22,0.39c-0.05,0.14-0.05,0.29-0.01,0.43
		c0.02,0.05,0.05,0.09,0.11,0.12c0.06,0.03,0.12,0.03,0.19,0.01c0.21-0.04,0.45-0.13,0.72-0.26c0.27-0.13,0.48-0.26,0.64-0.41
		c0-0.05-0.03-0.12-0.08-0.2c-0.05-0.08-0.11-0.17-0.18-0.25c-0.07-0.08-0.15-0.16-0.23-0.22C12.07,4.34,11.99,4.31,11.92,4.32z"/>
	<path class="st0" d="M19.56,6.05c-0.07,0.1-0.15,0.16-0.24,0.19c-0.09,0.03-0.17,0.05-0.24,0.05c-0.12-0.01-0.24-0.05-0.34-0.12
		c-0.11-0.07-0.17-0.15-0.2-0.23c-0.05-0.15-0.11-0.32-0.17-0.5c-0.06-0.18-0.12-0.37-0.18-0.56c-0.06-0.19-0.12-0.37-0.18-0.55
		c-0.06-0.18-0.12-0.34-0.17-0.49c-0.18,0.31-0.34,0.62-0.5,0.93c-0.16,0.31-0.33,0.63-0.53,0.97c-0.09,0.13-0.19,0.22-0.3,0.27
		c-0.11,0.05-0.21,0.07-0.29,0.06C16.12,6.05,16.02,6,15.92,5.92c-0.09-0.08-0.16-0.15-0.22-0.22c-0.1-0.16-0.19-0.36-0.29-0.61
		s-0.19-0.51-0.27-0.79s-0.16-0.55-0.23-0.83s-0.13-0.52-0.17-0.74c-0.03-0.15-0.02-0.29,0.01-0.42c0.03-0.13,0.11-0.21,0.23-0.22
		c0.15-0.01,0.29,0.04,0.41,0.15c0.12,0.11,0.19,0.22,0.21,0.32c0.03,0.18,0.08,0.37,0.12,0.57c0.05,0.21,0.1,0.41,0.16,0.62
		c0.06,0.21,0.11,0.42,0.17,0.62c0.06,0.2,0.12,0.38,0.18,0.54c0.13-0.21,0.28-0.45,0.44-0.73s0.32-0.54,0.47-0.8
		c0.15-0.26,0.29-0.48,0.41-0.68c0.12-0.19,0.22-0.31,0.29-0.35c0.05-0.04,0.13-0.03,0.22,0.01s0.17,0.09,0.21,0.16
		c0.19,0.39,0.35,0.81,0.48,1.27c0.13,0.46,0.25,0.89,0.37,1.28c0.12-0.16,0.25-0.37,0.39-0.62c0.14-0.26,0.28-0.53,0.41-0.82
		c0.13-0.29,0.25-0.58,0.37-0.87c0.11-0.29,0.21-0.55,0.28-0.78c0.07-0.24,0.17-0.35,0.29-0.34c0.16,0.02,0.29,0.07,0.41,0.16
		c0.11,0.09,0.16,0.18,0.13,0.28c-0.19,0.77-0.44,1.48-0.75,2.12S19.98,5.46,19.56,6.05z"/>
</g>
</svg>
