<?xml version="1.0" encoding="utf-8"?>
<!-- Generator: Adobe Illustrator 23.0.2, SVG Export Plug-In . SVG Version: 6.00 Build 0)  -->
<svg version="1.1" id="Layer_1" xmlns="http://www.w3.org/2000/svg" xmlns:xlink="http://www.w3.org/1999/xlink" x="0px" y="0px"
	 viewBox="0 0 179.32 159.23" style="enable-background:new 0 0 179.32 159.23;" xml:space="preserve">
<style type="text/css">
	.st0{fill:#9BA9F9;}
</style>
<path class="st0" d="M0,66.38c2.73-0.46,5.45-1,8.19-1.38c9.62-1.33,19.3-1.62,29.01-1.35c0.26,0.01,0.51,0,0.87,0
	c-0.3-1.01-0.59-1.91-0.83-2.83c-1.68-6.36-2.19-12.84-1.63-19.36c0.59-6.79,3.21-12.8,7.71-17.94c0.62-0.71,0.76-1.27,0.47-2.21
	c-1.81-5.7-1.61-11.44-0.04-17.16C44.05,3.06,44.5,2,44.8,0.91c0.17-0.62,0.52-0.81,1.11-0.86c2.34-0.19,4.59,0.28,6.8,0.95
	c5.25,1.59,9.96,4.25,14.49,7.27c0.75,0.5,1.38,0.58,2.25,0.36c8.32-2.17,16.79-2.91,25.34-2.25c4.35,0.34,8.65,1.21,12.97,1.9
	c0.58,0.09,0.99,0.01,1.45-0.3c3.98-2.62,8.12-4.94,12.64-6.53c2.43-0.85,4.93-1.43,7.52-1.44c1.54-0.01,1.56,0,2.06,1.41
	c2.21,6.25,2.85,12.6,1.15,19.09c-0.08,0.3,0.1,0.79,0.33,1.03c2.48,2.63,4.55,5.53,6.11,8.8c1.91,4,3.01,8.23,3.16,12.64
	c0.21,6.46-0.08,12.9-1.52,19.23c-0.11,0.48-0.23,0.95-0.36,1.47c0.75,0,1.42,0.02,2.09,0c8.77-0.32,17.51-0.02,26.23,0.99
	c3.39,0.39,6.75,1.01,10.12,1.55c0.21,0.03,0.39,0.28,0.59,0.43c-0.25,0.07-0.5,0.24-0.73,0.2c-3.46-0.51-6.91-1.13-10.38-1.55
	c-9.12-1.09-18.28-1.24-27.46-0.92c-0.48,0.02-0.73,0.16-0.86,0.64c-0.24,0.83-0.56,1.64-0.89,2.56c13.59,0.5,26.96,2.04,40.03,5.67
	c-0.01,0.91-0.58,0.52-0.92,0.44c-3.04-0.7-6.05-1.57-9.11-2.1c-5.34-0.92-10.71-1.76-16.09-2.37c-4.46-0.51-8.96-0.63-13.45-0.94
	c-0.58-0.04-0.87,0.12-1.13,0.67c-2.82,6.07-7.51,10.24-13.49,13.03c-5.72,2.67-11.81,3.94-18.03,4.73c-0.81,0.1-1.61,0.2-2.49,0.31
	c0.92,0.88,1.83,1.64,2.62,2.51c2.29,2.56,3.49,5.63,3.93,9c0.2,1.5,0.3,3.02,0.31,4.53c0.03,6.13,0.02,12.26,0,18.39
	c0,0.68,0.16,0.94,0.88,1.05c5.94,0.96,11.78,2.35,17.36,4.65c3.71,1.53,7.26,3.37,10.06,6.35c1.96,2.08,3.13,4.49,2.79,7.44
	c-0.25,2.18-1.31,3.96-2.77,5.54c-2.01,2.17-4.48,3.72-7.11,5.02c-6.34,3.12-13.12,4.79-20.04,5.97c-5.3,0.9-10.64,1.41-16.01,1.62
	c-0.35,0.01-0.69,0.09-1.03,0.14c-3.27,0-6.54,0-9.81,0c-0.34-0.05-0.69-0.13-1.03-0.14c-5.37-0.21-10.71-0.72-16.01-1.62
	c-6.92-1.17-13.7-2.84-20.04-5.97c-2.63-1.3-5.09-2.85-7.12-5.01c-3.63-3.87-3.84-8.53-0.34-12.5c1.33-1.51,2.98-2.8,4.68-3.9
	c3.97-2.58,8.4-4.16,12.95-5.37c3.15-0.84,6.34-1.51,9.57-2.27c0-4.44,0-8.95,0-13.47c-0.13-0.02-0.21-0.05-0.29-0.04
	c-0.2,0.02-0.4,0.06-0.6,0.1c-3.54,0.72-7.11,0.97-10.7,0.42c-4.95-0.75-9.13-2.91-11.97-7.11c-1.21-1.79-1.95-3.89-2.93-5.84
	c-1.72-3.43-3.83-6.54-7.2-8.6c-0.67-0.41-1.27-0.93-1.84-1.47c-0.52-0.49-1.17-1.03-0.92-1.85c0.27-0.87,1.15-0.93,1.88-1.02
	c3.28-0.41,6.04,0.86,8.58,2.78c2.26,1.71,3.73,4.06,5.29,6.36c2.21,3.25,5.18,5.49,9.11,6.3c3.9,0.8,7.58,0,11.2-1.43
	c0.72-0.28,1.09-0.68,1.29-1.45c0.9-3.57,2.76-6.53,5.74-8.75c0.12-0.09,0.21-0.22,0.38-0.41c-0.52-0.07-0.92-0.13-1.32-0.18
	c-0.17-0.02-0.35-0.05-0.52-0.07c-6.22-0.79-12.29-2.14-18.03-4.75c-6.25-2.84-11.35-6.99-14.75-13.05
	c-0.3-0.53-0.64-0.65-1.19-0.62c-4.34,0.31-8.69,0.45-13.01,0.93c-5.07,0.57-10.12,1.33-15.14,2.21c-3.35,0.58-6.65,1.51-9.97,2.28
	C0.9,73.8,0.35,74.1,0.45,73.25c12.85-3.57,25.99-5.1,39.34-5.63c-0.42-0.99-0.82-1.83-1.14-2.7c-0.17-0.47-0.44-0.59-0.91-0.6
	C25.35,64,13.06,64.49,0.9,66.83c-0.28,0.05-0.6-0.06-0.9-0.1C0,66.61,0,66.5,0,66.38z M90.92,83.33c4.2-0.16,8.4-0.25,12.6-0.5
	c4.68-0.27,9.28-1,13.65-2.78c4.03-1.64,7.22-4.24,9.3-8.11c1.73-3.22,2.37-6.72,2.72-10.32c0.49-5.02-0.59-9.54-3.65-13.59
	c-3.03-4.01-6.85-6.55-11.95-7.12c-4.45-0.5-8.86-0.07-13.29,0.15c-4.17,0.2-8.34,0.51-12.51,0.44c-5.6-0.1-11.19-0.52-16.79-0.78
	c-3.07-0.14-6.15-0.02-9.11,0.84c-6.02,1.75-9.55,6.11-11.8,11.67c-1.24,3.07-1.08,6.29-0.69,9.5c0.89,7.2,4.41,12.62,10.97,15.92
	c4.03,2.03,8.37,3.05,12.8,3.67C79.07,83.14,84.99,83.27,90.92,83.33z M111.48,125.54c0.95,2.65,2.35,4.48,4.7,5.49
	c0.78,0.34,1.4,0.9,1.53,1.78c0.13,0.85-0.62,1.09-1.17,1.45c-0.02,0.01-0.02,0.05-0.06,0.19c0.02,0.01,0.11,0.04,0.18,0.08
	c1.33,0.8,1.41,1.61,0.23,2.64c-0.26,0.23-0.58,0.38-0.89,0.53c-2.86,1.36-4.49,3.73-4.74,6.77c-0.26,3.22-0.06,6.47-0.05,9.71
	c0,0.05,0.06,0.1,0.1,0.14c0.15,0,0.29,0.02,0.44,0c6.75-1.12,13.36-2.75,19.52-5.84c2.4-1.2,4.69-2.64,6.4-4.79
	c1.93-2.43,2.03-5.01-0.02-7.32c-1.24-1.4-2.74-2.63-4.32-3.64c-4.17-2.66-8.84-4.17-13.6-5.37
	C117.09,126.7,114.4,126.18,111.48,125.54z M67.74,125.99c-0.2-0.02-0.29-0.04-0.37-0.03c-6.11,1.16-12.12,2.69-17.72,5.49
	c-2.17,1.09-4.24,2.35-5.92,4.14c-2.77,2.94-2.77,5.88,0,8.8c1.77,1.87,3.95,3.17,6.23,4.3c3.88,1.93,7.99,3.22,12.19,4.22
	c1.97,0.47,3.96,0.86,5.94,1.28c0.06-0.23,0.1-0.31,0.1-0.39c0-3.03,0.01-6.07-0.01-9.1c0-0.37-0.09-0.75-0.18-1.12
	c-0.72-2.74-2.2-4.84-4.87-6.02c-1.81-0.8-1.89-2.08-0.29-3.17c0.02-0.01,0.01-0.05,0.02-0.08c-1.65-1.19-1.53-2.44,0.33-3.3
	c0.13-0.06,0.27-0.11,0.4-0.17C65.64,129.84,66.91,128.17,67.74,125.99z M79.81,137.58c0.58,0.25,0.98,0.42,1.38,0.59
	c1.61,0.69,2.98,1.71,4.12,3.04c2.18,2.54,2.98,5.56,3.03,8.83c0.03,1.95,0.01,3.9,0.01,5.93c0.96,0,1.75,0,2.62,0
	c0-0.37-0.01-0.69,0-1.01c0.04-2.04,0-4.09,0.15-6.13c0.35-4.58,2.33-8.19,6.51-10.39c0.58-0.3,1.19-0.54,1.89-0.85
	c-6.36-2.38-8.58-7.26-8.5-13.52c-0.94,0-1.77,0-2.69,0c0.06,2.92-0.34,5.7-1.81,8.22C85.02,134.85,82.78,136.55,79.81,137.58z
	 M99.94,124.3c0.1,1.3,0.1,2.47,0.28,3.6c0.41,2.59,1.16,5.03,3.14,6.96c0.46,0.45,0.54,1.36,0.66,2.08
	c0.1,0.63,0.02,1.29,0.02,2.15c2.43-3.33,5.8-4.24,9.36-4.77c-5.85-0.79-10.33-3.05-10.74-9.77
	C101.77,124.47,100.96,124.4,99.94,124.3z M66,134.31c3.57,0.57,6.98,1.45,9.33,4.79c0-0.91-0.08-1.63,0.02-2.31
	c0.11-0.67,0.22-1.5,0.66-1.92c1.47-1.42,2.27-3.16,2.77-5.07c0.46-1.74,0.74-3.51,0.52-5.34c-0.54,0.03-1.01,0.11-1.47,0.08
	c-0.92-0.05-1.21,0.33-1.29,1.26c-0.21,2.47-1.34,4.49-3.36,5.98C71.07,133.36,68.62,134,66,134.31z M90.84,120.77
	c0-7.62,0-15.13,0-22.64c-0.84,0-1.53,0-2.33,0c0,7.57,0,15.09,0,22.64C89.3,120.77,90.07,120.77,90.84,120.77z M79.33,99.08
	c-0.11-0.05-0.21-0.1-0.32-0.14c-0.51,0.86-1.23,1.67-1.47,2.6c-0.43,1.67-0.77,3.42-0.81,5.14c-0.1,4.57-0.02,9.15-0.02,13.73
	c0,0.31,0,0.63,0,1.04c0.93-0.08,1.75-0.15,2.61-0.23C79.33,113.79,79.33,106.43,79.33,99.08z M102.63,121.31
	c0.02-0.25,0.03-0.39,0.03-0.53c0.01-4.79,0.04-9.57,0-14.36c-0.01-1.1-0.15-2.22-0.39-3.29c-0.33-1.47-0.91-2.85-2.21-3.95
	c0,7.39,0,14.64,0,21.94C100.93,121.17,101.74,121.24,102.63,121.31z M102.67,155.47c0-3.16-0.04-6.22,0.02-9.28
	c0.04-1.88,0.24-3.75,0.36-5.52c-0.18,0.22-0.62,0.55-0.81,1c-0.66,1.48-1.4,2.96-1.8,4.52c-0.78,3.06-0.36,6.21-0.39,9.33
	c0,0.05,0.06,0.1,0.11,0.18C100.93,155.62,101.74,155.55,102.67,155.47z M76.8,155.35c0.86,0.07,1.68,0.15,2.58,0.22
	c0-2.07,0.01-4.02,0-5.98c-0.01-2.31-0.46-4.53-1.45-6.61c-0.42-0.89-1.07-1.67-1.62-2.5C77.28,145.45,76.42,150.37,76.8,155.35z
	 M45.5,94.72c0.76-0.01,1.44-0.48,1.44-1.01c-0.01-0.52-0.7-1.01-1.44-1.01c-0.75,0-1.41,0.48-1.42,1.02
	C44.07,94.26,44.73,94.73,45.5,94.72z M65.44,101.55c0.76,0,1.43-0.48,1.42-1.01s-0.7-1.02-1.43-1.01c-0.74,0-1.42,0.49-1.41,1.02
	C64.02,101.08,64.69,101.55,65.44,101.55z M36.79,86.19c0.81-0.01,1.42-0.45,1.4-1.01c-0.02-0.54-0.66-0.97-1.45-0.96
	c-0.8,0.01-1.41,0.44-1.39,1.01C35.36,85.8,35.98,86.21,36.79,86.19z M43.22,91.36c0.75,0.02,1.42-0.42,1.45-0.97
	c0.03-0.55-0.59-1.02-1.37-1.04c-0.76-0.02-1.42,0.42-1.45,0.96C41.83,90.87,42.44,91.34,43.22,91.36z M51.35,98.55
	c-0.89,0.01-1.48,0.45-1.45,1.02c0.03,0.55,0.68,0.98,1.44,0.96c0.77-0.02,1.45-0.5,1.37-1.04C52.6,98.68,51.93,98.61,51.35,98.55z
	 M47.76,95.84c-0.51,0.12-1.16,0.21-1.2,1.01c-0.03,0.56,0.63,0.99,1.41,0.98c0.78-0.01,1.42-0.47,1.41-1.01
	S48.65,95.82,47.76,95.84z M56.03,102.3c0.78-0.01,1.43-0.46,1.41-1c-0.01-0.55-0.7-0.99-1.53-0.96c-0.65,0.03-1.23,0.22-1.29,0.99
	C54.57,101.88,55.23,102.31,56.03,102.3z M60.62,100.34c-0.73,0-1.35,0.44-1.36,0.95c-0.01,0.54,0.63,1,1.41,1.01
	s1.43-0.43,1.45-0.96C62.13,100.78,61.46,100.34,60.62,100.34z M40.84,86.48c-0.81-0.01-1.43,0.38-1.46,0.93s0.58,1.01,1.37,1.03
	c0.77,0.02,1.43-0.41,1.46-0.95C42.25,86.93,41.66,86.49,40.84,86.48z"/>
<path class="st0" d="M32.97,88.5c0.45,1.59,0.95,3.17,1.33,4.77c0.18,0.75,0.09,1.54-0.74,1.96c-0.61,0.3-1.3,0.26-1.65-0.3
	c-0.31-0.49-0.52-1.22-0.4-1.76c0.33-1.59,0.85-3.13,1.29-4.7C32.86,88.48,32.91,88.49,32.97,88.5z"/>
<path class="st0" d="M112.23,47.76c2.58,0.06,4.37,1.36,5.79,3.27c3.51,4.73,3.44,12.93-0.13,17.61c-3.3,4.32-8.75,4.13-11.54-0.54
	c-3.31-5.53-3.28-11.19,0.02-16.73C107.67,49.19,109.65,47.82,112.23,47.76z M117.95,59.92c0.01-1.99-0.47-3.81-1.45-5.41
	c-2.02-3.31-5.63-3.5-7.94-0.4c-2.47,3.3-2.22,9.09,0.51,12.15c1.92,2.14,4.81,2.12,6.7-0.04
	C117.35,64.41,117.91,62.26,117.95,59.92z"/>
<path class="st0" d="M75.87,59.71c-0.03,2.94-0.64,5.73-2.27,8.23c-1.64,2.5-3.79,4.14-6.97,3.71c-2.3-0.31-3.88-1.77-5.11-3.64
	c-1.65-2.52-2.3-5.35-2.29-8.31c0.01-2.9,0.64-5.67,2.25-8.14c1.56-2.38,3.6-4.01,6.63-3.74c2.5,0.22,4.19,1.73,5.49,3.75
	C75.21,54.04,75.83,56.79,75.87,59.71z M73.22,59.93c-0.07-1.97-0.46-3.79-1.49-5.46c-2.04-3.29-5.67-3.44-7.95-0.32
	c-2.42,3.31-2.18,8.99,0.5,12.08c1.85,2.13,4.73,2.17,6.65,0.09C72.6,64.5,73.12,62.26,73.22,59.93z"/>
<path class="st0" d="M89.29,79.1c-2.01-0.02-3.91-1.29-4.68-3.11c-0.19-0.45-0.28-0.88,0.24-1.12c0.54-0.25,0.79,0.14,0.99,0.57
	c0.69,1.49,1.88,2.31,3.51,2.3c1.6,0,2.75-0.83,3.44-2.27c0.2-0.42,0.43-0.84,0.97-0.62c0.6,0.24,0.44,0.73,0.25,1.18
	C93.25,77.84,91.29,79.12,89.29,79.1z"/>
<path class="st0" d="M91.41,70.42c-0.01,1.1-1,2.07-2.09,2.06c-1.1-0.01-2.07-1-2.06-2.09c0.01-1.1,1-2.07,2.09-2.06
	C90.45,68.34,91.43,69.33,91.41,70.42z"/>
</svg>
