<?xml version="1.0" encoding="utf-8"?>
<!-- Generator: Adobe Illustrator 23.0.2, SVG Export Plug-In . SVG Version: 6.00 Build 0)  -->
<svg version="1.1" id="Layer_1" xmlns="http://www.w3.org/2000/svg" xmlns:xlink="http://www.w3.org/1999/xlink" x="0px" y="0px"
	 viewBox="0 0 150.53 150.55" style="enable-background:new 0 0 150.53 150.55;" xml:space="preserve">
<path d="M0.1,75.01c0-18.18,0.23-36.37-0.08-54.54C-0.18,9.57,9.55-0.06,20.37,0c36.67,0.21,73.34,0.07,110.01,0.06
	c9.81,0,18.46,7.25,19.43,17.08c0.73,7.42,0.67,14.93,0.69,22.4c0.06,29.58,0.05,59.16-0.02,88.75c-0.01,6.32-1.99,11.91-6.75,16.39
	c-4.25,4.01-9.39,5.74-14.99,5.75c-35.74,0.11-71.49,0.18-107.23,0.01C9.21,150.39-0.19,141.66,0,128.93
	c0.28-17.97,0.07-35.95,0.07-53.92C0.08,75.01,0.09,75.01,0.1,75.01z M11.83,74.94c-0.01,0-0.01,0-0.02,0c0,17.97,0,35.94,0,53.92
	c0,6.52,3.36,9.91,9.84,9.91c35.64,0,71.27-0.01,106.91-0.02c6.71,0,10.21-3.5,10.21-10.2c0.01-18.38,0.02-36.77,0.02-55.15
	c0-17.46,0.01-34.92-0.01-52.38c-0.01-5.65-3.52-9.23-8.96-9.23c-36.66,0.01-73.33,0.01-109.99,0.02c-4.99,0-7.99,3-8,7.98
	C11.83,38.18,11.83,56.56,11.83,74.94z"/>
<path d="M80.87,126.93c-7.81,0-15.16,0-22.68,0c0-22.91,0-45.66,0-68.67c7.38,0,14.81,0,22.59,0c0,2.92,0,5.91,0,9.72
	c4.95-7.73,11.43-10.24,19.62-10.06c7.17,0.16,13.83,1.07,19.08,6.42c4.39,4.47,6.55,10.25,6.83,16.19
	c0.74,15.34,0.77,30.71,1.08,46.32c-7.88,0-15.3,0-23.15,0c0-1.16,0-2.36,0-3.55c0-9.75,0.1-19.51-0.06-29.26
	c-0.05-3.22-0.5-6.5-1.27-9.63c-1.37-5.56-6.94-7.21-11.55-6.44c-9.31,1.56-10.05,6.69-10.4,14.28c-0.45,9.94-0.11,19.91-0.11,29.87
	C80.87,123.64,80.87,125.16,80.87,126.93z"/>
<path d="M46.13,126.95c-7.78,0-15.35,0-23.08,0c0-22.91,0-45.67,0-68.69c7.58,0,15.22,0,23.08,0
	C46.13,81.01,46.13,103.85,46.13,126.95z"/>
<path d="M46.35,34.71c-0.09,6.13-5.64,11.63-11.74,11.62c-6.23,0-11.92-5.81-11.73-11.97c0.19-6.18,5.87-11.65,11.92-11.49
	C40.98,23.03,46.44,28.63,46.35,34.71z"/>
</svg>
