<?xml version="1.0" encoding="utf-8"?>
<!-- Generator: Adobe Illustrator 23.0.2, SVG Export Plug-In . SVG Version: 6.00 Build 0)  -->
<svg version="1.1" id="Layer_1" xmlns="http://www.w3.org/2000/svg" xmlns:xlink="http://www.w3.org/1999/xlink" x="0px" y="0px"
	 viewBox="0 0 15.92 12.32" style="enable-background:new 0 0 15.92 12.32;" xml:space="preserve">
<style type="text/css">
	.st0{fill:#333333;stroke:#333333;stroke-width:0.25;stroke-miterlimit:10;}
</style>
<path class="st0" d="M4.23,1.79C4.17,1.39,4.1,0.98,4.01,0.58C3.99,0.49,3.96,0.43,3.92,0.39C3.87,0.35,3.83,0.34,3.8,0.34
	c-0.05,0-0.1,0.04-0.15,0.11C3.6,0.53,3.58,0.6,3.58,0.69C3.6,0.8,3.62,0.93,3.64,1.04c0.02,0.13,0.04,0.24,0.05,0.35
	c-0.24,0.1-0.51,0.2-0.8,0.3C2.61,1.78,2.34,1.86,2.1,1.91C2.06,1.76,2.04,1.59,2.02,1.44C2,1.28,1.99,1.13,1.98,0.97
	c0-0.03-0.01-0.06-0.02-0.11C1.95,0.82,1.93,0.77,1.91,0.73C1.88,0.68,1.86,0.64,1.82,0.6C1.79,0.58,1.75,0.57,1.71,0.58
	c-0.04,0-0.08,0.03-0.12,0.06C1.54,0.67,1.52,0.73,1.51,0.8c0,0.23,0.02,0.46,0.04,0.71c0.03,0.25,0.06,0.49,0.11,0.73
	c0.05,0.24,0.1,0.46,0.16,0.68c0.06,0.21,0.13,0.4,0.19,0.55C2.02,3.5,2.06,3.52,2.1,3.55c0.04,0.03,0.08,0.04,0.12,0.03
	c0.04-0.03,0.07-0.06,0.09-0.1C2.35,3.45,2.36,3.4,2.37,3.35c0-0.05,0-0.1,0-0.15c0-0.05-0.01-0.08-0.02-0.1
	C2.32,2.98,2.3,2.88,2.27,2.77C2.25,2.66,2.22,2.54,2.2,2.43c0.55-0.16,1.08-0.34,1.58-0.53c0.03,0.19,0.06,0.39,0.08,0.58
	c0.02,0.19,0.05,0.38,0.07,0.56c0.01,0.09,0.05,0.15,0.1,0.2C4.09,3.3,4.14,3.32,4.19,3.32c0.01,0,0.03-0.01,0.05-0.03
	S4.28,3.26,4.3,3.23c0.03-0.04,0.04-0.06,0.06-0.1C4.37,3.1,4.38,3.06,4.37,3.02C4.33,2.61,4.28,2.21,4.23,1.79z"/>
<path class="st0" d="M7.58,0.83c-0.07-0.15-0.17-0.29-0.3-0.39c-0.14-0.11-0.32-0.19-0.56-0.2c-0.13-0.01-0.24,0-0.34,0.03
	C6.28,0.29,6.2,0.34,6.16,0.39c0-0.04-0.01-0.08-0.04-0.1c-0.03-0.03-0.06-0.04-0.1-0.03c-0.14,0.01-0.27,0.09-0.39,0.2
	S5.41,0.72,5.32,0.89C5.25,1.02,5.2,1.18,5.15,1.35C5.11,1.53,5.09,1.71,5.08,1.89c0,0.19,0.02,0.36,0.07,0.55
	C5.2,2.62,5.28,2.77,5.39,2.92C5.56,3.08,5.75,3.17,5.96,3.2c0.21,0.01,0.42-0.03,0.63-0.11c0.12-0.05,0.23-0.13,0.34-0.2
	c0.11-0.09,0.22-0.2,0.31-0.31s0.18-0.24,0.25-0.38c0.08-0.13,0.13-0.28,0.16-0.41c0.03-0.14,0.04-0.29,0.04-0.46
	C7.68,1.14,7.65,0.98,7.58,0.83z M7.16,1.81c-0.04,0.11-0.1,0.21-0.17,0.31c-0.08,0.1-0.16,0.19-0.24,0.26
	C6.66,2.46,6.57,2.52,6.46,2.57c-0.1,0.05-0.2,0.08-0.31,0.08C5.97,2.66,5.83,2.61,5.74,2.49S5.6,2.24,5.59,2.06
	c-0.01-0.13-0.01-0.25,0-0.38s0.04-0.25,0.08-0.36C5.71,1.2,5.76,1.1,5.82,1c0.07-0.09,0.15-0.16,0.24-0.21
	C6.05,0.84,6.07,0.88,6.1,0.89c0.04,0.01,0.07,0,0.1-0.01c0.15-0.09,0.3-0.13,0.44-0.11S6.9,0.82,7,0.89
	c0.07,0.05,0.13,0.13,0.16,0.2c0.03,0.08,0.06,0.16,0.06,0.25c0,0.09,0,0.18-0.01,0.26C7.2,1.68,7.18,1.74,7.16,1.81z"/>
<path class="st0" d="M12.52,0.16c-0.07-0.05-0.13-0.05-0.19-0.01c-0.06,0.04-0.1,0.09-0.13,0.15c-0.07,0.16-0.14,0.35-0.23,0.54
	c-0.08,0.2-0.17,0.39-0.26,0.58s-0.19,0.36-0.28,0.55s-0.19,0.34-0.28,0.49c-0.1-0.21-0.18-0.44-0.26-0.68s-0.15-0.46-0.23-0.68
	c-0.05-0.15-0.15-0.23-0.29-0.23c-0.03,0-0.08,0.01-0.14,0.04C10.17,0.94,10.12,1,10.08,1.09c-0.06,0.13-0.13,0.26-0.21,0.39
	C9.79,1.62,9.71,1.74,9.63,1.87C9.55,1.98,9.47,2.11,9.38,2.22C9.3,2.33,9.22,2.44,9.14,2.54c-0.05-0.11-0.1-0.25-0.13-0.41
	C8.97,1.97,8.95,1.81,8.93,1.64C8.91,1.47,8.89,1.3,8.88,1.14s-0.02-0.3-0.02-0.43c-0.01-0.1-0.04-0.18-0.08-0.24
	c-0.05-0.06-0.11-0.1-0.2-0.1c-0.06,0-0.1,0.01-0.13,0.05C8.42,0.48,8.4,0.52,8.4,0.55c0,0.44,0.02,0.88,0.07,1.3
	S8.63,2.67,8.8,3.02c0.05,0.11,0.13,0.19,0.23,0.2c0.02,0,0.05,0,0.1-0.01c0.04-0.03,0.08-0.05,0.12-0.1
	c0.21-0.23,0.4-0.48,0.58-0.75c0.18-0.26,0.34-0.53,0.49-0.79c0.09,0.3,0.18,0.55,0.27,0.79c0.09,0.23,0.2,0.45,0.32,0.65
	c0.03,0.05,0.06,0.09,0.1,0.11c0.04,0.03,0.09,0.04,0.14,0.04c0.09,0,0.17-0.06,0.25-0.18c0.27-0.41,0.5-0.83,0.69-1.24
	c0.2-0.41,0.37-0.81,0.52-1.2c0.02-0.05,0.02-0.11,0-0.2C12.61,0.26,12.57,0.2,12.52,0.16z"/>
<path class="st0" d="M6,4.77C6,4.72,5.97,4.66,5.92,4.6C5.87,4.55,5.79,4.54,5.68,4.57c-0.03,0-0.06,0.03-0.08,0.04
	C5.59,4.64,5.58,4.66,5.57,4.7c0,0.03,0,0.06,0.01,0.09c0.01,0.03,0.01,0.05,0.01,0.08c0.03,0.35,0.06,0.7,0.08,1.05
	c0.02,0.35,0.04,0.71,0.06,1.06c0,0.08,0.02,0.13,0.05,0.18s0.09,0.06,0.19,0.04C6.02,7.18,6.07,7.15,6.1,7.1
	c0.04-0.04,0.05-0.09,0.05-0.15c0-0.36-0.02-0.73-0.04-1.09C6.09,5.51,6.05,5.15,6,4.77z"/>
<path class="st0" d="M7.06,3.8C6.08,3.72,5.1,3.96,4.13,4.54C4.05,4.6,3.99,4.69,3.96,4.79c0,0.06,0.03,0.11,0.1,0.16
	C4.12,5,4.21,5,4.32,4.95c0.44-0.21,0.89-0.39,1.34-0.51C6.11,4.3,6.58,4.22,7.08,4.22c0.05,0,0.09-0.01,0.11-0.05
	C7.21,4.14,7.22,4.1,7.23,4.05c0.01-0.04,0-0.09-0.04-0.15C7.15,3.85,7.12,3.81,7.06,3.8z"/>
<path class="st0" d="M10.8,4.6c-0.07-0.15-0.17-0.29-0.3-0.4c-0.13-0.11-0.32-0.19-0.55-0.21C9.82,3.97,9.71,3.97,9.61,4
	c-0.1,0.03-0.18,0.06-0.22,0.13c0-0.04-0.01-0.08-0.04-0.11c-0.03-0.03-0.06-0.04-0.1-0.03c-0.14,0.03-0.28,0.09-0.4,0.2
	C8.74,4.3,8.63,4.44,8.55,4.6C8.48,4.75,8.42,4.9,8.37,5.07C8.33,5.25,8.31,5.43,8.31,5.61c0,0.19,0.02,0.38,0.07,0.55
	C8.43,6.34,8.51,6.5,8.62,6.64c0.16,0.18,0.34,0.28,0.55,0.29c0.21,0.03,0.42,0,0.63-0.09c0.11-0.05,0.23-0.11,0.34-0.2
	c0.11-0.09,0.22-0.19,0.31-0.3c0.09-0.11,0.18-0.24,0.25-0.38s0.12-0.28,0.15-0.41s0.04-0.29,0.04-0.46
	C10.89,4.91,10.86,4.75,10.8,4.6z M10.37,5.56c-0.04,0.11-0.1,0.21-0.17,0.31c-0.07,0.1-0.15,0.19-0.24,0.26
	C9.88,6.21,9.78,6.28,9.68,6.32c-0.1,0.05-0.21,0.08-0.31,0.08c-0.18,0-0.32-0.05-0.4-0.16c-0.1-0.11-0.15-0.25-0.16-0.44
	c-0.01-0.13-0.01-0.25,0-0.38c0.01-0.13,0.04-0.25,0.08-0.36c0.04-0.11,0.09-0.21,0.16-0.31c0.06-0.09,0.14-0.16,0.24-0.21
	c-0.02,0.06,0,0.09,0.03,0.1c0.04,0.01,0.07,0,0.1-0.01c0.15-0.09,0.3-0.13,0.44-0.11c0.14,0.01,0.26,0.05,0.36,0.13
	c0.07,0.05,0.12,0.13,0.16,0.2c0.04,0.09,0.06,0.16,0.06,0.26c0,0.09,0,0.18-0.01,0.26C10.41,5.44,10.39,5.5,10.37,5.56z"/>
<path class="st0" d="M2.34,6.14C2.16,6.05,1.96,6,1.75,6S1.31,6.03,1.11,6.09C0.9,6.15,0.72,6.22,0.58,6.3
	C0.47,6.38,0.37,6.46,0.27,6.56c-0.09,0.1-0.14,0.2-0.14,0.33c0,0.03,0.01,0.06,0.03,0.09C0.18,7.01,0.2,7.02,0.25,7.03
	c0.04,0.01,0.08,0.01,0.14,0c0.05-0.01,0.11-0.04,0.17-0.1c0.2-0.15,0.43-0.26,0.66-0.34c0.23-0.08,0.5-0.08,0.8-0.03
	C2.14,6.61,2.24,6.66,2.3,6.72c0.07,0.08,0.1,0.15,0.12,0.24c0.01,0.11,0,0.23-0.04,0.33c-0.04,0.1-0.1,0.21-0.17,0.31
	C2.14,7.7,2.05,7.78,1.95,7.87C1.84,7.96,1.74,8.03,1.62,8.11C1.61,7.97,1.59,7.85,1.57,7.72C1.55,7.6,1.53,7.48,1.52,7.38
	C1.5,7.34,1.48,7.29,1.45,7.24c-0.03-0.05-0.06-0.09-0.1-0.13C1.3,7.07,1.26,7.04,1.23,7.02c-0.04-0.01-0.08-0.03-0.11,0
	C1.08,7.04,1.05,7.08,1.04,7.11C1.02,7.13,1.01,7.16,1,7.18C1,7.21,1,7.23,1,7.24c0.08,0.46,0.14,0.91,0.19,1.38
	c0.04,0.46,0.07,0.91,0.08,1.37c0,0.04,0.03,0.09,0.1,0.15c0.06,0.06,0.13,0.09,0.21,0.09c0.05,0,0.09-0.01,0.12-0.08
	c0.03-0.05,0.04-0.1,0.04-0.16c0-0.19-0.01-0.39-0.01-0.6C1.71,9.19,1.7,8.97,1.67,8.75C1.84,8.62,2,8.48,2.18,8.33
	c0.17-0.15,0.32-0.31,0.44-0.49c0.13-0.16,0.21-0.36,0.26-0.56C2.91,7.07,2.89,6.84,2.8,6.59C2.68,6.38,2.53,6.23,2.34,6.14z"/>
<path class="st0" d="M5.86,9.85C5.7,9.88,5.51,9.9,5.31,9.94c-0.2,0.04-0.4,0.08-0.61,0.13c-0.2,0.05-0.41,0.09-0.61,0.14
	c-0.2,0.04-0.38,0.09-0.54,0.11c0.01-0.16,0.02-0.34,0.04-0.55c0.02-0.21,0.04-0.44,0.05-0.65C3.66,8.89,3.68,8.66,3.7,8.45
	c0.02-0.21,0.04-0.41,0.06-0.6c0.01-0.09,0-0.16-0.02-0.24c-0.03-0.08-0.1-0.1-0.21-0.09c-0.06,0.01-0.12,0.05-0.16,0.1
	C3.32,7.69,3.3,7.75,3.29,7.84C3.24,8.25,3.2,8.66,3.17,9.09C3.14,9.5,3.11,9.93,3.09,10.34c-0.01,0.21,0.02,0.38,0.1,0.48
	c0.08,0.1,0.19,0.13,0.34,0.08c0.16-0.05,0.34-0.1,0.52-0.15c0.18-0.04,0.37-0.09,0.56-0.14c0.19-0.05,0.37-0.1,0.54-0.15
	c0.18-0.05,0.34-0.09,0.49-0.14c0.03-0.04,0.06-0.05,0.1-0.08c0.04-0.01,0.07-0.04,0.1-0.05c0.04-0.01,0.07-0.04,0.09-0.08
	c0.03-0.04,0.04-0.09,0.04-0.15c0-0.05-0.02-0.08-0.06-0.1C5.89,9.85,5.87,9.85,5.86,9.85z"/>
<path class="st0" d="M9.24,10.55c-0.07-0.15-0.13-0.3-0.19-0.46C8.99,9.94,8.93,9.78,8.87,9.61c0.1-0.06,0.17-0.11,0.21-0.16
	s0.04-0.13,0.02-0.2c-0.02-0.06-0.07-0.1-0.14-0.11C8.89,9.12,8.83,9.12,8.78,9.12c-0.01,0-0.03,0.01-0.04,0.01S8.71,9.15,8.7,9.15
	C8.62,8.87,8.53,8.6,8.45,8.32S8.29,7.77,8.23,7.51C8.19,7.42,8.16,7.35,8.14,7.3C8.11,7.25,8.09,7.21,8.07,7.18
	C8.05,7.16,8.03,7.14,8.02,7.13c-0.02,0-0.03,0-0.05,0c-0.03,0-0.07,0.01-0.1,0.03S7.81,7.18,7.78,7.21C7.76,7.2,7.73,7.2,7.7,7.21
	c-0.03,0-0.06,0.03-0.09,0.06C7.47,7.53,7.32,7.82,7.18,8.13c-0.14,0.33-0.27,0.65-0.4,0.99c-0.12,0.34-0.23,0.69-0.32,1.03
	c-0.09,0.34-0.16,0.66-0.2,0.96c-0.01,0.09,0.01,0.16,0.05,0.21c0.05,0.06,0.12,0.08,0.21,0.05c0.04-0.01,0.09-0.05,0.13-0.11
	c0.04-0.08,0.07-0.15,0.1-0.24c0.05-0.19,0.09-0.38,0.15-0.56c0.05-0.19,0.11-0.38,0.16-0.58c0.23,0,0.46-0.03,0.7-0.05
	C8,9.81,8.22,9.78,8.42,9.74c0.07,0.18,0.14,0.35,0.21,0.53c0.07,0.18,0.15,0.34,0.23,0.51c0.01,0.03,0.03,0.06,0.06,0.1
	c0.03,0.04,0.06,0.08,0.09,0.11s0.07,0.06,0.1,0.09c0.04,0.03,0.07,0.03,0.1,0.01c0.03-0.01,0.05-0.05,0.06-0.09
	c0.01-0.05,0.01-0.1,0.01-0.15s-0.01-0.1-0.01-0.16C9.25,10.63,9.25,10.58,9.24,10.55z M7.22,9.39c0.17-0.53,0.37-1.05,0.6-1.58
	c0.12,0.5,0.26,0.99,0.43,1.45C7.88,9.34,7.54,9.39,7.22,9.39z"/>
<path class="st0" d="M12.67,6.64c-0.07,0.01-0.13,0.06-0.2,0.16c-0.18,0.29-0.37,0.59-0.58,0.9s-0.42,0.63-0.65,0.93
	c-0.05-0.1-0.1-0.21-0.15-0.34c-0.06-0.14-0.11-0.28-0.17-0.41c-0.06-0.15-0.11-0.29-0.16-0.43s-0.1-0.26-0.13-0.38
	c-0.04-0.06-0.08-0.09-0.13-0.1c-0.05-0.01-0.1-0.03-0.15-0.01c-0.05,0.01-0.08,0.03-0.1,0.06c-0.02,0.04-0.03,0.08-0.04,0.11
	c0,0.05,0,0.1,0.01,0.15c0.01,0.05,0.02,0.1,0.04,0.15C10.35,7.7,10.46,8,10.6,8.33c0.13,0.33,0.28,0.65,0.44,0.98
	c-0.03,0.26-0.06,0.53-0.09,0.78c-0.02,0.25-0.04,0.49-0.05,0.7c0,0.09,0.02,0.15,0.06,0.18c0.04,0.04,0.09,0.05,0.15,0.05
	c0.15,0,0.23-0.06,0.24-0.21c0-0.09,0.01-0.21,0.02-0.36c0.01-0.16,0.03-0.33,0.05-0.49c0.02-0.18,0.04-0.34,0.06-0.49
	c0.02-0.15,0.05-0.28,0.07-0.35c0.1-0.14,0.2-0.3,0.32-0.48s0.24-0.35,0.36-0.54c0.12-0.18,0.24-0.36,0.35-0.54
	c0.11-0.18,0.22-0.34,0.3-0.49c0.02-0.05,0.04-0.11,0.03-0.19c0-0.08-0.03-0.13-0.06-0.15C12.79,6.64,12.74,6.62,12.67,6.64z"/>
<path class="st0" d="M15.28,11.48c-0.02-0.04-0.04-0.05-0.06-0.05c-0.02,0-0.04,0-0.05,0.01c-0.02,0.01-0.03,0.03-0.04,0.05
	c-0.01,0.03-0.02,0.04-0.02,0.05c0,0.04-0.01,0.08-0.03,0.13c-0.01,0.05-0.02,0.1-0.03,0.15s-0.01,0.1-0.01,0.15
	c0,0.05,0.02,0.09,0.04,0.13c0.04,0.06,0.09,0.09,0.15,0.1s0.12,0,0.17-0.03c0.06-0.03,0.1-0.06,0.14-0.13
	c0.04-0.05,0.05-0.11,0.04-0.19c0-0.06-0.03-0.11-0.1-0.18C15.42,11.6,15.35,11.54,15.28,11.48z"/>
<path class="st0" d="M15.77,7.84c-0.05-0.2-0.16-0.35-0.32-0.44c-0.16-0.1-0.33-0.14-0.52-0.14c-0.15,0-0.29,0.04-0.42,0.1
	c-0.13,0.06-0.24,0.15-0.33,0.26C14.09,7.74,14.03,7.86,14,8.01c-0.03,0.14,0.02,0.28,0.13,0.4c0.03,0.03,0.06,0.04,0.09,0.04
	c0.04,0,0.07-0.01,0.11-0.04c0.04-0.03,0.04-0.09,0.01-0.16c0.01-0.1,0.06-0.2,0.15-0.29c0.08-0.09,0.19-0.14,0.3-0.18
	c0.07-0.01,0.14-0.03,0.2-0.01c0.06,0,0.12,0.03,0.17,0.04s0.09,0.05,0.13,0.08c0.03,0.03,0.05,0.06,0.05,0.1
	c0.01,0.1,0,0.19-0.04,0.28c-0.03,0.09-0.08,0.18-0.14,0.26s-0.13,0.16-0.21,0.24c-0.07,0.08-0.15,0.15-0.22,0.21
	c-0.07,0.08-0.13,0.16-0.17,0.25c-0.05,0.09-0.08,0.18-0.1,0.28c-0.02,0.1-0.02,0.19,0,0.29s0.05,0.18,0.1,0.25
	c0.08,0.1,0.17,0.13,0.26,0.09c0.04-0.03,0.06-0.05,0.06-0.09c0.01-0.04,0-0.1-0.03-0.16c-0.01-0.11,0-0.21,0.04-0.3
	c0.04-0.09,0.09-0.16,0.16-0.24c0.06-0.08,0.13-0.15,0.21-0.21c0.08-0.06,0.15-0.14,0.21-0.21c0.11-0.13,0.2-0.28,0.27-0.45
	C15.81,8.28,15.82,8.08,15.77,7.84z"/>
</svg>
