<?xml version="1.0" encoding="utf-8"?>
<!-- Generator: Adobe Illustrator 23.0.2, SVG Export Plug-In . SVG Version: 6.00 Build 0)  -->
<svg version="1.1" id="Layer_1" xmlns="http://www.w3.org/2000/svg" xmlns:xlink="http://www.w3.org/1999/xlink" x="0px" y="0px"
	 viewBox="0 0 17.37 10.02" style="enable-background:new 0 0 17.37 10.02;" xml:space="preserve">
<style type="text/css">
	.st0{fill:#333333;stroke:#333333;stroke-width:0.25;stroke-miterlimit:10;}
</style>
<path class="st0" d="M3.78,1.6C3.72,1.28,3.65,0.95,3.56,0.63C3.54,0.56,3.51,0.51,3.47,0.48C3.42,0.45,3.38,0.44,3.35,0.44
	c-0.05,0-0.1,0.03-0.15,0.09C3.15,0.59,3.13,0.65,3.13,0.72C3.15,0.81,3.17,0.91,3.19,1c0.02,0.1,0.04,0.19,0.05,0.28
	C3,1.36,2.73,1.44,2.44,1.52C2.16,1.59,1.89,1.65,1.65,1.69C1.61,1.57,1.59,1.44,1.57,1.32C1.55,1.19,1.54,1.07,1.53,0.94
	c0-0.02-0.01-0.05-0.02-0.09c-0.01-0.03-0.03-0.07-0.05-0.1C1.43,0.71,1.41,0.68,1.37,0.65C1.34,0.63,1.3,0.62,1.26,0.63
	c-0.04,0-0.08,0.02-0.12,0.05C1.09,0.7,1.07,0.75,1.06,0.81c0,0.18,0.02,0.37,0.04,0.57c0.03,0.2,0.06,0.39,0.11,0.58
	c0.05,0.19,0.1,0.37,0.16,0.54c0.06,0.17,0.13,0.32,0.19,0.44c0.01,0.02,0.05,0.04,0.09,0.06c0.04,0.02,0.08,0.03,0.12,0.02
	c0.04-0.02,0.07-0.05,0.09-0.08C1.9,2.92,1.91,2.88,1.92,2.84c0-0.04,0-0.08,0-0.12c0-0.04-0.01-0.06-0.02-0.08
	C1.87,2.55,1.85,2.47,1.82,2.38C1.8,2.29,1.77,2.2,1.75,2.11C2.3,1.98,2.83,1.84,3.33,1.69c0.03,0.15,0.06,0.31,0.08,0.46
	C3.43,2.3,3.46,2.45,3.48,2.6c0.01,0.07,0.05,0.12,0.1,0.16C3.64,2.8,3.69,2.82,3.74,2.82c0.01,0,0.03-0.01,0.05-0.02
	c0.02-0.01,0.04-0.03,0.06-0.05C3.88,2.72,3.89,2.7,3.91,2.67c0.01-0.03,0.02-0.06,0.01-0.09C3.88,2.25,3.83,1.93,3.78,1.6z"/>
<path class="st0" d="M7.53,0.83C7.46,0.71,7.36,0.6,7.23,0.52C7.09,0.43,6.91,0.37,6.67,0.36c-0.13-0.01-0.24,0-0.34,0.02
	c-0.1,0.02-0.18,0.06-0.22,0.1c0-0.03-0.01-0.06-0.04-0.08c-0.03-0.02-0.06-0.03-0.1-0.02C5.83,0.39,5.7,0.45,5.58,0.54
	c-0.12,0.09-0.22,0.2-0.31,0.34C5.2,0.98,5.15,1.11,5.1,1.25C5.06,1.39,5.04,1.53,5.03,1.68c0,0.15,0.02,0.29,0.07,0.44
	c0.05,0.14,0.13,0.26,0.24,0.38C5.51,2.63,5.7,2.7,5.91,2.72C6.12,2.73,6.33,2.7,6.54,2.63c0.12-0.04,0.23-0.1,0.34-0.16
	C6.99,2.4,7.1,2.31,7.19,2.22c0.09-0.09,0.18-0.19,0.25-0.3C7.52,1.82,7.57,1.7,7.6,1.59c0.03-0.11,0.04-0.23,0.04-0.37
	C7.63,1.08,7.6,0.95,7.53,0.83z M7.11,1.61c-0.04,0.09-0.1,0.17-0.17,0.25C6.86,1.94,6.78,2.01,6.7,2.07
	C6.61,2.13,6.52,2.18,6.41,2.22C6.31,2.26,6.21,2.28,6.1,2.28C5.92,2.29,5.78,2.25,5.69,2.16c-0.09-0.09-0.14-0.2-0.15-0.35
	c-0.01-0.1-0.01-0.2,0-0.3c0.01-0.1,0.04-0.2,0.08-0.29c0.04-0.09,0.09-0.17,0.15-0.25C5.84,0.9,5.92,0.84,6.01,0.8
	C6,0.84,6.02,0.87,6.05,0.88c0.04,0.01,0.07,0,0.1-0.01c0.15-0.07,0.3-0.1,0.44-0.09c0.14,0.01,0.26,0.04,0.36,0.1
	c0.07,0.04,0.13,0.1,0.16,0.16c0.03,0.06,0.06,0.13,0.06,0.2c0,0.07,0,0.14-0.01,0.21C7.15,1.51,7.13,1.56,7.11,1.61z"/>
<path class="st0" d="M12.93,0.15c-0.07-0.04-0.13-0.04-0.19-0.01c-0.06,0.03-0.1,0.07-0.13,0.12c-0.07,0.13-0.14,0.28-0.23,0.43
	C12.3,0.85,12.21,1,12.12,1.15c-0.09,0.15-0.19,0.29-0.28,0.44s-0.19,0.27-0.28,0.39c-0.1-0.17-0.18-0.35-0.26-0.54
	c-0.08-0.19-0.15-0.37-0.23-0.54c-0.05-0.12-0.15-0.18-0.29-0.18c-0.03,0-0.08,0.01-0.14,0.03c-0.06,0.02-0.11,0.07-0.15,0.14
	c-0.06,0.1-0.13,0.21-0.21,0.31c-0.08,0.11-0.16,0.21-0.24,0.31C9.96,1.6,9.88,1.7,9.79,1.79C9.71,1.88,9.63,1.97,9.55,2.05
	c-0.05-0.09-0.1-0.2-0.13-0.33C9.38,1.59,9.36,1.46,9.34,1.33C9.32,1.19,9.3,1.06,9.29,0.93C9.28,0.8,9.27,0.69,9.27,0.59
	C9.26,0.51,9.23,0.45,9.19,0.4c-0.05-0.05-0.11-0.08-0.2-0.08c-0.06,0-0.1,0.01-0.13,0.04C8.83,0.4,8.81,0.43,8.81,0.46
	C8.81,0.81,8.83,1.16,8.88,1.5c0.05,0.34,0.16,0.65,0.33,0.93c0.05,0.09,0.13,0.15,0.23,0.16c0.02,0,0.05,0,0.1-0.01
	C9.58,2.56,9.62,2.54,9.66,2.5c0.21-0.18,0.4-0.38,0.58-0.6c0.18-0.21,0.34-0.42,0.49-0.63C10.82,1.51,10.91,1.71,11,1.9
	c0.09,0.18,0.2,0.36,0.32,0.52c0.03,0.04,0.06,0.07,0.1,0.09c0.04,0.02,0.09,0.03,0.14,0.03c0.09,0,0.17-0.05,0.25-0.14
	c0.27-0.33,0.5-0.66,0.69-0.99c0.2-0.33,0.37-0.65,0.52-0.96c0.02-0.04,0.02-0.09,0-0.16C13.02,0.23,12.98,0.18,12.93,0.15z"/>
<path class="st0" d="M5.95,3.98c0-0.04-0.03-0.09-0.08-0.14C5.82,3.8,5.74,3.79,5.63,3.82C5.6,3.82,5.57,3.84,5.55,3.85
	C5.54,3.87,5.53,3.89,5.52,3.92c0,0.02,0,0.05,0.01,0.07c0.01,0.02,0.01,0.04,0.01,0.06C5.57,4.33,5.6,4.61,5.62,4.89
	c0.02,0.28,0.04,0.57,0.06,0.85C5.68,5.8,5.7,5.84,5.73,5.88c0.03,0.04,0.09,0.05,0.19,0.03c0.05-0.01,0.1-0.03,0.13-0.07
	C6.09,5.81,6.1,5.77,6.1,5.72c0-0.29-0.02-0.58-0.04-0.87C6.04,4.57,6,4.28,5.95,3.98z"/>
<path class="st0" d="M7.01,3.2C6.03,3.14,5.05,3.33,4.08,3.79C4,3.84,3.94,3.91,3.91,3.99c0,0.05,0.03,0.09,0.1,0.13
	c0.06,0.04,0.15,0.04,0.26,0c0.44-0.17,0.89-0.31,1.34-0.41C6.06,3.6,6.53,3.54,7.03,3.54c0.05,0,0.09-0.01,0.11-0.04
	c0.02-0.03,0.03-0.06,0.04-0.1c0.01-0.03,0-0.07-0.04-0.12C7.1,3.24,7.07,3.21,7.01,3.2z"/>
<path class="st0" d="M10.75,3.84c-0.07-0.12-0.17-0.23-0.3-0.32c-0.13-0.09-0.32-0.15-0.55-0.17C9.77,3.34,9.66,3.34,9.56,3.36
	c-0.1,0.02-0.18,0.05-0.22,0.1c0-0.03-0.01-0.06-0.04-0.09C9.27,3.35,9.24,3.34,9.2,3.35c-0.14,0.02-0.28,0.07-0.4,0.16
	C8.69,3.6,8.58,3.71,8.5,3.84C8.43,3.96,8.37,4.08,8.32,4.22C8.28,4.36,8.26,4.5,8.26,4.65c0,0.15,0.02,0.3,0.07,0.44
	c0.05,0.14,0.13,0.27,0.24,0.38C8.73,5.61,8.91,5.69,9.12,5.7C9.33,5.72,9.54,5.7,9.75,5.63c0.11-0.04,0.23-0.09,0.34-0.16
	c0.11-0.07,0.22-0.15,0.31-0.24c0.09-0.09,0.18-0.19,0.25-0.3c0.07-0.11,0.12-0.22,0.15-0.33c0.03-0.11,0.04-0.23,0.04-0.37
	C10.84,4.09,10.81,3.96,10.75,3.84z M10.32,4.61c-0.04,0.09-0.1,0.17-0.17,0.25C10.08,4.94,10,5.01,9.91,5.07
	C9.83,5.13,9.73,5.18,9.63,5.21c-0.1,0.04-0.21,0.06-0.31,0.06c-0.18,0-0.32-0.04-0.4-0.13C8.82,5.05,8.77,4.94,8.76,4.79
	c-0.01-0.1-0.01-0.2,0-0.3c0.01-0.1,0.04-0.2,0.08-0.29c0.04-0.09,0.09-0.17,0.16-0.25c0.06-0.07,0.14-0.13,0.24-0.17
	C9.22,3.83,9.24,3.85,9.27,3.86c0.04,0.01,0.07,0,0.1-0.01c0.15-0.07,0.3-0.1,0.44-0.09c0.14,0.01,0.26,0.04,0.36,0.1
	c0.07,0.04,0.12,0.1,0.16,0.16c0.04,0.07,0.06,0.13,0.06,0.21c0,0.07,0,0.14-0.01,0.21C10.36,4.51,10.34,4.56,10.32,4.61z"/>
<path class="st0" d="M2.35,6.19C2.16,6.12,1.96,6.08,1.75,6.08c-0.21,0-0.43,0.02-0.64,0.07s-0.39,0.1-0.53,0.17
	c-0.11,0.06-0.21,0.12-0.31,0.2C0.18,6.6,0.13,6.68,0.13,6.78c0,0.02,0.01,0.05,0.03,0.07C0.18,6.88,0.2,6.89,0.25,6.9
	c0.04,0.01,0.08,0.01,0.14,0c0.05-0.01,0.11-0.03,0.17-0.08C0.76,6.7,0.99,6.61,1.22,6.55c0.23-0.06,0.5-0.06,0.8-0.02
	C2.15,6.56,2.25,6.6,2.31,6.65c0.07,0.06,0.1,0.12,0.12,0.19C2.44,6.93,2.43,7.02,2.39,7.1c-0.04,0.08-0.1,0.17-0.17,0.25
	C2.14,7.43,2.05,7.5,1.95,7.57C1.84,7.64,1.74,7.7,1.62,7.76C1.61,7.65,1.59,7.55,1.57,7.45c-0.02-0.1-0.04-0.19-0.05-0.27
	C1.51,7.15,1.48,7.11,1.45,7.07C1.42,7.03,1.39,7,1.35,6.97C1.31,6.93,1.27,6.91,1.23,6.89c-0.04-0.01-0.08-0.02-0.11,0
	C1.08,6.91,1.06,6.94,1.05,6.96C1.03,6.98,1.02,7,1.01,7.02C1,7.04,1,7.06,1,7.07c0.08,0.37,0.14,0.73,0.19,1.1
	c0.04,0.37,0.07,0.73,0.08,1.09c0,0.03,0.03,0.07,0.1,0.12c0.06,0.05,0.13,0.07,0.21,0.07c0.05,0,0.09-0.01,0.12-0.06
	c0.03-0.04,0.04-0.08,0.04-0.13c0-0.15-0.01-0.31-0.01-0.48C1.71,8.62,1.7,8.45,1.68,8.27C1.84,8.17,2,8.06,2.18,7.94
	C2.35,7.82,2.5,7.69,2.62,7.55C2.75,7.42,2.83,7.26,2.88,7.1C2.92,6.93,2.9,6.75,2.8,6.55C2.69,6.38,2.54,6.26,2.35,6.19z"/>
<path class="st0" d="M6.83,8.32C6.67,8.34,6.48,8.36,6.28,8.39c-0.2,0.03-0.4,0.06-0.61,0.1c-0.2,0.04-0.41,0.07-0.61,0.11
	c-0.2,0.03-0.38,0.07-0.54,0.09c0.01-0.13,0.02-0.27,0.04-0.44C4.58,8.08,4.6,7.9,4.61,7.73C4.63,7.55,4.65,7.37,4.67,7.2
	c0.02-0.17,0.04-0.33,0.06-0.48c0.01-0.07,0-0.13-0.02-0.19C4.68,6.47,4.61,6.45,4.5,6.46C4.44,6.47,4.38,6.5,4.34,6.54
	c-0.05,0.05-0.07,0.1-0.08,0.17c-0.05,0.33-0.09,0.66-0.12,1c-0.03,0.33-0.06,0.67-0.08,1c-0.01,0.17,0.02,0.3,0.1,0.38
	c0.08,0.08,0.19,0.1,0.34,0.06c0.16-0.04,0.34-0.08,0.52-0.12C5.2,9,5.39,8.96,5.58,8.92C5.77,8.88,5.95,8.84,6.12,8.8
	C6.3,8.76,6.46,8.73,6.61,8.69c0.03-0.03,0.06-0.04,0.1-0.06c0.04-0.01,0.07-0.03,0.1-0.04C6.85,8.58,6.88,8.56,6.9,8.53
	C6.93,8.5,6.94,8.46,6.94,8.41c0-0.04-0.02-0.06-0.06-0.08C6.86,8.32,6.84,8.32,6.83,8.32z"/>
<path class="st0" d="M10.61,8.79c-0.07-0.12-0.13-0.24-0.19-0.37c-0.06-0.12-0.12-0.25-0.18-0.38c0.1-0.05,0.17-0.09,0.21-0.13
	c0.04-0.04,0.04-0.1,0.02-0.16c-0.02-0.05-0.07-0.08-0.14-0.09c-0.07-0.01-0.13-0.01-0.18-0.01c-0.01,0-0.03,0.01-0.04,0.01
	c-0.01,0-0.03,0.01-0.04,0.01C9.99,7.45,9.9,7.23,9.82,7.01C9.74,6.79,9.66,6.57,9.6,6.36C9.56,6.29,9.53,6.23,9.51,6.19
	C9.48,6.15,9.46,6.12,9.44,6.1C9.42,6.08,9.4,6.07,9.39,6.06C9.37,6.06,9.36,6.06,9.34,6.06c-0.03,0-0.07,0.01-0.1,0.02
	S9.18,6.1,9.15,6.12c-0.02-0.01-0.05-0.01-0.08,0C9.04,6.12,9.01,6.14,8.98,6.17C8.84,6.38,8.69,6.61,8.55,6.86
	c-0.14,0.26-0.27,0.52-0.4,0.79C8.03,7.92,7.92,8.2,7.83,8.47C7.74,8.74,7.67,9,7.63,9.24C7.62,9.31,7.64,9.37,7.68,9.41
	C7.73,9.46,7.8,9.47,7.89,9.45c0.04-0.01,0.09-0.04,0.13-0.09c0.04-0.06,0.07-0.12,0.1-0.19c0.05-0.15,0.09-0.3,0.15-0.45
	c0.05-0.15,0.11-0.3,0.16-0.46c0.23,0,0.46-0.02,0.7-0.04C9.37,8.2,9.59,8.17,9.79,8.14C9.86,8.28,9.93,8.42,10,8.56
	c0.07,0.14,0.15,0.27,0.23,0.41c0.01,0.02,0.03,0.05,0.06,0.08c0.03,0.03,0.06,0.06,0.09,0.09c0.03,0.03,0.07,0.05,0.1,0.07
	c0.04,0.02,0.07,0.02,0.1,0.01c0.03-0.01,0.05-0.04,0.06-0.07c0.01-0.04,0.01-0.08,0.01-0.12c0-0.04-0.01-0.08-0.01-0.13
	C10.62,8.85,10.62,8.81,10.61,8.79z M8.59,7.86c0.17-0.42,0.37-0.84,0.6-1.26c0.12,0.4,0.26,0.79,0.43,1.16
	C9.25,7.82,8.91,7.86,8.59,7.86z"/>
<path class="st0" d="M14.12,5.93c-0.07,0.01-0.13,0.05-0.2,0.13c-0.18,0.23-0.37,0.47-0.58,0.72c-0.21,0.25-0.42,0.5-0.65,0.74
	c-0.05-0.08-0.1-0.17-0.15-0.27c-0.06-0.11-0.11-0.22-0.17-0.33c-0.06-0.12-0.11-0.23-0.16-0.34c-0.05-0.11-0.1-0.21-0.13-0.3
	c-0.04-0.05-0.08-0.07-0.13-0.08c-0.05-0.01-0.1-0.02-0.15-0.01c-0.05,0.01-0.08,0.02-0.1,0.05c-0.02,0.03-0.03,0.06-0.04,0.09
	c0,0.04,0,0.08,0.01,0.12c0.01,0.04,0.02,0.08,0.04,0.12c0.09,0.21,0.2,0.45,0.34,0.71c0.13,0.26,0.28,0.52,0.44,0.78
	c-0.03,0.21-0.06,0.42-0.09,0.62c-0.02,0.2-0.04,0.39-0.05,0.56c0,0.07,0.02,0.12,0.06,0.14c0.04,0.03,0.09,0.04,0.15,0.04
	c0.15,0,0.23-0.05,0.24-0.17c0-0.07,0.01-0.17,0.02-0.29c0.01-0.13,0.03-0.26,0.05-0.39c0.02-0.14,0.04-0.27,0.06-0.39
	c0.02-0.12,0.05-0.22,0.07-0.28c0.1-0.11,0.2-0.24,0.32-0.38c0.12-0.14,0.24-0.28,0.36-0.43c0.12-0.14,0.24-0.29,0.35-0.43
	c0.11-0.14,0.22-0.27,0.3-0.39c0.02-0.04,0.04-0.09,0.03-0.15c0-0.06-0.03-0.1-0.06-0.12C14.24,5.93,14.19,5.92,14.12,5.93z"/>
<path class="st0" d="M16.23,9.33c-0.02-0.03-0.04-0.04-0.06-0.04c-0.02,0-0.04,0-0.05,0.01c-0.02,0.01-0.03,0.02-0.04,0.04
	c-0.01,0.02-0.02,0.03-0.02,0.04c0,0.03-0.01,0.06-0.03,0.1C16.02,9.52,16.01,9.56,16,9.6c-0.01,0.04-0.01,0.08-0.01,0.12
	c0,0.04,0.02,0.07,0.04,0.1c0.04,0.05,0.09,0.07,0.15,0.08c0.06,0.01,0.12,0,0.17-0.02c0.06-0.02,0.1-0.05,0.14-0.1
	c0.04-0.04,0.05-0.09,0.04-0.15c0-0.05-0.03-0.09-0.1-0.14C16.37,9.43,16.3,9.38,16.23,9.33z"/>
<path class="st0" d="M17.22,6.89c-0.05-0.16-0.16-0.28-0.32-0.35c-0.16-0.08-0.33-0.11-0.52-0.11c-0.15,0-0.29,0.03-0.42,0.08
	c-0.13,0.05-0.24,0.12-0.33,0.21c-0.09,0.09-0.15,0.19-0.18,0.31c-0.03,0.11,0.02,0.22,0.13,0.32c0.03,0.02,0.06,0.03,0.09,0.03
	c0.04,0,0.07-0.01,0.11-0.03c0.04-0.02,0.04-0.07,0.01-0.13c0.01-0.08,0.06-0.16,0.15-0.23c0.08-0.07,0.19-0.11,0.3-0.14
	c0.07-0.01,0.14-0.02,0.2-0.01c0.06,0,0.12,0.02,0.17,0.03s0.09,0.04,0.13,0.06c0.03,0.02,0.05,0.05,0.05,0.08
	c0.01,0.08,0,0.15-0.04,0.22c-0.03,0.07-0.08,0.14-0.14,0.21c-0.06,0.07-0.13,0.13-0.21,0.19c-0.07,0.06-0.15,0.12-0.22,0.17
	C16.11,7.86,16.05,7.93,16.01,8c-0.05,0.07-0.08,0.14-0.1,0.22c-0.02,0.08-0.02,0.15,0,0.23c0.02,0.08,0.05,0.14,0.1,0.2
	c0.08,0.08,0.17,0.1,0.26,0.07c0.04-0.02,0.06-0.04,0.06-0.07c0.01-0.03,0-0.08-0.03-0.13c-0.01-0.09,0-0.17,0.04-0.24
	c0.04-0.07,0.09-0.13,0.16-0.19c0.06-0.06,0.13-0.12,0.21-0.17c0.08-0.05,0.15-0.11,0.21-0.17c0.11-0.1,0.2-0.22,0.27-0.36
	C17.26,7.24,17.27,7.08,17.22,6.89z"/>
</svg>
