<?xml version="1.0" encoding="utf-8"?>
<!-- Generator: Adobe Illustrator 23.0.2, SVG Export Plug-In . SVG Version: 6.00 Build 0)  -->
<svg version="1.1" id="Layer_1" xmlns="http://www.w3.org/2000/svg" xmlns:xlink="http://www.w3.org/1999/xlink" x="0px" y="0px"
	 viewBox="0 0 39.69 20.55" style="enable-background:new 0 0 39.69 20.55;" xml:space="preserve">
<style type="text/css">
	.st0{fill:#9BA9F9;stroke:#9BA9F9;stroke-width:0.3;stroke-miterlimit:10;}
	.st1{enable-background:new    ;}
	.st2{fill:#9BA9F9;}
</style>
<path class="st0" d="M1.1,13.48c-0.29,0.01-0.52-0.04-0.68-0.16c-0.17-0.11-0.26-0.24-0.29-0.39c-0.04-0.16,0-0.34,0.12-0.53
	c0.12-0.2,0.37-0.35,0.77-0.47c0.12-0.04,0.32-0.08,0.59-0.14c0.28-0.06,0.67-0.12,1.17-0.18c0.22-0.03,0.4-0.14,0.54-0.32
	c0.58-0.84,1.09-1.86,1.54-3.04C5.04,7.78,5.2,7.26,5.35,6.7s0.27-1.14,0.39-1.73c0.11-0.58,0.21-1.15,0.3-1.71
	C6.13,2.69,6.19,2.2,6.25,1.77C6.3,1.34,6.34,0.99,6.37,0.72S6.41,0.31,6.41,0.3c0.01-0.05,0.03-0.1,0.08-0.13s0.09-0.04,0.14-0.04
	c0.05,0,0.1,0.02,0.14,0.06s0.05,0.09,0.04,0.14c0,0.04-0.02,0.19-0.04,0.47S6.7,1.44,6.64,1.89c-0.06,0.44-0.13,0.94-0.21,1.5
	C6.34,3.95,6.25,4.52,6.13,5.1S5.89,6.26,5.74,6.83c-0.15,0.58-0.32,1.1-0.5,1.57c-0.2,0.54-0.42,1.05-0.66,1.53
	c-0.24,0.47-0.48,0.91-0.73,1.3c-0.04,0.06-0.04,0.12,0,0.18s0.09,0.09,0.16,0.09c0.52-0.05,1.14-0.09,1.85-0.12
	s1.52-0.05,2.43-0.06s1.94-0.01,3.08,0.01c1.14,0.01,2.4,0.05,3.79,0.1c0.14,0,0.2,0.06,0.18,0.21c0,0.13-0.06,0.2-0.2,0.2
	c-2.69-0.09-4.98-0.13-6.87-0.11s-3.42,0.09-4.59,0.2c-0.21,0.03-0.39,0.12-0.54,0.27c-0.3,0.37-0.6,0.67-0.91,0.89
	s-0.6,0.35-0.89,0.39C1.29,13.47,1.21,13.48,1.1,13.48z M2.47,12.33c0.05-0.06,0.06-0.12,0.04-0.19s-0.09-0.1-0.17-0.08
	c-0.26,0.04-0.48,0.08-0.68,0.12s-0.37,0.08-0.5,0.13c-0.23,0.07-0.4,0.16-0.51,0.26c-0.1,0.1-0.14,0.19-0.12,0.28
	s0.1,0.15,0.23,0.2s0.31,0.06,0.53,0.02C1.64,13,2.03,12.76,2.47,12.33z"/>
<path class="st0" d="M8.15,10.93c-0.1,0-0.18-0.03-0.24-0.09c-0.03-0.04-0.06-0.1-0.09-0.18s-0.04-0.2-0.04-0.35S7.79,9.95,7.82,9.7
	C7.86,9.45,7.92,9.14,8,8.76c0.05-0.2,0.1-0.4,0.14-0.58C8.2,8,8.25,7.83,8.3,7.68l0.15-0.49C8.47,7.14,8.5,7.1,8.55,7.07
	C8.6,7.04,8.65,7.04,8.7,7.06c0.13,0.03,0.18,0.11,0.14,0.25c-0.2,0.63-0.36,1.22-0.48,1.77s-0.19,0.96-0.19,1.23
	c0,0.05,0.02,0.09,0.07,0.11c0.04,0.02,0.08,0.01,0.11-0.04c0.09-0.1,0.21-0.23,0.34-0.41S8.97,9.6,9.12,9.39
	c0.15-0.22,0.3-0.45,0.46-0.7c0.15-0.25,0.3-0.5,0.45-0.75c0.07-0.11,0.16-0.14,0.27-0.09C10.4,7.91,10.43,8,10.4,8.1
	c-0.04,0.1-0.08,0.23-0.13,0.4s-0.09,0.34-0.12,0.53S10.1,9.39,10.1,9.57s0.03,0.33,0.08,0.44c0.06,0.09,0.13,0.16,0.21,0.19
	c0.13,0.04,0.32-0.01,0.56-0.15c0.24-0.14,0.5-0.33,0.78-0.57s0.56-0.51,0.84-0.81s0.54-0.58,0.76-0.84
	c0.03-0.04,0.07-0.07,0.13-0.08c0.05-0.01,0.1,0.01,0.15,0.05c0.04,0.03,0.07,0.07,0.08,0.13c0.01,0.05-0.01,0.11-0.05,0.16
	c-0.06,0.08-0.17,0.2-0.31,0.36C13.17,8.63,13,8.82,12.8,9.02c-0.19,0.21-0.41,0.41-0.63,0.61c-0.23,0.21-0.46,0.39-0.69,0.55
	s-0.45,0.28-0.66,0.36s-0.4,0.1-0.56,0.05c-0.19-0.06-0.35-0.19-0.46-0.39C9.74,10.1,9.71,10,9.69,9.88
	C9.68,9.77,9.67,9.65,9.67,9.52c0.01-0.03,0-0.05-0.04-0.06s-0.07,0-0.09,0.02c-0.24,0.37-0.48,0.71-0.73,1
	c-0.25,0.29-0.46,0.44-0.63,0.46L8.15,10.93z"/>
<path class="st0" d="M16.66,11.91c-0.56,0.02-1.02-0.15-1.4-0.51c-0.22-0.21-0.39-0.45-0.52-0.73c-0.13-0.27-0.22-0.54-0.27-0.78
	c-0.05-0.25-0.09-0.46-0.1-0.63c-0.01-0.18-0.02-0.28-0.02-0.3c0-0.11,0.05-0.17,0.17-0.2c0.11-0.02,0.23-0.08,0.38-0.16
	c0.15-0.09,0.3-0.18,0.45-0.29c0.15-0.1,0.3-0.22,0.43-0.35c0.14-0.13,0.25-0.24,0.34-0.34c0.04-0.04,0.05-0.09,0.02-0.14
	s-0.07-0.07-0.12-0.05h-0.06c-0.38,0.09-0.73,0.29-1.05,0.62c-0.31,0.32-0.58,0.67-0.81,1.03c-0.22,0.36-0.4,0.69-0.52,0.97
	c-0.12,0.29-0.18,0.44-0.18,0.45c-0.04,0.11-0.11,0.15-0.22,0.12c-0.11-0.02-0.16-0.08-0.17-0.19C13,9.97,13.02,9.5,13.08,9.03
	c0.06-0.47,0.15-0.94,0.27-1.39c0.12-0.46,0.25-0.89,0.39-1.32c0.14-0.42,0.29-0.82,0.42-1.2c0.15-0.39,0.34-0.78,0.56-1.18
	c0.22-0.39,0.46-0.75,0.69-1.07c0.24-0.32,0.47-0.59,0.69-0.8c0.22-0.22,0.39-0.34,0.52-0.38c0.2-0.04,0.35,0.02,0.46,0.18
	c0.24,0.34-0.02,1.07-0.76,2.2c-0.11,0.18-0.27,0.4-0.47,0.67S15.43,5.3,15.21,5.6s-0.45,0.58-0.66,0.86s-0.38,0.5-0.5,0.66
	c-0.14,0.2-0.25,0.4-0.3,0.61c-0.05,0.22-0.09,0.44-0.14,0.66c-0.05,0.23-0.08,0.45-0.11,0.68c-0.01,0.03,0,0.06,0.04,0.07
	c0.04,0.01,0.07,0.01,0.09-0.03c0.12-0.21,0.26-0.42,0.42-0.65c0.15-0.22,0.33-0.43,0.51-0.63c0.19-0.19,0.39-0.36,0.61-0.5
	s0.46-0.24,0.7-0.29c0.38-0.08,0.64-0.06,0.76,0.09c0.02,0.02,0.04,0.06,0.07,0.13s0.02,0.14-0.01,0.23
	c-0.04,0.11-0.12,0.23-0.24,0.37C16.33,8,16.19,8.14,16.03,8.27c-0.16,0.14-0.33,0.27-0.5,0.4C15.36,8.81,15.19,8.92,15.04,9
	c-0.18,0.08-0.26,0.23-0.23,0.44c0.03,0.25,0.1,0.53,0.2,0.86c0.11,0.33,0.29,0.6,0.54,0.83c0.32,0.28,0.71,0.41,1.19,0.38
	c0.05-0.01,0.1,0,0.15,0.04c0.04,0.04,0.07,0.09,0.07,0.14c0,0.12-0.06,0.19-0.19,0.21L16.66,11.91z M16.75,2.1h-0.02
	c-0.08,0.01-0.2,0.11-0.38,0.29c-0.18,0.18-0.37,0.42-0.58,0.71s-0.43,0.62-0.65,1c-0.22,0.38-0.41,0.77-0.57,1.17
	c-0.04,0.11-0.08,0.22-0.12,0.33s-0.08,0.22-0.12,0.34c-0.01,0.03,0,0.06,0.03,0.08s0.07,0.01,0.1-0.02
	C15.1,5.16,15.62,4.44,16,3.86c0.24-0.36,0.41-0.66,0.52-0.88c0.11-0.23,0.19-0.41,0.23-0.54c0.04-0.13,0.05-0.24,0.02-0.34
	C16.77,2.1,16.75,2.1,16.75,2.1z"/>
<path class="st0" d="M20.91,8.02c0.06,0,0.11,0.01,0.15,0.04c0.04,0.03,0.08,0.07,0.09,0.12c0.02,0.05,0,0.1-0.04,0.15
	C21.09,8.35,21,8.48,20.84,8.71s-0.37,0.48-0.64,0.74c-0.27,0.26-0.57,0.51-0.91,0.73s-0.69,0.34-1.05,0.35
	c-0.06,0-0.14-0.01-0.23-0.03c-0.53-0.05-0.87-0.31-1.04-0.79c-0.07-0.2-0.1-0.42-0.1-0.66s0.04-0.47,0.1-0.7s0.15-0.44,0.26-0.63
	c0.11-0.2,0.22-0.36,0.35-0.49c0.24-0.24,0.48-0.41,0.71-0.5s0.42-0.07,0.55,0.04c0.05,0.04,0.1,0.12,0.14,0.24
	s-0.02,0.29-0.17,0.54c-0.13,0.21-0.32,0.4-0.56,0.56c-0.24,0.17-0.47,0.31-0.68,0.44c-0.18,0.11-0.28,0.27-0.29,0.46
	c-0.01,0.26,0.04,0.5,0.16,0.71c0.12,0.22,0.32,0.35,0.62,0.39c0.22,0.03,0.43,0,0.65-0.09s0.43-0.21,0.63-0.36
	c0.2-0.15,0.39-0.32,0.56-0.49c0.17-0.18,0.32-0.34,0.45-0.5c0.13-0.16,0.27-0.35,0.43-0.57C20.81,8.05,20.85,8.02,20.91,8.02z
	 M17.88,7.51c-0.1,0.11-0.21,0.26-0.31,0.46c-0.01,0.02,0,0.05,0.02,0.07c0.02,0.03,0.05,0.03,0.08,0.01
	c0.16-0.1,0.32-0.21,0.47-0.33c0.16-0.12,0.28-0.25,0.36-0.39c0.02-0.02,0.04-0.07,0.04-0.14c0.01-0.07-0.04-0.09-0.13-0.07
	c-0.07,0.02-0.16,0.07-0.25,0.13C18.08,7.32,17.98,7.4,17.88,7.51z"/>
<path class="st0" d="M23.24,7.61c0.1,0.06,0.13,0.15,0.1,0.25c0,0.01-0.05,0.18-0.16,0.52c-0.11,0.33-0.24,0.77-0.4,1.3
	s-0.33,1.13-0.51,1.8s-0.35,1.34-0.51,2.01c-0.02,0.1,0.01,0.18,0.07,0.26c0.07,0.08,0.15,0.12,0.26,0.11
	c0.17-0.02,0.34-0.03,0.51-0.04s0.34-0.02,0.52-0.02c0.05,0,0.1,0.02,0.15,0.06c0.04,0.04,0.06,0.09,0.05,0.16
	c0,0.12-0.07,0.18-0.2,0.18c-0.44,0.01-0.88,0.04-1.3,0.08c-0.15,0-0.24,0.09-0.27,0.25c-0.08,0.4-0.14,0.78-0.18,1.15
	c-0.04,0.37-0.08,0.69-0.09,0.99c-0.01,0.66,0.05,1.18,0.18,1.58c0.13,0.4,0.29,0.71,0.45,0.92c0.17,0.22,0.4,0.39,0.69,0.54
	c0.12,0.04,0.17,0.12,0.14,0.25c-0.03,0.09-0.09,0.13-0.19,0.13h-0.06c-0.02,0-0.12-0.04-0.29-0.13c-0.17-0.09-0.36-0.25-0.56-0.5
	c-0.2-0.25-0.38-0.59-0.54-1.04c-0.16-0.45-0.23-1.04-0.21-1.77c0.01-0.28,0.04-0.58,0.07-0.9c0.03-0.32,0.08-0.66,0.15-1.01
	c0.02-0.11-0.01-0.2-0.08-0.27c-0.07-0.07-0.16-0.1-0.25-0.09c-0.55,0.07-1.06,0.15-1.54,0.25c-0.48,0.1-0.93,0.2-1.36,0.31
	c-0.22,0.06-0.4,0.18-0.52,0.35c-0.31,0.46-0.6,0.89-0.87,1.29s-0.5,0.75-0.7,1.04s-0.35,0.53-0.46,0.71
	c-0.11,0.17-0.17,0.27-0.17,0.28c-0.07,0.12-0.17,0.14-0.29,0.07c-0.04-0.03-0.07-0.07-0.08-0.13c-0.01-0.05,0-0.11,0.03-0.16
	c0.02-0.03,0.08-0.13,0.19-0.29c0.1-0.16,0.24-0.37,0.41-0.63s0.37-0.57,0.59-0.91c0.23-0.34,0.47-0.71,0.74-1.11
	c0.03-0.04,0.03-0.09,0-0.14s-0.07-0.06-0.12-0.04c-0.79,0.24-1.4,0.45-1.84,0.64c-0.44,0.19-0.67,0.29-0.68,0.29
	c-0.02,0.01-0.05,0.02-0.08,0.02c-0.1,0-0.16-0.03-0.2-0.11c-0.02-0.05-0.02-0.1,0-0.15c0.02-0.05,0.06-0.08,0.11-0.11
	c0.01-0.01,0.28-0.13,0.82-0.36c0.54-0.22,1.28-0.47,2.23-0.75c0.2-0.06,0.37-0.18,0.49-0.35c0.46-0.67,0.95-1.35,1.46-2.06
	c0.51-0.7,1.01-1.36,1.51-1.98s0.97-1.18,1.42-1.67s0.84-0.86,1.18-1.11C23.09,7.59,23.17,7.58,23.24,7.61z M20.9,13.99
	c0.25-0.03,0.39-0.16,0.44-0.4c0.19-0.86,0.4-1.71,0.64-2.55c0.23-0.83,0.44-1.54,0.62-2.13c0.02-0.08,0-0.13-0.07-0.17
	s-0.12-0.03-0.18,0.03c-0.31,0.32-0.65,0.69-1,1.12s-0.71,0.89-1.08,1.37s-0.74,0.98-1.12,1.5s-0.74,1.03-1.09,1.53
	c-0.03,0.05-0.03,0.1,0,0.15c0.03,0.04,0.07,0.06,0.12,0.04c0.42-0.1,0.85-0.19,1.3-0.27C19.93,14.14,20.4,14.06,20.9,13.99z"/>
<path class="st0" d="M25.88,16.85h-0.03c-0.19-0.02-0.35-0.1-0.46-0.25c-0.1-0.15-0.16-0.33-0.18-0.55s-0.02-0.45,0.01-0.7
	s0.08-0.5,0.14-0.77c0.06-0.26,0.12-0.52,0.18-0.77c0.02-0.1,0.04-0.2,0.06-0.3s0.04-0.2,0.06-0.3s-0.01-0.17-0.09-0.21
	c-0.08-0.05-0.15-0.04-0.22,0.03s-0.15,0.15-0.24,0.24c-0.08,0.09-0.18,0.2-0.28,0.32c-0.14,0.15-0.28,0.35-0.43,0.59
	s-0.29,0.48-0.42,0.71c-0.13,0.23-0.28,0.51-0.45,0.83c-0.05,0.11-0.14,0.14-0.25,0.1c-0.12-0.05-0.16-0.13-0.12-0.25
	c0.13-0.42,0.26-0.87,0.41-1.33s0.29-0.9,0.41-1.3s0.28-0.87,0.46-1.4c0.02-0.06,0.05-0.11,0.1-0.12s0.1-0.02,0.15,0
	s0.09,0.04,0.12,0.08s0.03,0.1,0.01,0.16c0,0.01-0.05,0.17-0.15,0.46c-0.1,0.3-0.22,0.67-0.36,1.13c-0.02,0.05,0,0.1,0.04,0.13
	c0.05,0.03,0.09,0.03,0.14-0.02c0.1-0.12,0.22-0.25,0.34-0.39s0.25-0.25,0.38-0.35s0.25-0.16,0.38-0.19s0.25,0,0.37,0.08
	c0.11,0.08,0.15,0.24,0.13,0.46s-0.08,0.54-0.19,0.95c-0.02,0.08-0.06,0.25-0.13,0.51s-0.12,0.54-0.16,0.83s-0.05,0.55-0.03,0.79
	c0.02,0.24,0.1,0.37,0.25,0.4c0.14,0.01,0.31-0.06,0.52-0.19c0.21-0.13,0.42-0.3,0.65-0.51c0.23-0.2,0.45-0.43,0.67-0.66
	c0.22-0.24,0.42-0.47,0.59-0.69c0.04-0.04,0.09-0.07,0.13-0.07c0.05,0,0.09,0.02,0.13,0.05c0.04,0.04,0.06,0.08,0.08,0.13
	s0,0.1-0.03,0.15c-0.03,0.04-0.1,0.13-0.2,0.25s-0.23,0.26-0.38,0.42s-0.32,0.33-0.49,0.5c-0.18,0.18-0.36,0.34-0.56,0.49
	c-0.2,0.15-0.38,0.27-0.57,0.37C26.2,16.79,26.03,16.84,25.88,16.85z"/>
<path class="st0" d="M31.54,10.39c0.06,0,0.11,0.02,0.15,0.07c0.03,0.05,0.05,0.1,0.05,0.15c0,0.05-0.01,0.1-0.04,0.13
	c-0.03,0.04-0.08,0.06-0.14,0.06c-0.32-0.01-0.64-0.01-0.97,0c-0.32,0.01-0.64,0.02-0.96,0.04c-0.2,0.03-0.32,0.13-0.35,0.3
	c-0.24,1.03-0.42,2.06-0.56,3.09c-0.13,1.03-0.28,2.06-0.46,3.09c-0.01,0.06-0.04,0.11-0.09,0.13c-0.05,0.02-0.1,0.03-0.14,0.02
	c-0.05-0.01-0.09-0.04-0.13-0.08c-0.04-0.04-0.05-0.09-0.03-0.16c0.16-1.03,0.31-2.05,0.45-3.07c0.14-1.02,0.32-2.03,0.55-3.04
	c0.01-0.05-0.01-0.1-0.04-0.15c-0.04-0.05-0.08-0.07-0.14-0.07c-0.14,0.01-0.27,0.03-0.4,0.04s-0.26,0.03-0.38,0.04
	c-0.06,0.01-0.11,0-0.15-0.04s-0.05-0.08-0.05-0.14s0.01-0.11,0.04-0.15s0.08-0.07,0.14-0.09c0.15-0.01,0.29-0.03,0.43-0.04
	s0.28-0.03,0.43-0.04c0.17-0.03,0.28-0.12,0.33-0.28c0.1-0.35,0.2-0.69,0.31-1.03c0.11-0.34,0.23-0.69,0.37-1.03
	c0.03-0.05,0.07-0.08,0.12-0.09c0.05-0.01,0.09,0,0.14,0.02c0.04,0.02,0.08,0.06,0.1,0.11c0.02,0.05,0.02,0.11,0,0.16
	c-0.13,0.3-0.25,0.61-0.35,0.92s-0.19,0.62-0.27,0.93c-0.02,0.05-0.01,0.11,0.03,0.15c0.04,0.05,0.08,0.07,0.14,0.07
	c0.31-0.02,0.62-0.04,0.93-0.04C30.92,10.37,31.23,10.37,31.54,10.39z"/>
<path class="st0" d="M30.85,15.32c-0.27,0-0.48-0.08-0.62-0.22c-0.14-0.14-0.24-0.31-0.3-0.51c-0.05-0.2-0.07-0.41-0.06-0.63
	c0.01-0.23,0.05-0.44,0.11-0.63c0.05-0.17,0.11-0.35,0.17-0.53c0.06-0.18,0.15-0.35,0.25-0.51s0.22-0.29,0.37-0.41
	c0.14-0.11,0.31-0.19,0.5-0.22c0.29-0.05,0.51-0.02,0.66,0.09c0.15,0.12,0.25,0.22,0.3,0.33c0.02,0.05,0.03,0.1,0.02,0.14
	s0,0.08,0.02,0.12c0.09,0.15,0.15,0.32,0.18,0.51s0.04,0.39,0.02,0.59s-0.06,0.39-0.12,0.58c-0.06,0.19-0.14,0.36-0.23,0.5
	c-0.16,0.22-0.35,0.4-0.57,0.56C31.33,15.23,31.09,15.31,30.85,15.32z M30.36,13.43c-0.03,0.15-0.05,0.32-0.07,0.49
	c-0.02,0.18-0.02,0.34,0.01,0.49s0.08,0.27,0.17,0.37c0.09,0.09,0.22,0.14,0.41,0.13c0.24-0.01,0.44-0.08,0.62-0.23
	s0.32-0.33,0.41-0.54c0.1-0.21,0.16-0.44,0.18-0.68c0.03-0.24,0.01-0.45-0.03-0.63c-0.07-0.22-0.16-0.36-0.25-0.4
	c-0.08-0.01-0.16,0.02-0.25,0.09s-0.16,0.13-0.21,0.2c-0.08,0.1-0.18,0.11-0.29,0.04c-0.04-0.04-0.07-0.09-0.08-0.14
	s0.01-0.1,0.05-0.15c0.02-0.02,0.07-0.07,0.16-0.16c0.08-0.08,0.18-0.15,0.3-0.21c0.02-0.01,0.03-0.02,0.02-0.03
	s-0.01-0.01-0.02-0.01c-0.18,0-0.33,0.06-0.46,0.16c-0.12,0.1-0.22,0.22-0.31,0.36c-0.09,0.14-0.16,0.29-0.21,0.45
	C30.44,13.17,30.4,13.31,30.36,13.43z"/>
<path class="st0" d="M35.27,16.58h-0.03c-0.19-0.02-0.35-0.1-0.46-0.25c-0.1-0.15-0.16-0.33-0.18-0.55s-0.02-0.45,0.01-0.7
	s0.08-0.5,0.14-0.77c0.06-0.26,0.12-0.52,0.18-0.77c0.02-0.1,0.04-0.2,0.06-0.3s0.04-0.2,0.06-0.3s-0.01-0.17-0.09-0.21
	s-0.15-0.04-0.22,0.03S34.59,12.91,34.5,13c-0.08,0.09-0.18,0.2-0.28,0.32c-0.13,0.15-0.28,0.35-0.43,0.59s-0.29,0.48-0.42,0.7
	c-0.13,0.23-0.28,0.51-0.45,0.83c-0.05,0.11-0.13,0.14-0.25,0.1c-0.12-0.05-0.16-0.13-0.12-0.25c0.13-0.42,0.27-0.87,0.41-1.33
	c0.15-0.47,0.29-0.9,0.41-1.3s0.28-0.87,0.46-1.4c0.02-0.06,0.05-0.11,0.1-0.12s0.1-0.02,0.14,0c0.05,0.01,0.09,0.04,0.12,0.08
	s0.03,0.1,0.01,0.16c0,0.01-0.05,0.17-0.15,0.46c-0.1,0.3-0.22,0.67-0.35,1.13c-0.02,0.05,0,0.1,0.04,0.13
	c0.05,0.03,0.09,0.02,0.14-0.02c0.1-0.12,0.22-0.25,0.34-0.39s0.25-0.25,0.38-0.35s0.25-0.16,0.38-0.19s0.25,0,0.37,0.08
	c0.11,0.08,0.15,0.24,0.13,0.46s-0.08,0.54-0.19,0.95c-0.02,0.08-0.06,0.25-0.13,0.51c-0.07,0.27-0.12,0.54-0.16,0.83
	s-0.05,0.55-0.03,0.79s0.1,0.37,0.25,0.4c0.14,0.01,0.31-0.06,0.52-0.19c0.21-0.13,0.42-0.31,0.65-0.51
	c0.22-0.2,0.45-0.43,0.67-0.66c0.22-0.24,0.42-0.47,0.59-0.69c0.04-0.04,0.09-0.07,0.13-0.07c0.05,0,0.09,0.02,0.13,0.05
	c0.04,0.04,0.06,0.08,0.08,0.13c0.01,0.05,0,0.1-0.03,0.15s-0.1,0.13-0.2,0.25s-0.23,0.26-0.38,0.42s-0.32,0.33-0.49,0.5
	c-0.18,0.18-0.36,0.34-0.56,0.49c-0.19,0.15-0.38,0.27-0.57,0.37C35.58,16.52,35.42,16.57,35.27,16.58z"/>
<g class="st1">
	<path class="st2" d="M37.78,16.81c0-0.37,0.29-0.65,0.64-0.65s0.65,0.28,0.65,0.65s-0.3,0.66-0.65,0.66S37.78,17.18,37.78,16.81z"
		/>
</g>
</svg>
