<?xml version="1.0" encoding="utf-8"?>
<!-- Generator: Adobe Illustrator 23.0.2, SVG Export Plug-In . SVG Version: 6.00 Build 0)  -->
<svg version="1.1" id="Layer_1" xmlns="http://www.w3.org/2000/svg" xmlns:xlink="http://www.w3.org/1999/xlink" x="0px" y="0px"
	 viewBox="0 0 18.54 17.36" style="enable-background:new 0 0 18.54 17.36;" xml:space="preserve">
<style type="text/css">
	.st0{fill:none;stroke:#000000;stroke-miterlimit:10;}
	.st1{fill:#231F20;stroke:#000000;stroke-width:0.5;stroke-miterlimit:10;}
	.st2{fill:#FDF9D3;stroke:#FDF9D3;stroke-width:0.5;stroke-miterlimit:10;}
</style>
<ellipse class="st0" cx="9.27" cy="8.68" rx="8.77" ry="8.18"/>
<path class="st1" d="M3.5,14.26c-0.22,0-0.38-0.04-0.5-0.13c-0.12-0.09-0.19-0.19-0.2-0.3c-0.02-0.12,0.01-0.25,0.1-0.39
	c0.09-0.14,0.29-0.25,0.58-0.33c0.09-0.02,0.24-0.05,0.44-0.09c0.21-0.04,0.5-0.07,0.88-0.11c0.17-0.02,0.3-0.09,0.41-0.23
	c0.45-0.62,0.85-1.36,1.21-2.24c0.14-0.34,0.28-0.73,0.4-1.15c0.12-0.42,0.23-0.85,0.32-1.28c0.1-0.43,0.18-0.86,0.26-1.27
	c0.08-0.41,0.14-0.78,0.19-1.1c0.05-0.32,0.09-0.58,0.11-0.78c0.03-0.2,0.04-0.3,0.04-0.31c0.01-0.04,0.03-0.07,0.06-0.1
	C7.83,4.43,7.86,4.43,7.9,4.43c0.04,0,0.07,0.02,0.1,0.05c0.03,0.03,0.04,0.07,0.03,0.11C8.03,4.62,8.01,4.73,7.99,4.94
	s-0.06,0.48-0.11,0.8c-0.05,0.33-0.12,0.7-0.19,1.11C7.6,7.27,7.52,7.69,7.42,8.12c-0.1,0.43-0.21,0.86-0.33,1.29
	c-0.12,0.42-0.26,0.81-0.4,1.15c-0.16,0.4-0.33,0.78-0.52,1.12c-0.19,0.35-0.38,0.67-0.57,0.96c-0.03,0.04-0.03,0.08-0.01,0.13
	s0.07,0.07,0.11,0.07c0.39-0.02,0.85-0.04,1.38-0.05s1.13-0.01,1.81,0.01c0.68,0.01,1.44,0.04,2.29,0.07
	c0.85,0.03,1.79,0.08,2.82,0.15c0.1,0,0.15,0.05,0.13,0.16c0,0.1-0.05,0.14-0.16,0.14c-2-0.13-3.7-0.2-5.11-0.23
	c-1.41-0.02-2.55-0.01-3.42,0.05c-0.16,0.02-0.3,0.08-0.41,0.19c-0.23,0.27-0.46,0.49-0.7,0.64s-0.46,0.25-0.67,0.27
	C3.64,14.26,3.58,14.26,3.5,14.26z M4.54,13.43c0.04-0.04,0.05-0.09,0.03-0.14c-0.02-0.05-0.06-0.07-0.13-0.07
	c-0.19,0.02-0.36,0.05-0.51,0.07c-0.15,0.02-0.27,0.05-0.38,0.08c-0.18,0.05-0.3,0.11-0.38,0.18c-0.08,0.07-0.11,0.14-0.1,0.2
	c0.02,0.06,0.07,0.12,0.17,0.16c0.1,0.04,0.23,0.05,0.4,0.02C3.91,13.92,4.21,13.75,4.54,13.43z"/>
<path class="st2" d="M15.68,3.12c0.07,0.05,0.1,0.11,0.07,0.19c0,0.01-0.04,0.14-0.13,0.38s-0.2,0.57-0.32,0.96
	c-0.13,0.39-0.27,0.84-0.42,1.33c-0.15,0.5-0.29,0.99-0.42,1.49c-0.02,0.07,0,0.14,0.05,0.2c0.05,0.06,0.11,0.09,0.19,0.09
	c0.13-0.01,0.25-0.01,0.38-0.02c0.12,0,0.25-0.01,0.39-0.01c0.04,0,0.08,0.02,0.11,0.05c0.03,0.03,0.04,0.07,0.04,0.12
	c0,0.09-0.05,0.13-0.16,0.13c-0.33,0-0.65,0.01-0.97,0.04c-0.11,0-0.18,0.06-0.2,0.18c-0.06,0.3-0.12,0.58-0.16,0.85
	c-0.04,0.27-0.07,0.52-0.09,0.73c-0.02,0.49,0.01,0.88,0.1,1.18c0.09,0.3,0.2,0.53,0.32,0.7s0.29,0.3,0.5,0.41
	c0.09,0.03,0.12,0.1,0.1,0.19c-0.02,0.06-0.07,0.1-0.14,0.1h-0.05c-0.02,0-0.09-0.03-0.22-0.1c-0.13-0.07-0.26-0.2-0.41-0.38
	c-0.14-0.19-0.27-0.45-0.38-0.79c-0.11-0.34-0.15-0.78-0.12-1.32c0.02-0.21,0.04-0.43,0.07-0.67c0.03-0.24,0.08-0.49,0.13-0.75
	c0.02-0.08,0-0.15-0.05-0.2c-0.05-0.06-0.11-0.08-0.19-0.07c-0.41,0.04-0.79,0.09-1.15,0.16c-0.36,0.06-0.7,0.13-1.02,0.2
	c-0.17,0.04-0.3,0.12-0.4,0.25c-0.24,0.34-0.46,0.65-0.67,0.94s-0.39,0.55-0.54,0.76c-0.15,0.22-0.27,0.39-0.36,0.52
	s-0.13,0.2-0.13,0.2c-0.06,0.09-0.13,0.1-0.22,0.05c-0.03-0.02-0.05-0.06-0.06-0.1c-0.01-0.04,0-0.08,0.02-0.12
	c0.02-0.02,0.06-0.09,0.14-0.21c0.08-0.12,0.19-0.27,0.32-0.46c0.13-0.19,0.29-0.41,0.46-0.67s0.37-0.52,0.58-0.81
	c0.02-0.03,0.03-0.07,0.01-0.1s-0.05-0.05-0.09-0.03C9.98,8.88,9.52,9.03,9.19,9.16c-0.33,0.13-0.5,0.2-0.51,0.2
	C8.66,9.36,8.64,9.37,8.62,9.37c-0.07,0-0.12-0.03-0.14-0.08c-0.02-0.04-0.02-0.08,0-0.11s0.04-0.06,0.08-0.08
	C8.57,9.08,8.77,9,9.18,8.85c0.4-0.16,0.96-0.33,1.67-0.51C11,8.3,11.13,8.21,11.22,8.08c0.36-0.49,0.74-0.99,1.13-1.5
	c0.39-0.51,0.78-0.99,1.16-1.45c0.38-0.45,0.75-0.86,1.09-1.21c0.34-0.36,0.64-0.62,0.9-0.8C15.56,3.1,15.62,3.09,15.68,3.12z
	 M13.79,7.82c0.18-0.02,0.3-0.11,0.34-0.29c0.16-0.64,0.34-1.27,0.53-1.88c0.19-0.62,0.36-1.14,0.5-1.57c0.02-0.06,0-0.1-0.05-0.13
	c-0.05-0.03-0.09-0.02-0.13,0.02c-0.24,0.23-0.5,0.5-0.77,0.82c-0.27,0.31-0.55,0.64-0.83,1c-0.28,0.35-0.57,0.72-0.86,1.09
	s-0.57,0.75-0.85,1.12c-0.02,0.04-0.03,0.08-0.01,0.11c0.02,0.03,0.05,0.04,0.09,0.04c0.31-0.06,0.64-0.12,0.98-0.17
	C13.07,7.91,13.42,7.86,13.79,7.82z"/>
</svg>
