<?xml version="1.0" encoding="utf-8"?>
<!-- Generator: Adobe Illustrator 23.0.2, SVG Export Plug-In . SVG Version: 6.00 Build 0)  -->
<svg version="1.1" id="Layer_1" xmlns="http://www.w3.org/2000/svg" xmlns:xlink="http://www.w3.org/1999/xlink" x="0px" y="0px"
	 viewBox="0 0 23.86 15.04" style="enable-background:new 0 0 23.86 15.04;" xml:space="preserve">
<style type="text/css">
	.st0{fill:#C10005;}
	.st1{fill:#DFF4FF;}
</style>
<g>
	<g>
		<path class="st0" d="M2.27,7.26C2.2,7.25,2.14,7.21,2.08,7.15C2.04,7.1,2,7.04,1.96,6.98c-0.04-0.06-0.07-0.13-0.1-0.19
			C1.83,6.71,1.82,6.65,1.82,6.61c-0.02-0.29-0.04-0.63-0.05-1C1.75,5.23,1.75,4.84,1.75,4.44c0-0.4,0-0.79,0.01-1.17
			c0-0.39,0.01-0.73,0.03-1.05c0-0.11,0.06-0.21,0.16-0.27C2.03,1.91,2.1,1.89,2.16,1.89c0.21,0.02,0.33,0.09,0.4,0.2
			c0.06,0.1,0.1,0.23,0.12,0.4C2.67,2.75,2.66,3.01,2.66,3.26c0,0.22,0,0.43,0,0.65c0.29-0.07,0.54-0.19,0.75-0.35
			c0.23-0.19,0.4-0.4,0.49-0.64c0.04-0.09,0.07-0.2,0.08-0.33C4,2.46,4.01,2.33,3.99,2.2c-0.02-0.13-0.05-0.25-0.1-0.36
			C3.83,1.73,3.76,1.64,3.65,1.58C3.49,1.49,3.32,1.44,3.13,1.43c0,0-0.01,0-0.01,0c-0.23,0-0.41,0.03-0.6,0.09
			C2.31,1.58,2.1,1.68,1.9,1.82c-0.21,0.14-0.4,0.31-0.58,0.5c0.05,0.06,0.03,0.19-0.04,0.3C1.22,2.73,1.12,2.81,0.99,2.86
			c-0.02,0-0.03,0-0.04,0c-0.13,0-0.21-0.04-0.29-0.12C0.55,2.64,0.5,2.52,0.5,2.41c0-0.34,0.1-0.64,0.29-0.89
			c0.19-0.24,0.42-0.45,0.71-0.62c0.28-0.16,0.58-0.29,0.9-0.37C2.72,0.44,3.02,0.4,3.29,0.4c0.42,0,0.77,0.12,1.05,0.37
			C4.61,1.01,4.8,1.31,4.91,1.67C5.08,2.3,5.04,2.87,4.77,3.37c-0.24,0.45-0.62,0.86-1.13,1.2c0.37,0.23,0.71,0.44,1.04,0.65
			c0.37,0.23,0.73,0.49,1.1,0.76c0.07,0.06,0.13,0.14,0.19,0.24C6.05,6.33,6.04,6.5,5.95,6.72C5.88,6.86,5.77,6.95,5.62,6.97
			c-0.01,0-0.01,0-0.02,0c-0.17,0-0.28-0.04-0.39-0.12C5.03,6.7,4.83,6.55,4.61,6.4C4.39,6.24,4.17,6.09,3.93,5.93
			S3.45,5.62,3.21,5.47C3.03,5.36,2.85,5.26,2.68,5.15C2.69,5.41,2.69,5.67,2.7,5.93c0,0.31,0.01,0.62,0.03,0.93
			c0,0.15-0.05,0.26-0.14,0.32c-0.08,0.06-0.18,0.08-0.3,0.08L2.27,7.26z"/>
		<path class="st1" d="M3.29,0.5c0.39,0,0.72,0.11,0.98,0.34C4.53,1.07,4.71,1.36,4.81,1.7c0.17,0.6,0.13,1.14-0.12,1.62
			C4.43,3.8,4.02,4.22,3.45,4.57c0.42,0.26,0.81,0.5,1.17,0.73c0.37,0.23,0.73,0.48,1.1,0.76c0.05,0.05,0.1,0.12,0.16,0.21
			C5.94,6.36,5.93,6.5,5.85,6.68C5.8,6.79,5.72,6.85,5.61,6.87c-0.02,0-0.03,0-0.05,0c-0.1,0-0.2-0.03-0.3-0.1
			C5.09,6.62,4.89,6.47,4.67,6.31C4.45,6.16,4.22,6,3.98,5.85C3.74,5.69,3.5,5.54,3.26,5.39C3.02,5.24,2.79,5.1,2.58,4.98
			C2.59,5.3,2.59,5.61,2.6,5.93c0,0.32,0.01,0.63,0.03,0.93c0,0.11-0.03,0.19-0.1,0.23C2.47,7.14,2.39,7.16,2.29,7.16
			C2.24,7.15,2.2,7.13,2.16,7.08c-0.04-0.04-0.08-0.1-0.11-0.16S1.98,6.81,1.95,6.75C1.93,6.69,1.92,6.64,1.92,6.61
			C1.89,6.31,1.88,5.98,1.86,5.6C1.85,5.22,1.85,4.84,1.85,4.44c0-0.4,0-0.79,0.01-1.17c0-0.38,0.01-0.73,0.03-1.04
			c0-0.08,0.04-0.14,0.11-0.19C2.06,2,2.11,1.99,2.16,1.99c0.01,0,0.02,0,0.02,0C2.33,2,2.42,2.05,2.48,2.14
			c0.05,0.08,0.09,0.2,0.1,0.35C2.57,2.75,2.56,3,2.56,3.26c0,0.26,0,0.51,0.01,0.77c0.36-0.06,0.66-0.2,0.91-0.4
			c0.24-0.2,0.42-0.43,0.52-0.68c0.04-0.1,0.07-0.21,0.09-0.35C4.1,2.46,4.11,2.33,4.09,2.19c-0.02-0.14-0.05-0.27-0.11-0.4
			C3.92,1.67,3.83,1.57,3.71,1.5c-0.18-0.1-0.37-0.16-0.58-0.17c-0.02,0-0.04,0-0.06,0c-0.19,0-0.38,0.03-0.58,0.09
			C2.27,1.49,2.05,1.59,1.84,1.74C1.63,1.88,1.43,2.05,1.25,2.25C1.27,2.37,1.25,2.48,1.2,2.57c-0.06,0.09-0.14,0.16-0.24,0.2
			c-0.01,0-0.02,0-0.03,0c-0.06,0-0.12-0.04-0.2-0.11C0.64,2.58,0.6,2.5,0.6,2.41c0-0.32,0.09-0.6,0.27-0.83
			c0.18-0.24,0.41-0.43,0.68-0.59C1.82,0.82,2.11,0.7,2.42,0.62C2.73,0.54,3.02,0.5,3.29,0.5 M3.29,0.3c-0.28,0-0.59,0.04-0.91,0.13
			C2.04,0.51,1.73,0.64,1.44,0.81C1.15,0.98,0.9,1.2,0.71,1.45C0.5,1.72,0.4,2.04,0.4,2.41c0,0.15,0.07,0.28,0.19,0.4
			C0.7,2.92,0.81,2.97,0.93,2.97h0.02l0.06-0.01C1.18,2.9,1.29,2.8,1.37,2.67c0.06-0.1,0.09-0.22,0.09-0.35
			c0.08-0.08,0.16-0.16,0.25-0.23C1.69,2.13,1.68,2.18,1.68,2.23c-0.02,0.3-0.03,0.65-0.03,1.04c0,0.38-0.01,0.78-0.01,1.17
			c0,0.4,0.01,0.79,0.02,1.16c0.01,0.38,0.03,0.72,0.05,1.02c0,0.04,0.02,0.11,0.05,0.2c0.03,0.07,0.06,0.14,0.1,0.21
			C1.92,7.1,1.96,7.16,2.01,7.22c0.07,0.08,0.15,0.13,0.25,0.14c0.01,0,0.01,0,0.02,0c0.16,0,0.27-0.03,0.37-0.1
			c0.08-0.06,0.18-0.17,0.18-0.4C2.81,6.55,2.8,6.24,2.8,5.93c0-0.2-0.01-0.39-0.01-0.59c0.12,0.07,0.24,0.15,0.37,0.23
			c0.24,0.15,0.48,0.3,0.72,0.45c0.24,0.15,0.47,0.31,0.68,0.46c0.21,0.15,0.41,0.3,0.58,0.44c0.14,0.1,0.28,0.15,0.42,0.15h0.01
			l0.06,0c0.19-0.02,0.33-0.13,0.41-0.31c0.11-0.25,0.11-0.45,0.01-0.6c-0.06-0.1-0.13-0.18-0.19-0.24
			c-0.39-0.3-0.77-0.55-1.13-0.78C4.44,4.95,4.14,4.76,3.82,4.56c0.46-0.33,0.81-0.72,1.04-1.15C5.14,2.89,5.18,2.29,5,1.65
			C4.9,1.27,4.69,0.94,4.4,0.69C4.1,0.43,3.73,0.3,3.29,0.3L3.29,0.3z M2.13,1.79c0.14-0.08,0.28-0.14,0.42-0.18
			C2.72,1.55,2.9,1.53,3.07,1.53l0.06,0C3.3,1.53,3.46,1.58,3.6,1.67C3.69,1.72,3.75,1.79,3.8,1.88c0.05,0.1,0.08,0.21,0.1,0.33
			C3.9,2.33,3.9,2.45,3.89,2.57c-0.02,0.12-0.04,0.22-0.08,0.3C3.72,3.1,3.56,3.3,3.35,3.48c-0.16,0.13-0.36,0.23-0.59,0.3
			c0-0.17,0-0.34,0-0.51c0-0.26,0.01-0.51,0.02-0.77C2.76,2.29,2.71,2.14,2.65,2.03C2.56,1.89,2.41,1.81,2.2,1.79
			c-0.01,0-0.01,0-0.02,0C2.17,1.79,2.15,1.79,2.13,1.79L2.13,1.79z"/>
	</g>
	<g>
		<path class="st0" d="M8.16,6.38c-0.17,0-0.34-0.02-0.51-0.07C7.36,6.23,7.1,6.08,6.88,5.86C6.68,5.67,6.53,5.44,6.43,5.18
			c-0.1-0.25-0.16-0.52-0.19-0.79c-0.02-0.26,0-0.51,0.07-0.75C6.39,3.4,6.5,3.19,6.65,3.01C6.81,2.83,7,2.68,7.22,2.56
			c0.23-0.12,0.5-0.19,0.8-0.2c0.05,0,0.1-0.01,0.14-0.01c0.3,0,0.59,0.07,0.85,0.21c0.3,0.16,0.51,0.39,0.63,0.69
			C9.71,3.42,9.73,3.57,9.7,3.7C9.67,3.84,9.57,3.96,9.41,4.06C9.09,4.25,8.74,4.4,8.38,4.5C8.04,4.6,7.68,4.65,7.29,4.65
			c0.03,0.21,0.1,0.38,0.21,0.5C7.63,5.3,7.79,5.39,7.98,5.42c0.05,0.01,0.09,0.01,0.14,0.01c0.07,0,0.14-0.01,0.22-0.02
			C8.46,5.38,8.58,5.35,8.69,5.3c0.11-0.05,0.21-0.1,0.3-0.17c0.09-0.06,0.17-0.12,0.24-0.18C9.31,4.87,9.41,4.82,9.5,4.8
			c0.05-0.01,0.1-0.02,0.14-0.02h0.02L9.74,4.8c0.11,0.04,0.23,0.15,0.18,0.47C9.78,5.57,9.59,5.8,9.33,5.99
			C9.08,6.17,8.8,6.3,8.49,6.35C8.38,6.37,8.27,6.38,8.16,6.38z M8.22,3.24c-0.08,0-0.15,0.01-0.23,0.02
			C7.92,3.28,7.84,3.3,7.76,3.34C7.68,3.38,7.6,3.42,7.53,3.48C7.46,3.53,7.4,3.59,7.34,3.66C7.32,3.69,7.3,3.72,7.29,3.76
			c0.1,0,0.2-0.02,0.31-0.03C7.76,3.7,7.91,3.67,8.07,3.64C8.22,3.6,8.36,3.56,8.49,3.51c0.09-0.03,0.16-0.06,0.23-0.1
			C8.66,3.34,8.59,3.29,8.48,3.27C8.39,3.25,8.31,3.24,8.22,3.24z"/>
		<path class="st1" d="M8.16,2.45c0.29,0,0.56,0.07,0.8,0.2C9.24,2.8,9.44,3.01,9.55,3.28c0.06,0.15,0.08,0.28,0.05,0.4
			c-0.03,0.11-0.11,0.21-0.25,0.3C9.05,4.16,8.71,4.31,8.35,4.41C7.99,4.51,7.6,4.56,7.18,4.56c0.02,0.28,0.1,0.5,0.24,0.67
			c0.14,0.16,0.32,0.26,0.54,0.29c0.05,0.01,0.1,0.01,0.16,0.01c0.08,0,0.16-0.01,0.23-0.02c0.13-0.02,0.26-0.06,0.37-0.11
			c0.12-0.05,0.22-0.11,0.32-0.17c0.1-0.06,0.18-0.13,0.25-0.19C9.37,4.96,9.45,4.92,9.53,4.9c0.04-0.01,0.08-0.02,0.11-0.02
			c0.03,0,0.05,0,0.06,0.01c0.11,0.04,0.15,0.16,0.12,0.36C9.7,5.51,9.51,5.73,9.27,5.91C9.03,6.09,8.76,6.2,8.47,6.25
			c-0.1,0.02-0.21,0.03-0.31,0.03C8,6.28,7.84,6.26,7.68,6.21C7.41,6.14,7.16,6,6.95,5.79c-0.18-0.18-0.32-0.4-0.42-0.65
			c-0.1-0.25-0.16-0.5-0.18-0.77c-0.02-0.25,0-0.48,0.07-0.71c0.07-0.22,0.17-0.42,0.32-0.59C6.87,2.9,7.05,2.76,7.27,2.65
			c0.22-0.11,0.47-0.18,0.76-0.19C8.07,2.45,8.12,2.45,8.16,2.45 M7.16,3.86c0.14,0,0.29-0.01,0.45-0.04
			C7.77,3.8,7.93,3.77,8.09,3.73c0.16-0.04,0.3-0.08,0.43-0.13c0.13-0.05,0.24-0.1,0.33-0.16C8.79,3.3,8.67,3.21,8.5,3.17
			C8.41,3.15,8.32,3.14,8.22,3.14c-0.08,0-0.16,0.01-0.25,0.02C7.9,3.18,7.81,3.21,7.72,3.25C7.63,3.29,7.54,3.34,7.47,3.4
			c-0.08,0.06-0.14,0.13-0.2,0.2C7.2,3.68,7.17,3.76,7.16,3.86 M8.16,2.25c-0.05,0-0.1,0-0.15,0.01C7.7,2.27,7.42,2.35,7.18,2.47
			c-0.24,0.12-0.44,0.28-0.6,0.47C6.41,3.14,6.29,3.36,6.22,3.61c-0.07,0.25-0.1,0.51-0.07,0.78c0.03,0.28,0.09,0.56,0.19,0.82
			C6.44,5.49,6.6,5.73,6.8,5.93c0.24,0.23,0.52,0.39,0.82,0.47c0.18,0.05,0.36,0.07,0.53,0.07c0.12,0,0.23-0.01,0.35-0.03
			c0.32-0.05,0.62-0.18,0.89-0.38C9.66,5.87,9.86,5.62,10,5.34l0.01-0.03l0-0.03c0.06-0.4-0.13-0.54-0.25-0.58
			C9.74,4.69,9.69,4.68,9.64,4.68c-0.05,0-0.1,0.01-0.16,0.02C9.37,4.73,9.26,4.79,9.16,4.87C9.1,4.93,9.02,4.99,8.93,5.05
			C8.85,5.11,8.75,5.16,8.65,5.21c-0.1,0.05-0.21,0.08-0.33,0.1c-0.07,0.01-0.13,0.02-0.2,0.02c-0.04,0-0.09,0-0.13-0.01
			c-0.16-0.02-0.3-0.1-0.41-0.23C7.5,5,7.44,4.89,7.41,4.75C7.76,4.74,8.09,4.68,8.4,4.6c0.38-0.1,0.73-0.25,1.06-0.45
			c0.19-0.12,0.3-0.26,0.34-0.43C9.84,3.57,9.81,3.4,9.73,3.21C9.6,2.89,9.38,2.65,9.06,2.47C8.79,2.33,8.48,2.25,8.16,2.25
			L8.16,2.25z M7.5,3.64c0.03-0.03,0.06-0.06,0.09-0.08C7.65,3.51,7.72,3.46,7.8,3.43C7.88,3.4,7.95,3.37,8.02,3.36
			c0.07-0.01,0.14-0.02,0.21-0.02c0.08,0,0.16,0.01,0.23,0.02c0.03,0.01,0.05,0.01,0.08,0.02C8.51,3.4,8.48,3.41,8.45,3.42
			C8.33,3.47,8.19,3.5,8.05,3.54C7.89,3.57,7.74,3.6,7.58,3.63C7.55,3.63,7.53,3.63,7.5,3.64L7.5,3.64z"/>
	</g>
	<g>
		<path class="st0" d="M11.04,7.63c-0.06,0-0.14-0.02-0.22-0.07c-0.07-0.04-0.14-0.08-0.21-0.14c-0.06-0.05-0.12-0.11-0.17-0.16
			c-0.06-0.07-0.09-0.14-0.09-0.2c0-0.18,0.09-0.32,0.25-0.39c0.14-0.06,0.29-0.09,0.44-0.09c0.19,0,0.39-0.01,0.61-0.03
			c0.22-0.02,0.42-0.05,0.62-0.09c0.19-0.04,0.37-0.1,0.52-0.17c0.14-0.06,0.24-0.14,0.29-0.23c0.03-0.05,0-0.13-0.09-0.22
			c-0.12-0.13-0.28-0.26-0.48-0.4c-0.2-0.14-0.42-0.28-0.65-0.42c-0.24-0.14-0.44-0.26-0.61-0.38c-0.17-0.12-0.33-0.26-0.46-0.42
			c-0.13-0.17-0.21-0.38-0.25-0.63c-0.01-0.23,0.04-0.45,0.14-0.66c0.1-0.2,0.24-0.38,0.4-0.54c0.16-0.16,0.35-0.28,0.56-0.37
			c0.21-0.09,0.43-0.14,0.64-0.14c0.37,0.02,0.67,0.12,0.91,0.3c0.25,0.19,0.39,0.47,0.43,0.83c0,0.14-0.02,0.25-0.06,0.33
			c-0.05,0.1-0.14,0.16-0.26,0.19l-0.1,0.01c-0.09,0-0.17-0.02-0.24-0.06c-0.09-0.06-0.15-0.15-0.16-0.25l-0.05-0.24
			c-0.01-0.07-0.04-0.08-0.06-0.08c-0.06-0.02-0.13-0.03-0.2-0.03c-0.06,0-0.12,0.01-0.18,0.02c-0.14,0.03-0.27,0.08-0.39,0.14
			s-0.22,0.13-0.3,0.21c-0.1,0.09-0.11,0.14-0.11,0.16c-0.02,0.1,0.01,0.19,0.08,0.27c0.08,0.1,0.2,0.21,0.36,0.31
			c0.28,0.17,0.57,0.34,0.87,0.51c0.31,0.18,0.57,0.36,0.78,0.55c0.22,0.19,0.37,0.41,0.45,0.65c0.08,0.24,0.06,0.52-0.06,0.82
			c-0.1,0.24-0.28,0.43-0.54,0.58c-0.25,0.14-0.52,0.25-0.82,0.33c-0.29,0.08-0.59,0.13-0.88,0.16C11.49,7.62,11.24,7.63,11.04,7.63
			z"/>
		<path class="st1" d="M12.29,1.98c0.34,0.02,0.63,0.11,0.85,0.28c0.22,0.17,0.36,0.43,0.4,0.76c0,0.11-0.02,0.2-0.05,0.28
			c-0.04,0.07-0.1,0.12-0.19,0.13c-0.03,0-0.06,0.01-0.09,0.01c-0.07,0-0.14-0.02-0.19-0.05c-0.07-0.04-0.11-0.1-0.11-0.17
			c-0.02-0.09-0.03-0.17-0.05-0.25c-0.02-0.08-0.06-0.13-0.12-0.16c-0.08-0.02-0.15-0.03-0.23-0.03c-0.06,0-0.13,0.01-0.2,0.02
			c-0.15,0.03-0.29,0.08-0.42,0.15c-0.13,0.07-0.24,0.14-0.32,0.23c-0.09,0.08-0.14,0.16-0.14,0.22c-0.02,0.12,0.01,0.24,0.1,0.35
			c0.09,0.11,0.22,0.22,0.38,0.34c0.28,0.17,0.57,0.34,0.88,0.52c0.3,0.18,0.56,0.36,0.77,0.54c0.21,0.18,0.35,0.39,0.43,0.61
			c0.08,0.22,0.06,0.47-0.05,0.75c-0.09,0.22-0.25,0.39-0.49,0.53c-0.24,0.14-0.5,0.24-0.79,0.32c-0.29,0.08-0.58,0.13-0.86,0.16
			c-0.29,0.03-0.53,0.04-0.73,0.04c-0.05,0-0.11-0.02-0.17-0.05c-0.07-0.04-0.13-0.08-0.19-0.13c-0.06-0.05-0.11-0.1-0.16-0.15
			c-0.04-0.05-0.07-0.1-0.07-0.14c0-0.14,0.06-0.24,0.19-0.3c0.13-0.06,0.26-0.08,0.4-0.08c0.19,0,0.4-0.01,0.62-0.03
			c0.22-0.02,0.43-0.05,0.63-0.1c0.2-0.04,0.38-0.1,0.54-0.17c0.16-0.07,0.27-0.16,0.34-0.28c0.06-0.1,0.02-0.21-0.1-0.34
			c-0.12-0.13-0.29-0.27-0.49-0.41c-0.2-0.14-0.42-0.28-0.66-0.42c-0.24-0.14-0.44-0.26-0.61-0.37c-0.17-0.11-0.31-0.25-0.43-0.4
			C10.75,4,10.67,3.8,10.64,3.57c-0.01-0.21,0.04-0.41,0.13-0.6c0.1-0.19,0.22-0.36,0.38-0.51c0.16-0.15,0.33-0.27,0.53-0.35
			C11.89,2.02,12.09,1.98,12.29,1.98 M12.29,1.78L12.29,1.78c-0.23,0-0.46,0.05-0.69,0.15c-0.22,0.1-0.42,0.23-0.59,0.39
			c-0.17,0.16-0.31,0.35-0.42,0.57c-0.11,0.22-0.16,0.46-0.15,0.7c0.04,0.29,0.13,0.51,0.27,0.7c0.13,0.17,0.29,0.32,0.48,0.45
			c0.17,0.11,0.38,0.24,0.62,0.38c0.24,0.14,0.45,0.27,0.64,0.41c0.19,0.14,0.35,0.27,0.46,0.39c0.07,0.07,0.07,0.11,0.07,0.11
			c-0.04,0.07-0.12,0.13-0.24,0.19c-0.15,0.07-0.31,0.12-0.5,0.16c-0.19,0.04-0.4,0.07-0.6,0.09c-0.21,0.02-0.41,0.03-0.6,0.03
			c-0.16,0-0.32,0.03-0.48,0.1c-0.2,0.09-0.31,0.26-0.31,0.48c0,0.09,0.04,0.18,0.11,0.27c0.05,0.06,0.11,0.12,0.18,0.18
			c0.07,0.06,0.14,0.11,0.22,0.15c0.1,0.05,0.19,0.08,0.27,0.08c0.21,0,0.46-0.01,0.75-0.04c0.3-0.03,0.6-0.08,0.9-0.16
			c0.3-0.08,0.59-0.19,0.84-0.34C13.8,7.03,14,6.82,14.1,6.56c0.13-0.33,0.15-0.63,0.06-0.89c-0.09-0.25-0.25-0.48-0.48-0.69
			c-0.22-0.19-0.49-0.38-0.8-0.56C12.57,4.24,12.28,4.07,12,3.9c-0.14-0.09-0.26-0.19-0.33-0.29c-0.07-0.09-0.06-0.15-0.06-0.19
			c0-0.01,0.01-0.05,0.09-0.12c0.07-0.07,0.17-0.14,0.28-0.2c0.11-0.06,0.23-0.1,0.37-0.13c0.05-0.01,0.11-0.02,0.16-0.02
			c0.06,0,0.12,0.01,0.18,0.03l0.02,0.19l0.01,0.06c0.01,0.12,0.08,0.23,0.2,0.3C13,3.61,13.1,3.63,13.21,3.63
			c0.04,0,0.07,0,0.11-0.01c0.16-0.03,0.27-0.11,0.34-0.24c0.05-0.1,0.08-0.22,0.08-0.37c-0.05-0.41-0.21-0.72-0.47-0.92
			C13,1.9,12.68,1.79,12.29,1.78L12.29,1.78L12.29,1.78z"/>
	</g>
	<g>
		<path class="st0" d="M16.44,6.38c-0.17,0-0.34-0.02-0.51-0.07c-0.29-0.08-0.55-0.23-0.78-0.44c-0.19-0.19-0.34-0.42-0.44-0.68
			c-0.1-0.25-0.16-0.52-0.19-0.79c-0.02-0.26,0-0.51,0.07-0.75c0.07-0.23,0.18-0.45,0.34-0.63c0.15-0.18,0.35-0.33,0.57-0.45
			c0.23-0.12,0.5-0.19,0.8-0.2c0.05,0,0.1-0.01,0.14-0.01c0.3,0,0.59,0.07,0.85,0.21c0.3,0.16,0.51,0.39,0.63,0.69
			c0.07,0.17,0.09,0.33,0.06,0.46c-0.03,0.14-0.13,0.26-0.29,0.36c-0.32,0.19-0.67,0.34-1.04,0.44c-0.33,0.09-0.7,0.14-1.08,0.15
			c0.03,0.21,0.1,0.38,0.21,0.5c0.13,0.15,0.29,0.23,0.48,0.26c0.04,0.01,0.09,0.01,0.14,0.01c0.07,0,0.14-0.01,0.22-0.02
			c0.12-0.02,0.24-0.06,0.35-0.11c0.11-0.05,0.21-0.1,0.3-0.17c0.09-0.06,0.17-0.12,0.24-0.18c0.08-0.07,0.17-0.12,0.27-0.15
			c0.05-0.01,0.1-0.02,0.14-0.02l0.1,0.02c0.11,0.04,0.23,0.15,0.18,0.47c-0.14,0.3-0.34,0.53-0.59,0.72
			c-0.25,0.19-0.54,0.31-0.85,0.36C16.66,6.37,16.55,6.38,16.44,6.38z M16.5,3.24c-0.08,0-0.15,0.01-0.23,0.02
			c-0.07,0.01-0.15,0.04-0.24,0.08c-0.08,0.04-0.16,0.08-0.23,0.14c-0.07,0.05-0.13,0.12-0.19,0.19c-0.02,0.03-0.04,0.06-0.05,0.09
			c0.1,0,0.2-0.02,0.31-0.03c0.16-0.02,0.32-0.05,0.47-0.09c0.15-0.04,0.29-0.08,0.42-0.12c0.09-0.03,0.16-0.06,0.23-0.1
			c-0.05-0.08-0.13-0.12-0.24-0.15C16.67,3.25,16.59,3.24,16.5,3.24z"/>
		<path class="st1" d="M16.44,2.45c0.29,0,0.56,0.07,0.8,0.2c0.28,0.15,0.48,0.36,0.59,0.64c0.06,0.15,0.08,0.28,0.05,0.4
			c-0.03,0.11-0.11,0.21-0.25,0.3c-0.31,0.18-0.65,0.33-1.01,0.43c-0.36,0.1-0.75,0.15-1.16,0.15c0.02,0.28,0.1,0.5,0.24,0.67
			c0.14,0.16,0.32,0.26,0.54,0.29c0.05,0.01,0.1,0.01,0.16,0.01c0.08,0,0.16-0.01,0.23-0.02c0.13-0.02,0.26-0.06,0.37-0.11
			c0.12-0.05,0.22-0.11,0.32-0.17c0.1-0.06,0.18-0.13,0.25-0.19c0.07-0.06,0.15-0.11,0.23-0.13c0.04-0.01,0.08-0.02,0.11-0.02
			c0.03,0,0.05,0,0.06,0.01c0.11,0.04,0.15,0.16,0.12,0.36c-0.13,0.26-0.31,0.47-0.55,0.65c-0.24,0.18-0.51,0.29-0.8,0.34
			c-0.1,0.02-0.21,0.03-0.31,0.03c-0.16,0-0.32-0.02-0.48-0.06C15.69,6.14,15.44,6,15.23,5.79c-0.18-0.18-0.32-0.4-0.42-0.65
			c-0.1-0.25-0.16-0.5-0.18-0.77c-0.02-0.25,0-0.48,0.07-0.71c0.07-0.22,0.17-0.42,0.32-0.59c0.14-0.17,0.32-0.31,0.54-0.43
			c0.22-0.11,0.47-0.18,0.76-0.19C16.35,2.45,16.4,2.45,16.44,2.45 M15.44,3.86c0.14,0,0.29-0.01,0.45-0.04
			c0.16-0.02,0.32-0.05,0.48-0.09c0.16-0.04,0.3-0.08,0.43-0.13c0.13-0.05,0.24-0.1,0.33-0.16c-0.06-0.15-0.18-0.25-0.35-0.28
			c-0.09-0.02-0.18-0.03-0.28-0.03c-0.08,0-0.16,0.01-0.25,0.02C16.18,3.18,16.09,3.21,16,3.25c-0.09,0.04-0.18,0.09-0.25,0.15
			c-0.08,0.06-0.14,0.13-0.2,0.2C15.48,3.68,15.45,3.76,15.44,3.86 M16.44,2.25c-0.05,0-0.1,0-0.15,0.01
			c-0.31,0.02-0.6,0.09-0.83,0.21c-0.24,0.12-0.44,0.28-0.6,0.47c-0.16,0.19-0.28,0.42-0.36,0.67c-0.07,0.25-0.1,0.51-0.07,0.78
			c0.03,0.28,0.09,0.56,0.19,0.82c0.11,0.27,0.26,0.51,0.47,0.72c0.24,0.23,0.52,0.39,0.82,0.47c0.18,0.05,0.36,0.07,0.53,0.07
			c0.12,0,0.23-0.01,0.35-0.03c0.32-0.05,0.62-0.18,0.89-0.38c0.26-0.2,0.47-0.44,0.61-0.72l0.01-0.03l0-0.03
			c0.06-0.4-0.13-0.54-0.25-0.58c-0.04-0.01-0.08-0.02-0.13-0.02c-0.05,0-0.1,0.01-0.16,0.02c-0.11,0.03-0.22,0.08-0.31,0.17
			c-0.07,0.06-0.14,0.12-0.23,0.18c-0.09,0.06-0.18,0.11-0.29,0.16c-0.1,0.05-0.21,0.08-0.33,0.1c-0.07,0.01-0.13,0.02-0.2,0.02
			c-0.04,0-0.09,0-0.13-0.01c-0.16-0.02-0.3-0.1-0.41-0.23c-0.08-0.09-0.13-0.2-0.16-0.34c0.35-0.02,0.68-0.07,0.99-0.15
			c0.38-0.1,0.73-0.25,1.06-0.45c0.19-0.12,0.3-0.26,0.34-0.43c0.04-0.15,0.02-0.33-0.06-0.52c-0.13-0.31-0.36-0.56-0.68-0.73
			C17.07,2.33,16.77,2.25,16.44,2.25L16.44,2.25z M15.78,3.64c0.03-0.03,0.06-0.06,0.09-0.08c0.06-0.05,0.13-0.09,0.21-0.12
			c0.08-0.03,0.15-0.06,0.22-0.07c0.07-0.01,0.14-0.02,0.21-0.02c0.08,0,0.16,0.01,0.23,0.02c0.03,0.01,0.05,0.01,0.08,0.02
			c-0.03,0.01-0.05,0.02-0.08,0.03c-0.12,0.05-0.26,0.08-0.41,0.12c-0.15,0.03-0.31,0.06-0.46,0.09
			C15.83,3.63,15.81,3.63,15.78,3.64L15.78,3.64z"/>
	</g>
	<g>
		<path class="st0" d="M20.61,7.4c-0.25,0-0.44-0.09-0.58-0.26c-0.15-0.18-0.23-0.42-0.25-0.69c-0.02-0.26-0.02-0.56-0.01-0.9
			l0.04-0.95c0,0-0.73,0.07-0.73,0.07c-0.13,0-0.25-0.03-0.38-0.08c-0.16-0.06-0.25-0.19-0.25-0.37c0-0.06,0.02-0.14,0.07-0.24
			c0.05-0.11,0.16-0.18,0.33-0.23c0.32-0.05,0.66-0.1,1.03-0.14c0.02-0.35,0.05-0.68,0.08-1.01l0.08-0.96
			c0.01-0.11,0.04-0.21,0.1-0.3c0.08-0.13,0.18-0.15,0.24-0.15c0,0,0,0,0.01,0c0.17,0,0.31,0.04,0.43,0.12
			c0.16,0.1,0.23,0.21,0.23,0.34c-0.03,0.28-0.06,0.59-0.09,0.93c-0.03,0.31-0.05,0.62-0.07,0.94c0.12-0.01,0.24-0.02,0.35-0.02
			c0.15,0,0.43-0.02,0.43-0.02c0.2,0,0.35,0.04,0.5,0.12c0.18,0.1,0.28,0.26,0.28,0.46c-0.02,0.19-0.12,0.31-0.3,0.35
			c-0.14,0.04-0.26,0.06-0.34,0.06c-0.16,0-0.33,0-0.51,0.01c-0.15,0.01-0.31,0.02-0.47,0.03l-0.07,1.27
			c-0.01,0.18-0.01,0.48-0.01,0.49c0.14-0.03,0.29-0.08,0.45-0.14c0.2-0.07,0.4-0.16,0.61-0.25c0.2-0.09,0.4-0.19,0.6-0.29
			l0.56-0.28c0.07-0.04,0.14-0.05,0.21-0.05c0.21,0.04,0.26,0.12,0.28,0.19c0.02,0.12,0.01,0.24-0.04,0.38
			c-0.04,0.14-0.13,0.27-0.24,0.39c-0.13,0.1-0.29,0.22-0.49,0.34c-0.2,0.13-0.41,0.25-0.64,0.36c-0.23,0.11-0.46,0.21-0.69,0.3
			c-0.24,0.09-0.45,0.14-0.63,0.16L20.61,7.4z"/>
		<path class="st1" d="M20.41,1.29c0.12,0,0.24,0.03,0.35,0.1c0.12,0.08,0.19,0.16,0.19,0.26c-0.03,0.27-0.06,0.58-0.09,0.92
			c-0.03,0.34-0.05,0.7-0.08,1.06c0.16-0.02,0.31-0.03,0.46-0.03c0.15,0,0.29-0.01,0.43-0.02c0.01,0,0.03,0,0.04,0
			c0.14,0,0.28,0.04,0.42,0.11c0.15,0.08,0.23,0.2,0.23,0.37c-0.02,0.14-0.09,0.22-0.22,0.26C22,4.36,21.89,4.38,21.81,4.38
			c-0.16,0-0.33,0-0.52,0.01c-0.18,0.01-0.37,0.02-0.56,0.04c-0.02,0.26-0.03,0.51-0.04,0.74c-0.01,0.23-0.02,0.44-0.03,0.62
			c-0.01,0.18-0.01,0.33-0.01,0.44c0,0.11,0,0.17,0.01,0.18c0.18-0.03,0.37-0.09,0.57-0.16c0.2-0.08,0.41-0.16,0.61-0.25
			c0.2-0.09,0.4-0.19,0.6-0.29c0.2-0.1,0.38-0.19,0.56-0.28c0.06-0.03,0.11-0.04,0.16-0.04c0.02,0,0.04,0,0.06,0.01
			c0.07,0.02,0.11,0.05,0.13,0.11c0.02,0.09,0,0.2-0.04,0.32c-0.04,0.13-0.11,0.24-0.22,0.35c-0.12,0.1-0.28,0.21-0.47,0.33
			c-0.2,0.12-0.41,0.24-0.63,0.35c-0.22,0.11-0.45,0.21-0.68,0.29c-0.23,0.08-0.43,0.13-0.61,0.15c-0.03,0-0.06,0-0.1,0
			c-0.22,0-0.39-0.07-0.5-0.22c-0.14-0.17-0.21-0.38-0.23-0.64c-0.02-0.26-0.02-0.55-0.01-0.89c0.01-0.34,0.03-0.69,0.04-1.07
			c-0.15,0.02-0.3,0.03-0.44,0.04c-0.14,0.01-0.27,0.03-0.4,0.04c-0.1,0-0.22-0.02-0.34-0.07c-0.12-0.05-0.19-0.14-0.19-0.28
			c0-0.05,0.02-0.11,0.06-0.19c0.04-0.08,0.13-0.14,0.26-0.18c0.33-0.06,0.69-0.1,1.09-0.14c0.02-0.38,0.05-0.74,0.08-1.09
			c0.03-0.35,0.06-0.67,0.08-0.96c0.01-0.1,0.04-0.18,0.08-0.25c0.05-0.07,0.1-0.11,0.16-0.11C20.39,1.29,20.4,1.29,20.41,1.29
			 M20.41,1.09L20.41,1.09l-0.05,0c0,0,0,0,0,0c-0.08,0-0.2,0.03-0.31,0.2c-0.07,0.1-0.11,0.22-0.12,0.35
			c-0.02,0.29-0.05,0.61-0.08,0.96c-0.03,0.3-0.05,0.61-0.07,0.93c-0.34,0.04-0.65,0.08-0.94,0.13c-0.21,0.06-0.34,0.16-0.41,0.29
			c-0.06,0.11-0.08,0.2-0.08,0.28c0,0.22,0.11,0.38,0.31,0.46c0.15,0.06,0.28,0.09,0.41,0.09c0.15-0.02,0.28-0.03,0.42-0.04
			c0.07-0.01,0.14-0.01,0.21-0.02C19.7,5,19.68,5.28,19.68,5.54c-0.01,0.34-0.01,0.65,0.01,0.91C19.7,6.75,19.79,7,19.95,7.2
			c0.16,0.19,0.38,0.29,0.66,0.29c0.04,0,0.07,0,0.11-0.01c0.19-0.02,0.41-0.07,0.66-0.16c0.24-0.09,0.47-0.19,0.7-0.3
			c0.23-0.12,0.45-0.24,0.65-0.36c0.21-0.13,0.37-0.24,0.49-0.34c0.14-0.14,0.23-0.28,0.28-0.44c0.05-0.16,0.06-0.3,0.04-0.42
			c-0.04-0.15-0.14-0.24-0.28-0.27c-0.03-0.01-0.07-0.01-0.11-0.01c-0.08,0-0.17,0.02-0.25,0.06c-0.18,0.09-0.36,0.18-0.56,0.28
			c-0.19,0.1-0.39,0.19-0.59,0.28c-0.2,0.09-0.4,0.17-0.6,0.25c-0.11,0.04-0.21,0.07-0.31,0.1c0-0.1,0-0.22,0.01-0.36
			c0.01-0.18,0.02-0.38,0.03-0.62C20.9,5,20.91,4.81,20.92,4.61c0.13-0.01,0.26-0.02,0.38-0.02c0.18-0.01,0.35-0.01,0.51-0.01
			c0.1,0,0.22-0.02,0.37-0.06c0.21-0.06,0.34-0.21,0.37-0.43c0-0.27-0.11-0.46-0.33-0.57c-0.17-0.09-0.34-0.13-0.51-0.13h-0.01
			l-0.05,0c-0.14,0.01-0.28,0.01-0.42,0.02c-0.08,0-0.16,0.01-0.24,0.01c0.02-0.28,0.04-0.55,0.06-0.82
			c0.03-0.34,0.06-0.65,0.09-0.92c0-0.14-0.05-0.31-0.28-0.45C20.72,1.14,20.57,1.09,20.41,1.09L20.41,1.09z"/>
	</g>
	<g>
		<path class="st0" d="M4.7,14.41c-0.15,0-0.35-0.06-0.47-0.38c-0.14-0.36-0.24-0.77-0.31-1.22c-0.4,0.23-0.79,0.37-1.18,0.43
			c-0.18,0.03-0.34,0.04-0.5,0.04c-0.23,0-0.45-0.03-0.66-0.08c-0.35-0.1-0.64-0.27-0.85-0.51c-0.22-0.25-0.33-0.55-0.33-0.9
			c0-0.32,0.06-0.67,0.17-1.04c0.11-0.37,0.28-0.73,0.49-1.07c0.21-0.34,0.46-0.65,0.75-0.94C2.11,8.47,2.44,8.25,2.8,8.1
			c0.1-0.03,0.18-0.04,0.25-0.04c0.05,0,0.1,0,0.15,0.01C3.32,8.1,3.43,8.14,3.54,8.21c0.1,0.06,0.19,0.14,0.27,0.23
			C3.89,8.53,3.96,8.61,4.01,8.7C4.06,8.77,4.09,8.84,4.1,8.92c0.01,0.07,0,0.17-0.1,0.26C3.92,9.25,3.85,9.28,3.78,9.28
			c-0.06,0-0.15-0.02-0.23-0.12C3.39,8.96,3.29,8.9,3.24,8.88c-0.01,0-0.02,0-0.03,0c-0.07,0-0.15,0.02-0.26,0.09
			c-0.15,0.1-0.32,0.27-0.51,0.49C2.26,9.69,2.08,9.94,1.92,10.2c-0.16,0.27-0.29,0.55-0.38,0.83c-0.09,0.28-0.12,0.53-0.09,0.77
			c0.02,0.18,0.12,0.31,0.3,0.38c0.19,0.08,0.4,0.12,0.63,0.12c0.33-0.01,0.6-0.06,0.87-0.15c0.26-0.09,0.46-0.21,0.6-0.36
			L3.8,11.45c-0.01-0.1-0.01-0.21-0.01-0.31c-0.14,0.01-0.28,0.02-0.42,0.03c-0.17,0.01-0.35,0.03-0.53,0.05c0,0-0.01,0-0.01,0
			c-0.06,0-0.11-0.01-0.17-0.02c-0.07-0.01-0.14-0.04-0.2-0.07c-0.06-0.03-0.12-0.08-0.16-0.13c-0.06-0.06-0.09-0.13-0.09-0.21
			c0-0.09,0.04-0.18,0.14-0.3c0.09-0.11,0.23-0.19,0.43-0.24c0.25-0.06,0.51-0.09,0.78-0.1c0.13-0.01,0.27-0.01,0.4-0.01
			c0.13,0,0.27,0,0.4,0.01c0.27,0.01,0.53,0.03,0.78,0.05c0.25,0.02,0.49,0.03,0.72,0.04h0c0.16,0,0.26,0.04,0.32,0.11
			c0.06,0.07,0.08,0.14,0.08,0.23c0,0.18-0.08,0.32-0.24,0.42c-0.13,0.08-0.27,0.12-0.4,0.12c-0.18-0.01-0.32-0.01-0.46-0.01H4.79
			c0,0.2,0.01,0.41,0.03,0.64c0.02,0.28,0.04,0.55,0.07,0.83s0.05,0.55,0.08,0.8c0.03,0.26,0.05,0.47,0.08,0.65
			c0.02,0.09,0,0.18-0.06,0.25C4.91,14.37,4.82,14.41,4.7,14.41z"/>
		<path class="st1" d="M3.06,8.16c0.04,0,0.09,0,0.13,0.01c0.11,0.02,0.21,0.06,0.3,0.12c0.09,0.06,0.18,0.13,0.25,0.22
			c0.08,0.08,0.14,0.17,0.2,0.25C3.97,8.81,4,8.87,4,8.94C4.01,9,3.99,9.06,3.93,9.11C3.88,9.16,3.83,9.18,3.78,9.18
			c-0.06,0-0.11-0.03-0.16-0.08C3.48,8.92,3.37,8.82,3.28,8.78C3.25,8.78,3.23,8.77,3.2,8.77c-0.08,0-0.18,0.04-0.3,0.12
			C2.74,9,2.56,9.17,2.37,9.4C2.18,9.62,2,9.88,1.84,10.15C1.67,10.43,1.54,10.71,1.45,11s-0.13,0.56-0.1,0.81
			c0.02,0.22,0.14,0.37,0.36,0.46c0.2,0.08,0.42,0.13,0.67,0.13c0.02,0,0.04,0,0.07,0c0.28-0.01,0.55-0.06,0.83-0.16
			c0.28-0.1,0.49-0.22,0.64-0.38c-0.01-0.14-0.02-0.27-0.02-0.41c-0.01-0.14-0.01-0.28-0.01-0.41c-0.18,0.02-0.35,0.03-0.53,0.04
			C3.18,11.09,3,11.11,2.82,11.13c-0.04,0-0.09-0.01-0.15-0.02c-0.06-0.01-0.12-0.03-0.17-0.06c-0.05-0.03-0.1-0.06-0.14-0.11
			C2.32,10.9,2.3,10.85,2.3,10.81c0-0.06,0.04-0.14,0.11-0.23c0.08-0.09,0.2-0.16,0.38-0.21c0.24-0.06,0.49-0.09,0.76-0.1
			c0.13-0.01,0.26-0.01,0.4-0.01c0.13,0,0.26,0,0.4,0.01c0.26,0.01,0.52,0.03,0.78,0.05c0.26,0.02,0.5,0.03,0.72,0.04
			c0.13,0,0.21,0.02,0.25,0.07c0.04,0.05,0.06,0.1,0.06,0.17c0,0.14-0.06,0.26-0.19,0.34C5.84,11,5.73,11.04,5.61,11.04
			c-0.01,0-0.02,0-0.04,0c-0.14-0.01-0.28-0.01-0.43-0.01c-0.15,0-0.3,0-0.46,0c0,0.22,0.01,0.47,0.03,0.75
			c0.02,0.28,0.04,0.55,0.07,0.83c0.02,0.28,0.05,0.55,0.08,0.8c0.03,0.26,0.05,0.47,0.08,0.65c0.02,0.06,0,0.12-0.04,0.17
			c-0.04,0.05-0.11,0.08-0.2,0.08c-0.17,0-0.29-0.1-0.37-0.31C4.18,13.61,4.07,13.16,4,12.65c-0.43,0.26-0.86,0.43-1.27,0.49
			c-0.17,0.03-0.33,0.04-0.49,0.04c-0.23,0-0.44-0.03-0.63-0.08c-0.33-0.09-0.6-0.25-0.8-0.48C0.6,12.4,0.5,12.12,0.5,11.79
			c0-0.31,0.06-0.65,0.17-1.01c0.11-0.36,0.27-0.71,0.48-1.04C1.36,9.4,1.6,9.1,1.89,8.82c0.28-0.28,0.6-0.49,0.95-0.63
			C2.91,8.17,2.99,8.16,3.06,8.16 M3.06,7.96C2.97,7.96,2.88,7.97,2.79,8c-0.4,0.16-0.74,0.39-1.04,0.68
			C1.45,8.96,1.19,9.29,0.98,9.63c-0.22,0.35-0.38,0.72-0.5,1.09C0.36,11.1,0.3,11.46,0.3,11.79c0,0.38,0.12,0.7,0.36,0.97
			c0.23,0.26,0.53,0.44,0.9,0.54c0.21,0.06,0.44,0.09,0.68,0.09c0.17,0,0.34-0.01,0.52-0.04c0.36-0.05,0.72-0.18,1.09-0.37
			c0.07,0.4,0.17,0.77,0.29,1.1c0.15,0.38,0.41,0.44,0.56,0.44c0.19,0,0.29-0.08,0.35-0.15c0.08-0.1,0.11-0.22,0.08-0.35
			c-0.02-0.15-0.05-0.37-0.07-0.62c-0.03-0.26-0.05-0.52-0.08-0.8c-0.02-0.28-0.05-0.56-0.07-0.83c-0.01-0.19-0.02-0.37-0.03-0.54
			h0.26c0.14,0,0.28,0,0.41,0.01c0,0,0.01,0,0.01,0c0.2,0,0.35-0.05,0.49-0.14c0.19-0.12,0.29-0.29,0.29-0.51
			c0-0.11-0.04-0.21-0.11-0.3c-0.08-0.1-0.21-0.14-0.41-0.14c-0.21-0.01-0.45-0.02-0.7-0.04c-0.26-0.02-0.52-0.04-0.79-0.05
			c-0.14-0.01-0.27-0.01-0.4-0.01c-0.13,0-0.27,0-0.41,0.01C3.26,10.07,3,10.11,2.75,10.17c-0.22,0.06-0.38,0.15-0.49,0.28
			c-0.11,0.13-0.16,0.25-0.16,0.36c0,0.07,0.02,0.17,0.11,0.27c0.06,0.06,0.12,0.11,0.19,0.15c0.07,0.04,0.14,0.06,0.22,0.08
			c0.08,0.02,0.14,0.02,0.19,0.02c0.21-0.03,0.38-0.04,0.55-0.05c0.11-0.01,0.21-0.01,0.32-0.02c0,0.07,0.01,0.14,0.01,0.21
			l0.02,0.32c-0.12,0.11-0.29,0.2-0.5,0.28C2.96,12.15,2.7,12.2,2.44,12.2l-0.06,0c-0.22,0-0.42-0.04-0.59-0.11
			c-0.15-0.06-0.22-0.16-0.24-0.3c-0.03-0.22,0-0.46,0.09-0.73c0.09-0.28,0.22-0.55,0.37-0.81c0.16-0.26,0.33-0.51,0.52-0.73
			c0.18-0.21,0.35-0.37,0.49-0.48C3.13,8.98,3.19,8.97,3.2,8.97c0.03,0.01,0.11,0.05,0.26,0.25C3.58,9.35,3.7,9.38,3.78,9.38
			c0.09,0,0.18-0.03,0.27-0.1C4.2,9.13,4.21,9,4.2,8.91C4.19,8.82,4.16,8.72,4.1,8.64C4.03,8.55,3.96,8.46,3.88,8.37
			C3.8,8.28,3.7,8.19,3.59,8.13C3.48,8.05,3.35,8,3.22,7.98C3.17,7.97,3.11,7.96,3.06,7.96L3.06,7.96z"/>
	</g>
	<g>
		<path class="st0" d="M7.76,14.64c-0.21,0-0.4-0.06-0.57-0.17c-0.22-0.15-0.38-0.37-0.46-0.67c-0.05-0.19-0.06-0.4-0.04-0.61
			c0.03-0.21,0.09-0.41,0.19-0.6c0.1-0.19,0.24-0.36,0.41-0.51c0.17-0.15,0.38-0.27,0.61-0.35c0.06-0.03,0.15-0.05,0.25-0.06
			c0.08-0.01,0.17-0.02,0.26-0.02c0.19,0.01,0.3,0.03,0.43,0.07c0.06,0.02,0.12,0.05,0.18,0.09c0-0.08-0.01-0.57-0.02-0.73
			C9,10.9,8.99,10.74,8.97,10.59c-0.01-0.15-0.02-0.27-0.04-0.37c-0.01-0.08-0.04-0.13-0.07-0.14c-0.03,0-0.06,0-0.08,0
			c-0.06,0-0.1,0.01-0.13,0.02c-0.18,0.06-0.4,0.18-0.65,0.36c-0.25,0.18-0.49,0.38-0.72,0.58c-0.08,0.08-0.18,0.12-0.29,0.12
			c-0.15-0.01-0.25-0.06-0.33-0.14c-0.08-0.08-0.13-0.17-0.14-0.28s0.03-0.22,0.12-0.34c0.14-0.15,0.3-0.3,0.47-0.46
			c0.17-0.16,0.35-0.3,0.54-0.42C7.83,9.39,8.03,9.29,8.23,9.2c0.2-0.08,0.41-0.13,0.61-0.14c0,0,0,0,0,0
			c0.33,0,0.55,0.07,0.71,0.21c0.17,0.15,0.27,0.34,0.31,0.57c0.03,0.23,0.06,0.47,0.08,0.72c0.02,0.25,0.04,0.51,0.05,0.77
			c0.01,0.26,0.02,0.51,0.02,0.75c0,0.24,0,0.46-0.01,0.65c0.23,0.1,0.4,0.27,0.46,0.43c0.06,0.16,0.07,0.3,0.02,0.43
			c-0.08,0.23-0.23,0.28-0.35,0.29c0,0,0,0,0,0c-0.14,0-0.27-0.04-0.42-0.11c-0.1,0.07-0.21,0.15-0.34,0.22
			c-0.15,0.09-0.3,0.18-0.46,0.27c-0.16,0.08-0.33,0.16-0.49,0.23c-0.17,0.07-0.32,0.11-0.46,0.14C7.88,14.63,7.82,14.64,7.76,14.64
			z M8.38,12.54C8.3,12.56,8.2,12.6,8.1,12.67c-0.11,0.07-0.21,0.16-0.29,0.26c-0.08,0.1-0.15,0.21-0.19,0.33
			c-0.04,0.11-0.04,0.22-0.01,0.33l0.11,0.06c0.24-0.05,0.45-0.12,0.69-0.23c0.22-0.1,0.4-0.22,0.53-0.33
			c-0.01,0-0.03-0.04-0.06-0.09c-0.05-0.07-0.1-0.14-0.16-0.22c-0.06-0.07-0.12-0.13-0.19-0.18c-0.05-0.04-0.09-0.05-0.13-0.05v-0.1
			L8.38,12.54z"/>
		<path class="st1" d="M8.89,9.16c0.26,0,0.46,0.06,0.6,0.19c0.15,0.13,0.24,0.3,0.28,0.51c0.03,0.22,0.06,0.46,0.08,0.71
			c0.02,0.25,0.04,0.51,0.05,0.76c0.01,0.26,0.02,0.5,0.02,0.74c0,0.24,0,0.46-0.01,0.65c0.26,0.18,0.41,0.33,0.46,0.47
			c0.05,0.14,0.06,0.26,0.02,0.36c-0.05,0.14-0.13,0.22-0.26,0.22c-0.01,0-0.01,0-0.02,0c-0.12,0-0.26-0.04-0.41-0.13
			c-0.11,0.08-0.24,0.17-0.38,0.26c-0.14,0.09-0.3,0.18-0.46,0.26c-0.16,0.08-0.32,0.16-0.48,0.22c-0.16,0.06-0.31,0.11-0.44,0.13
			c-0.06,0.01-0.12,0.01-0.17,0.01c-0.19,0-0.36-0.05-0.52-0.16c-0.2-0.14-0.34-0.34-0.41-0.61c-0.05-0.18-0.06-0.37-0.04-0.57
			c0.02-0.2,0.08-0.38,0.18-0.56c0.1-0.18,0.23-0.34,0.39-0.49c0.16-0.14,0.36-0.26,0.58-0.34c0.06-0.02,0.13-0.04,0.23-0.06
			c0.08-0.01,0.16-0.02,0.25-0.02c0.02,0,0.04,0,0.06,0c0.11,0,0.22,0.03,0.33,0.07c0.11,0.04,0.22,0.11,0.31,0.2
			c0-0.14,0-0.29-0.01-0.45c0-0.16-0.01-0.33-0.02-0.5c-0.01-0.17-0.02-0.33-0.03-0.47c-0.01-0.15-0.03-0.27-0.04-0.38
			c-0.02-0.12-0.06-0.19-0.14-0.22c-0.03-0.01-0.07-0.02-0.1-0.02c-0.05,0-0.11,0.01-0.18,0.04c-0.19,0.06-0.42,0.19-0.67,0.37
			c-0.26,0.18-0.5,0.38-0.73,0.59c-0.06,0.06-0.14,0.1-0.22,0.1c-0.01,0-0.02,0-0.03,0c-0.09-0.01-0.17-0.04-0.23-0.11
			c-0.06-0.06-0.1-0.14-0.11-0.22c-0.01-0.08,0.02-0.17,0.1-0.27c0.14-0.14,0.29-0.29,0.46-0.44C7.34,9.86,7.52,9.73,7.7,9.6
			c0.18-0.12,0.37-0.23,0.56-0.31c0.19-0.08,0.38-0.12,0.58-0.13C8.86,9.16,8.87,9.16,8.89,9.16 M7.72,13.74
			c0.02,0,0.05,0,0.07-0.01c0.19-0.04,0.41-0.12,0.65-0.23c0.24-0.12,0.44-0.24,0.58-0.38c0-0.05-0.02-0.11-0.07-0.19
			c-0.05-0.08-0.1-0.15-0.17-0.23c-0.06-0.08-0.13-0.14-0.21-0.2c-0.07-0.05-0.13-0.07-0.19-0.07c-0.01,0-0.02,0-0.02,0
			c-0.1,0.02-0.21,0.07-0.33,0.15c-0.12,0.08-0.22,0.17-0.31,0.28s-0.16,0.23-0.2,0.36c-0.04,0.13-0.05,0.26-0.01,0.39
			c0.02,0.05,0.05,0.08,0.1,0.11C7.65,13.74,7.69,13.74,7.72,13.74 M8.89,8.96L8.89,8.96l-0.05,0C8.62,8.97,8.4,9.02,8.19,9.11
			c-0.2,0.08-0.4,0.19-0.6,0.32C7.4,9.57,7.21,9.71,7.04,9.87c-0.17,0.16-0.33,0.31-0.47,0.46c-0.12,0.15-0.16,0.29-0.15,0.43
			c0.01,0.13,0.07,0.25,0.17,0.35c0.1,0.1,0.22,0.15,0.36,0.17c0,0,0.01,0,0.01,0c0.17,0,0.29-0.05,0.39-0.15
			c0.22-0.19,0.46-0.39,0.71-0.57c0.24-0.17,0.45-0.29,0.62-0.34c0.05-0.02,0.09-0.02,0.12-0.02c0,0,0,0,0,0
			c0.02,0,0.03,0.02,0.04,0.07c0.02,0.11,0.03,0.23,0.04,0.37c0.01,0.15,0.02,0.3,0.03,0.47c0.01,0.17,0.01,0.33,0.02,0.49
			c0,0.02,0,0.05,0,0.07c-0.01-0.01-0.03-0.01-0.04-0.02c-0.13-0.05-0.26-0.07-0.39-0.08l-0.07,0c-0.1,0-0.19,0.01-0.28,0.02
			c-0.12,0.02-0.21,0.04-0.28,0.07C7.63,11.72,7.41,11.84,7.23,12c-0.18,0.16-0.33,0.34-0.43,0.54c-0.11,0.2-0.18,0.41-0.2,0.63
			c-0.03,0.22-0.01,0.44,0.04,0.65c0.09,0.32,0.25,0.57,0.5,0.73c0.19,0.13,0.4,0.19,0.63,0.19c0.07,0,0.13-0.01,0.2-0.02
			c0.15-0.03,0.31-0.07,0.49-0.14c0.17-0.07,0.33-0.14,0.5-0.23c0.17-0.09,0.32-0.18,0.47-0.27c0.11-0.07,0.2-0.13,0.29-0.19
			c0.14,0.06,0.27,0.09,0.39,0.09c0.14,0,0.36-0.06,0.46-0.36c0.05-0.14,0.05-0.31-0.02-0.49c-0.06-0.16-0.21-0.32-0.45-0.5
			c0.01-0.17,0.01-0.35,0.01-0.55c0-0.24-0.01-0.49-0.02-0.75c-0.01-0.26-0.03-0.51-0.05-0.77c-0.02-0.26-0.05-0.5-0.08-0.73
			C9.92,9.57,9.81,9.36,9.62,9.2C9.44,9.04,9.19,8.96,8.89,8.96L8.89,8.96z M7.72,13.54c-0.01,0-0.01,0-0.02,0
			c-0.02-0.07-0.02-0.16,0.01-0.25c0.04-0.11,0.09-0.2,0.17-0.29c0.08-0.09,0.17-0.17,0.27-0.24c0.09-0.06,0.18-0.1,0.26-0.12
			c-0.01,0,0.01,0.01,0.05,0.04c0.06,0.05,0.12,0.1,0.17,0.16c0.06,0.07,0.11,0.14,0.15,0.21c0,0,0.01,0.01,0.01,0.01
			c-0.12,0.09-0.26,0.18-0.44,0.26c-0.23,0.11-0.43,0.18-0.61,0.22L7.72,13.54L7.72,13.54z"/>
	</g>
	<g>
		<path class="st0" d="M12.02,14.06c-0.09,0-0.18-0.04-0.27-0.11c-0.08-0.07-0.15-0.15-0.22-0.24c-0.07-0.09-0.13-0.2-0.18-0.32
			c-0.06-0.12-0.1-0.24-0.12-0.36c-0.07-0.35-0.12-0.73-0.16-1.14l-0.13-1.21c-0.01-0.15,0.01-0.29,0.06-0.42
			c0.06-0.15,0.16-0.25,0.32-0.29c0.06-0.01,0.1-0.01,0.13-0.01c0.11,0,0.2,0.03,0.27,0.1c0.09,0.08,0.15,0.2,0.16,0.36
			c0.01,0.13,0.02,0.29,0.04,0.47L12,11.47c0.02,0.2,0.11,0.84,0.11,0.84l0.18-0.36c0.13-0.26,0.26-0.51,0.41-0.74
			c0.14-0.24,0.29-0.45,0.44-0.62c0.17-0.19,0.33-0.28,0.48-0.28c0.16,0,0.3,0.07,0.43,0.22c0.11,0.13,0.21,0.29,0.3,0.47
			c0.08,0.18,0.15,0.37,0.21,0.58c0.02,0.08,0.04,0.15,0.07,0.22c0.01-0.02,0.13-0.33,0.19-0.47c0.06-0.14,0.13-0.28,0.21-0.42
			c0.08-0.14,0.16-0.27,0.26-0.38c0.11-0.12,0.24-0.21,0.37-0.27c0.14-0.06,0.23-0.09,0.3-0.09c0.09,0,0.18,0.02,0.3,0.07
			c0.11,0.05,0.21,0.11,0.32,0.18c0.11,0.08,0.21,0.17,0.31,0.27c0.1,0.11,0.18,0.22,0.24,0.33c0.12,0.22,0.21,0.47,0.28,0.73
			c0.07,0.26,0.12,0.51,0.15,0.74c0.03,0.24,0.05,0.44,0.07,0.62c0.01,0.18,0.02,0.3,0.03,0.37c0,0.13-0.01,0.22-0.04,0.29
			c-0.03,0.07-0.09,0.13-0.18,0.17c-0.08,0.04-0.16,0.06-0.23,0.06c-0.15-0.02-0.22-0.06-0.27-0.11c-0.05-0.05-0.09-0.11-0.12-0.17
			c-0.03-0.06-0.04-0.11-0.05-0.16l-0.08-0.57c-0.03-0.19-0.06-0.38-0.09-0.56c-0.03-0.17-0.07-0.34-0.11-0.49
			c-0.04-0.15-0.09-0.29-0.13-0.4c-0.01-0.02-0.03-0.06-0.07-0.11c-0.03-0.05-0.07-0.09-0.11-0.14c-0.04-0.04-0.08-0.08-0.12-0.11
			c-0.01-0.01-0.02-0.02-0.04-0.02c-0.03,0-0.08,0.04-0.15,0.15c-0.09,0.14-0.17,0.32-0.24,0.52c-0.08,0.21-0.15,0.42-0.22,0.65
			c-0.07,0.22-0.12,0.42-0.15,0.57c0,0.21-0.04,0.39-0.14,0.5c-0.1,0.12-0.21,0.19-0.33,0.19c-0.11,0-0.22-0.04-0.34-0.12
			c-0.12-0.08-0.2-0.17-0.24-0.28c-0.05-0.13-0.51-1.42-0.51-1.42c-0.03-0.09-0.07-0.18-0.1-0.26c-0.07,0.11-0.15,0.23-0.22,0.35
			c-0.11,0.18-0.21,0.37-0.31,0.56c-0.1,0.19-0.19,0.38-0.29,0.57c-0.09,0.19-0.18,0.36-0.26,0.5c-0.06,0.1-0.13,0.18-0.19,0.25
			C12.24,14.02,12.14,14.06,12.02,14.06z"/>
		<path class="st1" d="M11.45,10.05c0.09,0,0.16,0.02,0.21,0.07c0.07,0.06,0.12,0.16,0.13,0.3c0.01,0.13,0.02,0.29,0.04,0.47
			c0.02,0.19,0.04,0.38,0.07,0.59c0.02,0.2,0.05,0.41,0.08,0.61c0.03,0.2,0.05,0.38,0.08,0.55c0.09-0.18,0.2-0.39,0.32-0.65
			c0.13-0.26,0.26-0.5,0.4-0.74c0.14-0.24,0.28-0.44,0.43-0.6c0.15-0.16,0.28-0.25,0.4-0.25c0.13,0,0.25,0.06,0.35,0.19
			c0.11,0.12,0.2,0.27,0.28,0.45c0.08,0.18,0.15,0.36,0.21,0.56c0.06,0.2,0.11,0.38,0.15,0.53c0.03-0.1,0.07-0.22,0.13-0.35
			c0.05-0.13,0.11-0.27,0.17-0.41c0.06-0.14,0.13-0.28,0.2-0.41c0.08-0.14,0.16-0.26,0.25-0.36c0.1-0.11,0.22-0.19,0.34-0.25
			c0.12-0.05,0.21-0.08,0.26-0.08c0.07,0,0.16,0.02,0.26,0.07c0.1,0.04,0.2,0.1,0.31,0.17c0.1,0.07,0.2,0.16,0.29,0.26
			c0.09,0.1,0.17,0.2,0.22,0.31c0.11,0.22,0.2,0.45,0.27,0.71c0.07,0.26,0.12,0.5,0.15,0.73c0.03,0.23,0.05,0.44,0.07,0.62
			c0.01,0.18,0.02,0.31,0.03,0.38c0,0.1-0.01,0.18-0.04,0.23c-0.02,0.05-0.07,0.09-0.13,0.13c-0.07,0.03-0.13,0.05-0.18,0.05
			c-0.02,0-0.03,0-0.05,0c-0.06-0.01-0.12-0.04-0.16-0.08c-0.04-0.04-0.07-0.09-0.1-0.14c-0.02-0.05-0.04-0.1-0.05-0.14
			c-0.02-0.18-0.05-0.37-0.08-0.56c-0.03-0.19-0.06-0.38-0.09-0.56c-0.03-0.18-0.07-0.35-0.11-0.5c-0.04-0.16-0.09-0.29-0.14-0.41
			c-0.02-0.03-0.04-0.07-0.08-0.13c-0.04-0.05-0.08-0.1-0.12-0.15c-0.04-0.05-0.09-0.09-0.13-0.12c-0.04-0.03-0.07-0.05-0.08-0.06
			c-0.08,0-0.16,0.07-0.25,0.22c-0.09,0.15-0.17,0.33-0.25,0.53c-0.08,0.21-0.15,0.43-0.22,0.65c-0.07,0.23-0.12,0.42-0.15,0.58
			c0,0.21-0.04,0.36-0.12,0.46c-0.08,0.1-0.16,0.15-0.25,0.15c-0.09,0-0.18-0.03-0.28-0.1c-0.1-0.07-0.17-0.15-0.2-0.23
			c-0.05-0.13-0.1-0.27-0.16-0.43c-0.06-0.16-0.11-0.32-0.17-0.49c-0.06-0.17-0.12-0.33-0.18-0.49c-0.06-0.16-0.12-0.3-0.17-0.43
			c-0.11,0.15-0.22,0.32-0.33,0.5c-0.11,0.18-0.21,0.37-0.31,0.56c-0.1,0.19-0.2,0.38-0.29,0.57c-0.09,0.19-0.18,0.35-0.26,0.5
			c-0.06,0.09-0.12,0.17-0.18,0.23c-0.06,0.07-0.14,0.1-0.23,0.1c-0.06,0-0.13-0.03-0.2-0.09c-0.07-0.06-0.14-0.13-0.2-0.22
			c-0.06-0.09-0.12-0.19-0.17-0.3c-0.05-0.11-0.09-0.22-0.11-0.34c-0.06-0.34-0.12-0.72-0.16-1.13c-0.04-0.41-0.09-0.81-0.13-1.21
			c-0.01-0.14,0.01-0.26,0.05-0.38c0.04-0.12,0.13-0.19,0.26-0.23C11.38,10.06,11.42,10.05,11.45,10.05 M11.45,9.85
			c-0.04,0-0.09,0-0.14,0.01c-0.21,0.06-0.34,0.19-0.41,0.36c-0.05,0.14-0.08,0.3-0.07,0.46c0.04,0.4,0.08,0.8,0.13,1.22
			c0.04,0.42,0.1,0.81,0.16,1.15c0.03,0.13,0.07,0.26,0.13,0.38c0.06,0.12,0.12,0.24,0.19,0.33c0.07,0.1,0.15,0.19,0.24,0.26
			c0.11,0.09,0.22,0.14,0.33,0.14c0.14,0,0.27-0.06,0.37-0.16c0.07-0.08,0.14-0.17,0.2-0.26c0.09-0.16,0.17-0.33,0.27-0.52
			c0.09-0.19,0.19-0.38,0.29-0.57c0.1-0.19,0.2-0.37,0.31-0.55c0.04-0.06,0.08-0.13,0.11-0.19c0.01,0.03,0.02,0.05,0.03,0.08
			c0.06,0.16,0.12,0.32,0.18,0.49l0.13,0.36l0.05,0.13c0.06,0.16,0.11,0.31,0.16,0.44c0.05,0.13,0.14,0.24,0.27,0.33
			c0.13,0.09,0.27,0.14,0.39,0.14c0.15,0,0.29-0.08,0.41-0.22c0.11-0.14,0.16-0.33,0.16-0.59c0.03-0.12,0.08-0.3,0.14-0.53
			c0.07-0.22,0.14-0.44,0.22-0.64c0.07-0.2,0.15-0.37,0.24-0.5c0.02-0.04,0.05-0.07,0.06-0.09c0.03,0.02,0.05,0.05,0.08,0.08
			c0.04,0.04,0.07,0.09,0.1,0.13c0.03,0.04,0.05,0.08,0.06,0.1c0.04,0.1,0.08,0.23,0.12,0.38c0.04,0.15,0.08,0.31,0.11,0.48
			c0.03,0.18,0.06,0.36,0.09,0.55c0.03,0.19,0.05,0.38,0.08,0.56c0.01,0.07,0.03,0.13,0.07,0.2c0.03,0.07,0.08,0.14,0.14,0.19
			c0.07,0.07,0.16,0.11,0.26,0.13l0.02,0l0.06,0c0.08,0,0.17-0.02,0.26-0.06c0.11-0.06,0.19-0.13,0.23-0.23
			c0.04-0.08,0.05-0.18,0.05-0.32c-0.01-0.09-0.02-0.22-0.03-0.39c-0.01-0.18-0.03-0.4-0.07-0.63c-0.03-0.24-0.09-0.5-0.16-0.76
			c-0.07-0.27-0.17-0.52-0.29-0.75c-0.06-0.12-0.15-0.24-0.25-0.35c-0.1-0.11-0.21-0.21-0.33-0.29c-0.12-0.08-0.23-0.14-0.34-0.19
			c-0.13-0.06-0.24-0.08-0.34-0.08c-0.09,0-0.19,0.03-0.34,0.09c-0.15,0.06-0.28,0.16-0.4,0.29c-0.1,0.12-0.19,0.25-0.27,0.4
			c-0.08,0.14-0.15,0.29-0.21,0.43c-0.03,0.07-0.06,0.14-0.08,0.2c-0.06-0.19-0.13-0.37-0.2-0.54c-0.09-0.19-0.19-0.36-0.31-0.5
			c-0.15-0.17-0.32-0.25-0.5-0.25c-0.18,0-0.36,0.1-0.55,0.31c-0.16,0.18-0.31,0.39-0.46,0.63c-0.14,0.24-0.28,0.49-0.41,0.75
			l-0.04,0.07c-0.02-0.17-0.05-0.34-0.07-0.52c-0.02-0.2-0.05-0.4-0.07-0.59c-0.02-0.18-0.03-0.34-0.04-0.47
			c-0.02-0.2-0.09-0.34-0.2-0.44C11.7,9.89,11.59,9.85,11.45,9.85L11.45,9.85z"/>
	</g>
	<g>
		<path class="st0" d="M20.23,13.88c-0.17,0-0.34-0.02-0.51-0.07c-0.29-0.08-0.55-0.23-0.78-0.44c-0.19-0.2-0.34-0.42-0.44-0.68
			c-0.1-0.25-0.16-0.52-0.19-0.79c-0.02-0.26,0-0.51,0.07-0.75c0.07-0.23,0.18-0.45,0.34-0.63c0.15-0.18,0.34-0.33,0.57-0.45
			c0.23-0.12,0.5-0.19,0.8-0.2l0.14,0c0.31,0,0.59,0.07,0.85,0.21c0.3,0.16,0.51,0.39,0.63,0.69c0.07,0.17,0.09,0.33,0.06,0.46
			c-0.03,0.14-0.13,0.26-0.29,0.36c-0.32,0.19-0.67,0.34-1.04,0.44c-0.33,0.09-0.7,0.14-1.08,0.15c0.03,0.21,0.1,0.38,0.21,0.5
			c0.13,0.15,0.29,0.23,0.48,0.26c0.04,0,0.09,0.01,0.14,0.01c0.07,0,0.14-0.01,0.22-0.02c0.12-0.02,0.24-0.06,0.35-0.11
			c0.11-0.05,0.21-0.11,0.3-0.17c0.09-0.06,0.17-0.12,0.24-0.18c0.08-0.07,0.17-0.12,0.27-0.15c0.05-0.01,0.1-0.02,0.14-0.02h0.02
			l0.08,0.02c0.11,0.04,0.23,0.15,0.18,0.47c-0.14,0.3-0.34,0.53-0.59,0.72c-0.25,0.19-0.53,0.31-0.85,0.36
			C20.45,13.87,20.34,13.88,20.23,13.88z M20.29,10.74c-0.08,0-0.15,0.01-0.23,0.02c-0.07,0.01-0.15,0.04-0.24,0.08
			c-0.08,0.04-0.16,0.08-0.23,0.14c-0.07,0.06-0.13,0.12-0.19,0.19c-0.02,0.03-0.04,0.06-0.05,0.09c0.1,0,0.2-0.02,0.31-0.03
			c0.16-0.02,0.32-0.05,0.47-0.09c0.15-0.04,0.29-0.08,0.42-0.12c0.09-0.03,0.16-0.07,0.23-0.1c-0.05-0.08-0.13-0.12-0.24-0.15
			C20.47,10.75,20.38,10.74,20.29,10.74z"/>
		<path class="st1" d="M20.23,9.95c0.29,0,0.56,0.07,0.8,0.2c0.28,0.15,0.48,0.36,0.59,0.64c0.06,0.15,0.08,0.28,0.05,0.4
			c-0.03,0.11-0.11,0.21-0.25,0.3c-0.31,0.18-0.65,0.33-1.01,0.43c-0.36,0.1-0.75,0.15-1.16,0.15c0.02,0.28,0.1,0.5,0.24,0.67
			c0.14,0.16,0.32,0.26,0.54,0.29c0.05,0.01,0.1,0.01,0.16,0.01c0.08,0,0.16-0.01,0.23-0.02c0.13-0.02,0.26-0.06,0.37-0.11
			c0.12-0.05,0.22-0.11,0.32-0.17c0.1-0.06,0.18-0.13,0.25-0.19c0.07-0.06,0.15-0.11,0.23-0.13c0.04-0.01,0.08-0.02,0.11-0.02
			c0.03,0,0.05,0,0.06,0.01c0.11,0.04,0.15,0.16,0.12,0.36c-0.13,0.26-0.31,0.47-0.55,0.65c-0.24,0.18-0.51,0.29-0.8,0.34
			c-0.1,0.02-0.21,0.03-0.31,0.03c-0.16,0-0.32-0.02-0.48-0.06c-0.27-0.07-0.52-0.21-0.73-0.42c-0.18-0.18-0.32-0.4-0.42-0.65
			c-0.1-0.25-0.16-0.5-0.18-0.77c-0.02-0.25,0-0.48,0.07-0.71c0.07-0.22,0.17-0.42,0.32-0.59c0.14-0.17,0.32-0.31,0.54-0.43
			c0.22-0.11,0.47-0.18,0.76-0.19C20.14,9.95,20.19,9.95,20.23,9.95 M19.23,11.36c0.14,0,0.29-0.01,0.45-0.04
			c0.16-0.02,0.32-0.05,0.48-0.09c0.16-0.04,0.3-0.08,0.43-0.13c0.13-0.05,0.24-0.1,0.33-0.16c-0.06-0.15-0.18-0.25-0.35-0.28
			c-0.09-0.02-0.18-0.03-0.28-0.03c-0.08,0-0.16,0.01-0.25,0.02c-0.08,0.02-0.17,0.04-0.26,0.08c-0.09,0.04-0.18,0.09-0.25,0.15
			s-0.14,0.13-0.2,0.2C19.27,11.18,19.24,11.26,19.23,11.36 M20.23,9.75c-0.05,0-0.1,0-0.15,0.01c-0.31,0.02-0.6,0.09-0.83,0.21
			c-0.24,0.12-0.44,0.28-0.6,0.47c-0.16,0.19-0.28,0.42-0.36,0.67c-0.07,0.25-0.1,0.51-0.07,0.78c0.03,0.28,0.09,0.56,0.19,0.82
			c0.11,0.27,0.26,0.51,0.47,0.72c0.24,0.23,0.52,0.39,0.82,0.47c0.18,0.05,0.36,0.07,0.53,0.07c0.12,0,0.23-0.01,0.35-0.03
			c0.32-0.05,0.62-0.18,0.89-0.38c0.26-0.2,0.47-0.44,0.61-0.72l0.01-0.03l0-0.03c0.06-0.4-0.13-0.54-0.25-0.58
			c-0.04-0.01-0.08-0.02-0.13-0.02c-0.05,0-0.1,0.01-0.16,0.02c-0.11,0.03-0.22,0.08-0.31,0.17c-0.07,0.06-0.14,0.12-0.23,0.18
			c-0.09,0.06-0.18,0.11-0.29,0.16c-0.1,0.05-0.21,0.08-0.33,0.1c-0.07,0.01-0.13,0.02-0.2,0.02c-0.04,0-0.09,0-0.13-0.01
			c-0.16-0.02-0.3-0.1-0.41-0.23c-0.08-0.09-0.13-0.2-0.16-0.34c0.35-0.02,0.68-0.07,0.99-0.15c0.38-0.1,0.73-0.25,1.06-0.45
			c0.19-0.12,0.3-0.26,0.34-0.43c0.04-0.15,0.02-0.33-0.06-0.52c-0.13-0.31-0.36-0.56-0.68-0.73C20.86,9.82,20.56,9.75,20.23,9.75
			L20.23,9.75z M19.57,11.14c0.03-0.03,0.06-0.06,0.09-0.08c0.06-0.05,0.13-0.09,0.21-0.12c0.08-0.03,0.15-0.06,0.22-0.07
			c0.07-0.01,0.14-0.02,0.21-0.02c0.08,0,0.16,0.01,0.23,0.02c0.03,0.01,0.05,0.01,0.08,0.02c-0.03,0.01-0.05,0.02-0.08,0.03
			c-0.12,0.05-0.26,0.08-0.41,0.12c-0.15,0.03-0.31,0.06-0.46,0.09C19.63,11.13,19.6,11.13,19.57,11.14L19.57,11.14z"/>
	</g>
</g>
</svg>
