<?xml version="1.0" encoding="utf-8"?>
<!-- Generator: Adobe Illustrator 23.0.2, SVG Export Plug-In . SVG Version: 6.00 Build 0)  -->
<svg version="1.1" id="Layer_1" xmlns="http://www.w3.org/2000/svg" xmlns:xlink="http://www.w3.org/1999/xlink" x="0px" y="0px"
	 viewBox="0 0 21.71 12.45" style="enable-background:new 0 0 21.71 12.45;" xml:space="preserve">
<style type="text/css">
	.st0{fill:#FF0007;stroke:#000000;stroke-width:0.3;stroke-miterlimit:10;}
</style>
<path class="st0" d="M2.47,3.12c-0.04,0-0.09-0.01-0.15-0.02S2.2,3.07,2.15,3.04C2.1,3.01,2.05,2.98,2.01,2.93
	C1.97,2.89,1.95,2.84,1.95,2.8c0-0.06,0.04-0.14,0.11-0.23c0.08-0.09,0.2-0.16,0.38-0.21C2.68,2.3,2.93,2.26,3.2,2.25
	c0.26-0.01,0.53-0.01,0.79,0S4.51,2.28,4.77,2.3s0.5,0.03,0.72,0.04c0.13,0,0.21,0.02,0.25,0.07S5.8,2.52,5.8,2.58
	c0,0.14-0.06,0.26-0.19,0.34C5.48,3,5.35,3.03,5.23,3.02c-0.14,0-0.28-0.01-0.43-0.01c-0.15,0-0.3,0-0.46,0
	c0,0.22,0.01,0.47,0.03,0.75S4.41,4.32,4.43,4.6c0.02,0.28,0.05,0.55,0.08,0.8c0.03,0.26,0.05,0.47,0.08,0.65
	c0.02,0.06,0,0.12-0.04,0.17S4.44,6.3,4.35,6.3c-0.17,0-0.29-0.1-0.37-0.31C3.83,5.6,3.72,5.15,3.65,4.64
	C3.22,4.91,2.8,5.07,2.38,5.14C1.97,5.2,1.59,5.19,1.26,5.09C0.93,5,0.66,4.84,0.46,4.61s-0.31-0.5-0.31-0.83
	c0-0.31,0.06-0.65,0.17-1.01S0.59,2.06,0.8,1.73s0.45-0.64,0.74-0.92c0.28-0.28,0.6-0.49,0.95-0.63c0.12-0.03,0.23-0.04,0.34-0.02
	s0.21,0.06,0.3,0.12C3.22,0.34,3.31,0.41,3.38,0.5c0.08,0.08,0.14,0.17,0.2,0.25C3.62,0.8,3.65,0.86,3.65,0.92
	C3.66,0.99,3.64,1.05,3.58,1.1C3.46,1.19,3.36,1.18,3.27,1.08C3.13,0.91,3.02,0.81,2.93,0.77s-0.22,0-0.38,0.1
	C2.39,0.99,2.21,1.16,2.02,1.39S1.65,1.87,1.49,2.14C1.32,2.42,1.19,2.7,1.1,2.99C1,3.29,0.97,3.56,1,3.8
	c0.02,0.22,0.14,0.37,0.36,0.46C1.58,4.36,1.82,4.4,2.1,4.39s0.55-0.06,0.83-0.16s0.49-0.22,0.64-0.38
	C3.56,3.72,3.55,3.58,3.55,3.44C3.54,3.3,3.53,3.16,3.53,3.02C3.36,3.04,3.18,3.05,3.01,3.07C2.83,3.08,2.65,3.1,2.47,3.12z"/>
<path class="st0" d="M9.41,1.85c0.03,0.22,0.06,0.46,0.08,0.71s0.04,0.51,0.05,0.76c0.01,0.26,0.02,0.5,0.02,0.74
	c0,0.24,0,0.46-0.01,0.65c0.26,0.18,0.41,0.33,0.46,0.47s0.06,0.26,0.02,0.36C9.98,5.69,9.89,5.76,9.77,5.77
	c-0.12,0-0.27-0.04-0.43-0.13C9.23,5.72,9.1,5.81,8.96,5.9C8.81,5.99,8.66,6.08,8.5,6.16C8.34,6.25,8.18,6.32,8.02,6.38
	C7.86,6.45,7.71,6.49,7.58,6.52C7.32,6.56,7.09,6.51,6.89,6.37c-0.2-0.14-0.34-0.34-0.41-0.61C6.43,5.58,6.41,5.39,6.44,5.19
	c0.02-0.2,0.08-0.38,0.18-0.56s0.23-0.34,0.39-0.49C7.17,4,7.37,3.88,7.59,3.8c0.06-0.02,0.13-0.04,0.23-0.06s0.2-0.02,0.31-0.02
	s0.22,0.03,0.33,0.07C8.58,3.83,8.68,3.9,8.78,4c0-0.14,0-0.29-0.01-0.45c0-0.16-0.01-0.33-0.02-0.5c0-0.17-0.01-0.33-0.03-0.48
	C8.71,2.43,8.7,2.3,8.68,2.2C8.67,2.08,8.62,2,8.54,1.97C8.47,1.95,8.37,1.95,8.26,1.99C8.07,2.06,7.85,2.18,7.59,2.36
	s-0.5,0.38-0.73,0.59c-0.07,0.07-0.15,0.1-0.25,0.1C6.52,3.04,6.44,3,6.38,2.94C6.31,2.88,6.28,2.8,6.27,2.72s0.02-0.17,0.1-0.27
	C6.5,2.3,6.65,2.16,6.82,2c0.17-0.15,0.34-0.29,0.53-0.41c0.18-0.12,0.37-0.23,0.56-0.31C8.11,1.2,8.3,1.16,8.49,1.15
	c0.28-0.01,0.5,0.05,0.65,0.19C9.29,1.47,9.38,1.64,9.41,1.85z M8.02,4.43C7.92,4.45,7.81,4.5,7.69,4.58
	C7.58,4.65,7.47,4.75,7.38,4.85c-0.09,0.11-0.16,0.23-0.2,0.36C7.13,5.35,7.13,5.48,7.17,5.6c0.02,0.05,0.05,0.08,0.1,0.11
	c0.05,0.02,0.11,0.03,0.17,0.01c0.2-0.04,0.42-0.11,0.66-0.23c0.24-0.12,0.44-0.24,0.58-0.38c0-0.05-0.02-0.11-0.07-0.19
	S8.51,4.77,8.44,4.7S8.31,4.56,8.23,4.5C8.16,4.44,8.09,4.42,8.02,4.43z"/>
<path class="st0" d="M11.44,2.41c0.01,0.13,0.02,0.29,0.04,0.47s0.04,0.38,0.07,0.59c0.03,0.2,0.05,0.41,0.08,0.61
	c0.03,0.2,0.05,0.38,0.08,0.55c0.09-0.18,0.2-0.39,0.32-0.65c0.13-0.26,0.26-0.5,0.4-0.74c0.14-0.24,0.28-0.44,0.43-0.6
	c0.15-0.16,0.28-0.25,0.4-0.25c0.13,0,0.25,0.06,0.35,0.19c0.11,0.12,0.2,0.27,0.28,0.45s0.15,0.36,0.21,0.56s0.11,0.38,0.15,0.53
	c0.03-0.1,0.07-0.22,0.13-0.35c0.05-0.13,0.11-0.27,0.17-0.41s0.13-0.28,0.2-0.41c0.08-0.14,0.16-0.26,0.25-0.36
	c0.1-0.11,0.22-0.19,0.34-0.25s0.21-0.08,0.26-0.08c0.07,0,0.16,0.02,0.26,0.07c0.1,0.04,0.2,0.1,0.31,0.17
	c0.1,0.07,0.2,0.16,0.29,0.26s0.17,0.2,0.22,0.31c0.11,0.22,0.2,0.45,0.27,0.71c0.07,0.26,0.12,0.5,0.15,0.73s0.05,0.44,0.07,0.62
	c0.01,0.18,0.02,0.31,0.03,0.38c0,0.1-0.01,0.18-0.04,0.23c-0.02,0.05-0.07,0.09-0.13,0.13c-0.09,0.04-0.16,0.05-0.23,0.04
	c-0.06-0.01-0.12-0.04-0.16-0.08s-0.07-0.09-0.1-0.14c-0.02-0.05-0.04-0.1-0.05-0.14c-0.02-0.18-0.05-0.37-0.08-0.56
	s-0.06-0.38-0.09-0.56s-0.07-0.35-0.11-0.5c-0.04-0.16-0.09-0.29-0.14-0.41c-0.02-0.03-0.04-0.07-0.08-0.13
	c-0.04-0.05-0.08-0.1-0.12-0.15c-0.04-0.05-0.09-0.09-0.13-0.12s-0.07-0.05-0.08-0.06c-0.08,0-0.16,0.07-0.25,0.22
	s-0.17,0.33-0.25,0.53c-0.08,0.21-0.15,0.43-0.22,0.65c-0.07,0.23-0.12,0.42-0.15,0.58c0,0.21-0.04,0.36-0.12,0.46
	s-0.16,0.15-0.25,0.15s-0.18-0.03-0.28-0.1c-0.1-0.07-0.17-0.15-0.2-0.23c-0.05-0.13-0.1-0.27-0.16-0.43
	c-0.06-0.16-0.11-0.32-0.17-0.49s-0.12-0.33-0.18-0.49c-0.06-0.16-0.12-0.3-0.17-0.43c-0.11,0.15-0.22,0.32-0.33,0.5
	s-0.21,0.37-0.31,0.56s-0.2,0.38-0.29,0.57s-0.18,0.35-0.26,0.5c-0.06,0.09-0.12,0.17-0.18,0.23s-0.14,0.1-0.23,0.1
	c-0.06,0-0.13-0.03-0.21-0.09c-0.07-0.06-0.14-0.13-0.2-0.22c-0.06-0.09-0.12-0.19-0.17-0.3C11.04,5.23,11,5.12,10.97,5
	c-0.06-0.34-0.12-0.72-0.16-1.13s-0.09-0.81-0.13-1.21c-0.01-0.14,0.01-0.26,0.05-0.38c0.04-0.12,0.13-0.19,0.26-0.23
	c0.14-0.02,0.24,0,0.31,0.06C11.38,2.18,11.43,2.28,11.44,2.41z"/>
<path class="st0" d="M21.08,3.47c-0.31,0.18-0.65,0.33-1.01,0.43s-0.75,0.15-1.16,0.15c0.02,0.28,0.1,0.5,0.24,0.67
	c0.14,0.16,0.32,0.26,0.54,0.29c0.13,0.02,0.26,0.01,0.39-0.01c0.13-0.02,0.26-0.06,0.37-0.11c0.12-0.05,0.22-0.11,0.32-0.17
	s0.18-0.13,0.25-0.19s0.15-0.11,0.23-0.13s0.14-0.02,0.18-0.01c0.11,0.04,0.15,0.16,0.12,0.36C21.42,5,21.23,5.21,20.99,5.39
	s-0.51,0.29-0.8,0.34c-0.26,0.05-0.52,0.04-0.79-0.04c-0.27-0.07-0.52-0.21-0.73-0.42c-0.18-0.18-0.32-0.4-0.42-0.65
	s-0.16-0.5-0.18-0.77c-0.02-0.25,0-0.48,0.07-0.71c0.07-0.22,0.17-0.42,0.32-0.59C18.6,2.38,18.78,2.24,19,2.12
	c0.22-0.11,0.47-0.18,0.76-0.19c0.34-0.02,0.66,0.04,0.94,0.19s0.48,0.36,0.59,0.64c0.06,0.15,0.08,0.28,0.05,0.4
	C21.3,3.28,21.21,3.38,21.08,3.47z M19.7,2.65c-0.08,0.02-0.17,0.04-0.26,0.08s-0.18,0.09-0.25,0.15s-0.14,0.13-0.2,0.2
	c-0.06,0.08-0.09,0.16-0.1,0.26c0.14,0,0.29-0.01,0.45-0.04c0.16-0.02,0.32-0.05,0.48-0.09s0.3-0.08,0.43-0.13
	c0.13-0.05,0.24-0.1,0.33-0.16c-0.06-0.15-0.18-0.25-0.35-0.28C20.05,2.62,19.87,2.62,19.7,2.65z"/>
<path class="st0" d="M6.3,9.85c-0.05,0.22-0.13,0.44-0.26,0.64s-0.27,0.39-0.43,0.57c-0.16,0.18-0.33,0.33-0.52,0.46
	s-0.38,0.23-0.57,0.3c-0.35,0.13-0.7,0.17-1.05,0.13s-0.66-0.2-0.93-0.47c-0.17-0.23-0.3-0.48-0.38-0.76s-0.11-0.57-0.11-0.86
	s0.04-0.57,0.12-0.85c0.08-0.27,0.17-0.51,0.3-0.73c0.14-0.26,0.32-0.47,0.52-0.64s0.42-0.27,0.66-0.3c0.06-0.02,0.12,0,0.16,0.05
	c0.04,0.05,0.06,0.1,0.06,0.17c0.08-0.08,0.2-0.14,0.37-0.18S4.6,7.34,4.8,7.37c0.38,0.05,0.69,0.16,0.91,0.35
	c0.22,0.18,0.39,0.4,0.5,0.64s0.16,0.5,0.17,0.77C6.38,9.4,6.35,9.64,6.3,9.85z M3.69,8.2C3.53,8.27,3.4,8.38,3.29,8.52
	c-0.11,0.14-0.2,0.3-0.26,0.47C2.95,9.17,2.91,9.36,2.89,9.56c-0.02,0.2-0.02,0.4-0.01,0.59c0.02,0.28,0.11,0.51,0.25,0.69
	s0.37,0.27,0.67,0.27c0.18,0,0.35-0.03,0.52-0.1c0.17-0.07,0.33-0.16,0.47-0.27c0.14-0.11,0.28-0.25,0.4-0.4
	c0.12-0.16,0.22-0.32,0.29-0.49c0.04-0.09,0.07-0.2,0.1-0.33C5.6,9.39,5.61,9.25,5.6,9.11c-0.01-0.14-0.04-0.27-0.1-0.4
	C5.46,8.59,5.37,8.48,5.25,8.39C5.08,8.27,4.88,8.2,4.65,8.17C4.42,8.15,4.17,8.2,3.92,8.33c-0.05,0.03-0.1,0.04-0.16,0.02
	S3.67,8.28,3.69,8.2z"/>
<path class="st0" d="M11.39,8.03c-0.13,0.22-0.26,0.43-0.38,0.64c-0.13,0.21-0.27,0.45-0.41,0.71s-0.32,0.58-0.51,0.93
	c-0.19,0.35-0.42,0.78-0.67,1.28c-0.06,0.12-0.13,0.22-0.19,0.29C9.17,11.95,9.09,11.99,9,11.99c-0.12,0-0.21-0.03-0.28-0.1
	s-0.13-0.14-0.17-0.22c-0.26-0.44-0.52-0.93-0.78-1.46C7.5,9.67,7.29,9.14,7.13,8.63C7.12,8.59,7.12,8.54,7.14,8.49
	s0.05-0.09,0.09-0.1c0.08-0.04,0.18-0.04,0.31-0.01c0.1,0.04,0.19,0.11,0.29,0.22C7.93,8.7,8,8.81,8.06,8.92
	c0.05,0.11,0.1,0.24,0.17,0.38c0.06,0.14,0.13,0.3,0.21,0.46s0.15,0.33,0.23,0.49s0.16,0.3,0.24,0.43c0.14-0.24,0.28-0.5,0.44-0.77
	C9.5,9.63,9.66,9.35,9.82,9.07c0.16-0.28,0.32-0.56,0.49-0.82c0.16-0.26,0.33-0.5,0.49-0.71c0.04-0.06,0.1-0.09,0.17-0.1
	s0.15,0.02,0.24,0.08C11.4,7.68,11.47,7.85,11.39,8.03z"/>
<path class="st0" d="M15.1,9.57C14.79,9.75,14.45,9.9,14.09,10s-0.75,0.15-1.16,0.15c0.02,0.28,0.1,0.5,0.24,0.67
	c0.14,0.16,0.32,0.26,0.54,0.29c0.13,0.02,0.26,0.01,0.39-0.01s0.26-0.06,0.37-0.11c0.12-0.05,0.22-0.11,0.32-0.17
	s0.18-0.13,0.25-0.19s0.15-0.11,0.23-0.13s0.14-0.02,0.18-0.01c0.11,0.04,0.15,0.16,0.12,0.36c-0.13,0.26-0.31,0.47-0.55,0.65
	s-0.51,0.29-0.8,0.34c-0.26,0.05-0.52,0.04-0.79-0.04c-0.27-0.07-0.52-0.21-0.73-0.42c-0.18-0.18-0.32-0.4-0.42-0.65
	s-0.16-0.5-0.18-0.77c-0.02-0.25,0-0.48,0.07-0.71c0.07-0.22,0.17-0.42,0.32-0.59c0.14-0.17,0.32-0.31,0.54-0.43
	c0.22-0.11,0.47-0.18,0.76-0.19c0.34-0.02,0.66,0.04,0.94,0.19s0.48,0.36,0.59,0.64c0.06,0.15,0.08,0.28,0.05,0.4
	C15.32,9.38,15.24,9.48,15.1,9.57z M13.72,8.75c-0.08,0.02-0.17,0.04-0.26,0.08s-0.18,0.09-0.25,0.15s-0.14,0.13-0.2,0.2
	c-0.06,0.08-0.09,0.16-0.1,0.26c0.14,0,0.29-0.01,0.45-0.04s0.32-0.05,0.48-0.09s0.3-0.08,0.43-0.13s0.24-0.1,0.33-0.16
	c-0.06-0.15-0.18-0.25-0.35-0.28C14.07,8.72,13.9,8.72,13.72,8.75z"/>
<path class="st0" d="M20,8.25c-0.14,0.08-0.29,0.16-0.45,0.25s-0.31,0.19-0.47,0.31c-0.16,0.12-0.3,0.25-0.44,0.41
	c-0.14,0.16-0.27,0.34-0.38,0.56c-0.16,0.3-0.27,0.61-0.32,0.93c-0.06,0.32-0.09,0.63-0.11,0.93c0,0.14-0.03,0.29-0.1,0.44
	s-0.16,0.22-0.28,0.22c-0.15,0-0.27-0.08-0.37-0.23c-0.09-0.16-0.15-0.31-0.19-0.45c-0.14-0.57-0.25-1.13-0.34-1.69
	s-0.16-1.11-0.23-1.66c0-0.11,0.03-0.18,0.1-0.22C16.5,8.01,16.57,8,16.66,8.01c0.1,0.01,0.19,0.03,0.28,0.07s0.14,0.1,0.16,0.19
	c0.03,0.3,0.07,0.61,0.12,0.93c0.05,0.32,0.1,0.6,0.14,0.83c0.03-0.27,0.12-0.54,0.26-0.79c0.14-0.26,0.32-0.49,0.53-0.7
	s0.45-0.38,0.72-0.53c0.27-0.14,0.54-0.24,0.82-0.29c0.12-0.02,0.22-0.02,0.3,0s0.14,0.04,0.17,0.08s0.04,0.1,0.02,0.19
	C20.16,8.09,20.1,8.17,20,8.25z"/>
</svg>
