<?xml version="1.0" encoding="utf-8"?>
<!-- Generator: Adobe Illustrator 23.0.2, SVG Export Plug-In . SVG Version: 6.00 Build 0)  -->
<svg version="1.1" id="Layer_1" xmlns="http://www.w3.org/2000/svg" xmlns:xlink="http://www.w3.org/1999/xlink" x="0px" y="0px"
	 viewBox="0 0 33.72 19.98" style="enable-background:new 0 0 33.72 19.98;" xml:space="preserve">
<style type="text/css">
	.st0{fill:#FF0007;stroke:#000000;stroke-width:0.3;stroke-miterlimit:10;}
	.st1{stroke:#000000;stroke-width:0.1;stroke-miterlimit:10;}
	.st2{fill:none;stroke:#000000;stroke-width:0.6;stroke-linecap:round;stroke-linejoin:round;stroke-miterlimit:10;}
	.st3{stroke:#000000;stroke-width:0.6;stroke-linecap:round;stroke-linejoin:round;stroke-miterlimit:10;}
</style>
<path class="st0" d="M2.47,3.12c-0.04,0-0.09-0.01-0.15-0.02S2.2,3.07,2.15,3.04C2.1,3.01,2.05,2.98,2.01,2.93
	C1.97,2.89,1.95,2.84,1.95,2.8c0-0.06,0.04-0.14,0.11-0.23c0.08-0.09,0.2-0.16,0.38-0.21C2.68,2.3,2.93,2.26,3.2,2.25
	c0.26-0.01,0.53-0.01,0.79,0C4.25,2.26,4.51,2.28,4.77,2.3c0.26,0.02,0.5,0.03,0.72,0.04c0.13,0,0.21,0.02,0.25,0.07
	S5.8,2.52,5.8,2.58c0,0.14-0.06,0.26-0.19,0.34C5.48,3,5.35,3.03,5.23,3.02C5.09,3.02,4.95,3.01,4.8,3.01c-0.15,0-0.3,0-0.46,0
	c0,0.22,0.01,0.47,0.03,0.75S4.41,4.32,4.43,4.6c0.02,0.28,0.05,0.55,0.08,0.8c0.03,0.26,0.05,0.47,0.08,0.65
	c0.02,0.06,0,0.12-0.04,0.17S4.44,6.3,4.35,6.3c-0.17,0-0.29-0.1-0.37-0.31C3.83,5.6,3.72,5.15,3.65,4.64
	C3.22,4.91,2.8,5.07,2.38,5.14C1.97,5.2,1.59,5.19,1.26,5.09C0.93,5,0.66,4.84,0.46,4.61S0.15,4.11,0.15,3.78
	c0-0.31,0.06-0.65,0.17-1.01C0.43,2.41,0.59,2.06,0.8,1.73s0.45-0.64,0.74-0.92c0.28-0.28,0.6-0.49,0.95-0.63
	c0.12-0.03,0.23-0.04,0.34-0.02s0.21,0.06,0.3,0.12C3.22,0.34,3.31,0.41,3.38,0.5c0.08,0.08,0.14,0.17,0.2,0.25
	C3.62,0.8,3.65,0.86,3.65,0.92C3.66,0.99,3.64,1.05,3.58,1.1C3.46,1.19,3.36,1.18,3.27,1.08C3.13,0.91,3.02,0.81,2.93,0.77
	c-0.09-0.04-0.22,0-0.38,0.1C2.39,0.99,2.21,1.16,2.02,1.39S1.65,1.87,1.49,2.14C1.32,2.42,1.19,2.7,1.1,2.99
	C1,3.29,0.97,3.56,1,3.8c0.02,0.22,0.14,0.37,0.36,0.46C1.58,4.36,1.82,4.4,2.1,4.39c0.28-0.01,0.55-0.06,0.83-0.16
	c0.28-0.1,0.49-0.22,0.64-0.38C3.56,3.72,3.55,3.58,3.55,3.44C3.54,3.3,3.53,3.16,3.53,3.02C3.36,3.04,3.18,3.05,3.01,3.07
	C2.83,3.08,2.65,3.1,2.47,3.12z"/>
<path class="st0" d="M9.41,1.85c0.03,0.22,0.06,0.46,0.08,0.71s0.04,0.51,0.05,0.76c0.01,0.26,0.02,0.5,0.02,0.74
	c0,0.24,0,0.46-0.01,0.65c0.26,0.18,0.41,0.33,0.46,0.47c0.05,0.14,0.06,0.26,0.02,0.36C9.98,5.69,9.89,5.76,9.77,5.77
	c-0.12,0-0.27-0.04-0.43-0.13C9.23,5.72,9.1,5.81,8.96,5.9C8.81,5.99,8.66,6.08,8.5,6.16C8.34,6.25,8.18,6.32,8.02,6.38
	C7.86,6.45,7.71,6.49,7.58,6.52C7.32,6.56,7.09,6.51,6.89,6.37c-0.2-0.14-0.34-0.34-0.41-0.61C6.43,5.58,6.41,5.39,6.44,5.19
	c0.02-0.2,0.08-0.38,0.18-0.56c0.1-0.18,0.23-0.34,0.39-0.49C7.17,4,7.37,3.88,7.59,3.8c0.06-0.02,0.13-0.04,0.23-0.06
	s0.2-0.02,0.31-0.02s0.22,0.03,0.33,0.07C8.58,3.83,8.68,3.9,8.78,4c0-0.14,0-0.29-0.01-0.45c0-0.16-0.01-0.33-0.02-0.5
	C8.75,2.88,8.74,2.72,8.72,2.57C8.71,2.43,8.7,2.3,8.68,2.2C8.67,2.08,8.62,2,8.54,1.97C8.47,1.95,8.37,1.95,8.26,1.99
	C8.07,2.06,7.85,2.18,7.59,2.36s-0.5,0.38-0.73,0.59c-0.07,0.07-0.15,0.1-0.25,0.1C6.52,3.04,6.44,3,6.38,2.94
	C6.31,2.88,6.28,2.8,6.27,2.72c-0.01-0.08,0.02-0.17,0.1-0.27C6.5,2.3,6.65,2.16,6.82,2c0.17-0.15,0.34-0.29,0.53-0.41
	c0.18-0.12,0.37-0.23,0.56-0.31C8.11,1.2,8.3,1.16,8.49,1.15c0.28-0.01,0.5,0.05,0.65,0.19C9.29,1.47,9.38,1.64,9.41,1.85z
	 M8.02,4.43C7.92,4.45,7.81,4.5,7.69,4.58C7.58,4.65,7.47,4.75,7.38,4.85c-0.09,0.11-0.16,0.23-0.2,0.36
	C7.13,5.35,7.13,5.48,7.17,5.6c0.02,0.05,0.05,0.08,0.1,0.11c0.05,0.02,0.11,0.03,0.17,0.01C7.64,5.68,7.86,5.61,8.1,5.49
	c0.24-0.12,0.44-0.24,0.58-0.38c0-0.05-0.02-0.11-0.07-0.19S8.51,4.77,8.44,4.7S8.31,4.56,8.23,4.5C8.16,4.44,8.09,4.42,8.02,4.43z"
	/>
<path class="st0" d="M11.44,2.41c0.01,0.13,0.02,0.29,0.04,0.47s0.04,0.38,0.07,0.59c0.03,0.2,0.05,0.41,0.08,0.61
	c0.03,0.2,0.05,0.38,0.08,0.55c0.09-0.18,0.2-0.39,0.32-0.65c0.13-0.26,0.26-0.5,0.4-0.74c0.14-0.24,0.28-0.44,0.43-0.6
	c0.15-0.16,0.28-0.25,0.4-0.25c0.13,0,0.25,0.06,0.35,0.19c0.11,0.12,0.2,0.27,0.28,0.45s0.15,0.36,0.21,0.56
	c0.06,0.2,0.11,0.38,0.15,0.53c0.03-0.1,0.07-0.22,0.13-0.35c0.05-0.13,0.11-0.27,0.17-0.41c0.06-0.14,0.13-0.28,0.2-0.41
	c0.08-0.14,0.16-0.26,0.25-0.36c0.1-0.11,0.22-0.19,0.34-0.25s0.21-0.08,0.26-0.08c0.07,0,0.16,0.02,0.26,0.07
	c0.1,0.04,0.2,0.1,0.31,0.17c0.1,0.07,0.2,0.16,0.29,0.26c0.09,0.1,0.17,0.2,0.22,0.31c0.11,0.22,0.2,0.45,0.27,0.71
	c0.07,0.26,0.12,0.5,0.15,0.73s0.05,0.44,0.07,0.62c0.01,0.18,0.02,0.31,0.03,0.38c0,0.1-0.01,0.18-0.04,0.23
	c-0.02,0.05-0.07,0.09-0.13,0.13c-0.09,0.04-0.16,0.05-0.23,0.04c-0.06-0.01-0.12-0.04-0.16-0.08s-0.07-0.09-0.1-0.14
	c-0.02-0.05-0.04-0.1-0.05-0.14c-0.02-0.18-0.05-0.37-0.08-0.56c-0.03-0.19-0.06-0.38-0.09-0.56c-0.03-0.18-0.07-0.35-0.11-0.5
	c-0.04-0.16-0.09-0.29-0.14-0.41c-0.02-0.03-0.04-0.07-0.08-0.13c-0.04-0.05-0.08-0.1-0.12-0.15c-0.04-0.05-0.09-0.09-0.13-0.12
	c-0.04-0.03-0.07-0.05-0.08-0.06c-0.08,0-0.16,0.07-0.25,0.22c-0.09,0.15-0.17,0.33-0.25,0.53c-0.08,0.21-0.15,0.43-0.22,0.65
	c-0.07,0.23-0.12,0.42-0.15,0.58c0,0.21-0.04,0.36-0.12,0.46s-0.16,0.15-0.25,0.15s-0.18-0.03-0.28-0.1
	c-0.1-0.07-0.17-0.15-0.2-0.23c-0.05-0.13-0.1-0.27-0.16-0.43c-0.06-0.16-0.11-0.32-0.17-0.49c-0.06-0.17-0.12-0.33-0.18-0.49
	c-0.06-0.16-0.12-0.3-0.17-0.43c-0.11,0.15-0.22,0.32-0.33,0.5c-0.11,0.18-0.21,0.37-0.31,0.56c-0.1,0.19-0.2,0.38-0.29,0.57
	c-0.09,0.19-0.18,0.35-0.26,0.5c-0.06,0.09-0.12,0.17-0.18,0.23s-0.14,0.1-0.23,0.1c-0.06,0-0.13-0.03-0.21-0.09
	c-0.07-0.06-0.14-0.13-0.2-0.22c-0.06-0.09-0.12-0.19-0.17-0.3C11.04,5.23,11,5.12,10.97,5c-0.06-0.34-0.12-0.72-0.16-1.13
	s-0.09-0.81-0.13-1.21c-0.01-0.14,0.01-0.26,0.05-0.38c0.04-0.12,0.13-0.19,0.26-0.23c0.14-0.02,0.24,0,0.31,0.06
	C11.38,2.18,11.43,2.28,11.44,2.41z"/>
<path class="st0" d="M21.08,3.47c-0.31,0.18-0.65,0.33-1.01,0.43c-0.36,0.1-0.75,0.15-1.16,0.15c0.02,0.28,0.1,0.5,0.24,0.67
	c0.14,0.16,0.32,0.26,0.54,0.29c0.13,0.02,0.26,0.01,0.39-0.01c0.13-0.02,0.26-0.06,0.37-0.11c0.12-0.05,0.22-0.11,0.32-0.17
	s0.18-0.13,0.25-0.19s0.15-0.11,0.23-0.13c0.08-0.02,0.14-0.02,0.18-0.01c0.11,0.04,0.15,0.16,0.12,0.36
	C21.42,5,21.23,5.21,20.99,5.39c-0.24,0.18-0.51,0.29-0.8,0.34c-0.26,0.05-0.52,0.04-0.79-0.04c-0.27-0.07-0.52-0.21-0.73-0.42
	c-0.18-0.18-0.32-0.4-0.42-0.65c-0.1-0.25-0.16-0.5-0.18-0.77c-0.02-0.25,0-0.48,0.07-0.71c0.07-0.22,0.17-0.42,0.32-0.59
	c0.14-0.17,0.32-0.31,0.54-0.43c0.22-0.11,0.47-0.18,0.76-0.19c0.34-0.02,0.66,0.04,0.94,0.19s0.48,0.36,0.59,0.64
	c0.06,0.15,0.08,0.28,0.05,0.4C21.3,3.28,21.21,3.38,21.08,3.47z M19.7,2.65c-0.08,0.02-0.17,0.04-0.26,0.08s-0.18,0.09-0.25,0.15
	s-0.14,0.13-0.2,0.2c-0.06,0.08-0.09,0.16-0.1,0.26c0.14,0,0.29-0.01,0.45-0.04c0.16-0.02,0.32-0.05,0.48-0.09s0.3-0.08,0.43-0.13
	c0.13-0.05,0.24-0.1,0.33-0.16c-0.06-0.15-0.18-0.25-0.35-0.28C20.05,2.62,19.87,2.62,19.7,2.65z"/>
<path class="st0" d="M6.3,9.85c-0.05,0.22-0.13,0.44-0.26,0.64s-0.27,0.39-0.43,0.57c-0.16,0.18-0.33,0.33-0.52,0.46
	s-0.38,0.23-0.57,0.3c-0.35,0.13-0.7,0.17-1.05,0.13c-0.35-0.04-0.66-0.2-0.93-0.47C2.37,11.25,2.24,11,2.16,10.72
	c-0.08-0.28-0.11-0.57-0.11-0.86s0.04-0.57,0.12-0.85C2.25,8.74,2.34,8.5,2.47,8.28c0.14-0.26,0.32-0.47,0.52-0.64
	c0.2-0.17,0.42-0.27,0.66-0.3c0.06-0.02,0.12,0,0.16,0.05c0.04,0.05,0.06,0.1,0.06,0.17c0.08-0.08,0.2-0.14,0.37-0.18
	s0.36-0.04,0.56-0.01c0.38,0.05,0.69,0.16,0.91,0.35c0.22,0.18,0.39,0.4,0.5,0.64c0.11,0.24,0.16,0.5,0.17,0.77
	C6.38,9.4,6.35,9.64,6.3,9.85z M3.69,8.2C3.53,8.27,3.4,8.38,3.29,8.52c-0.11,0.14-0.2,0.3-0.26,0.47C2.95,9.17,2.91,9.36,2.89,9.56
	c-0.02,0.2-0.02,0.4-0.01,0.59c0.02,0.28,0.11,0.51,0.25,0.69s0.37,0.27,0.67,0.27c0.18,0,0.35-0.03,0.52-0.1
	c0.17-0.07,0.33-0.16,0.47-0.27c0.14-0.11,0.28-0.25,0.4-0.4c0.12-0.16,0.22-0.32,0.29-0.49c0.04-0.09,0.07-0.2,0.1-0.33
	c0.02-0.13,0.03-0.27,0.02-0.41c-0.01-0.14-0.04-0.27-0.1-0.4C5.46,8.59,5.37,8.48,5.25,8.39C5.08,8.27,4.88,8.2,4.65,8.17
	C4.42,8.15,4.17,8.2,3.92,8.33c-0.05,0.03-0.1,0.04-0.16,0.02S3.67,8.28,3.69,8.2z"/>
<path class="st0" d="M11.39,8.03c-0.13,0.22-0.26,0.43-0.38,0.64c-0.13,0.21-0.27,0.45-0.41,0.71s-0.32,0.58-0.51,0.93
	c-0.19,0.35-0.42,0.78-0.67,1.28c-0.06,0.12-0.13,0.22-0.19,0.29c-0.06,0.07-0.14,0.11-0.23,0.11c-0.12,0-0.21-0.03-0.28-0.1
	s-0.13-0.14-0.17-0.22c-0.26-0.44-0.52-0.93-0.78-1.46C7.5,9.67,7.29,9.14,7.13,8.63C7.12,8.59,7.12,8.54,7.14,8.49
	c0.02-0.05,0.05-0.09,0.09-0.1c0.08-0.04,0.18-0.04,0.31-0.01c0.1,0.04,0.19,0.11,0.29,0.22C7.93,8.7,8,8.81,8.06,8.92
	c0.05,0.11,0.1,0.24,0.17,0.38c0.06,0.14,0.13,0.3,0.21,0.46c0.08,0.16,0.15,0.33,0.23,0.49c0.08,0.16,0.16,0.3,0.24,0.43
	c0.14-0.24,0.28-0.5,0.44-0.77C9.5,9.63,9.66,9.35,9.82,9.07c0.16-0.28,0.32-0.56,0.49-0.82c0.16-0.26,0.33-0.5,0.49-0.71
	c0.04-0.06,0.1-0.09,0.17-0.1s0.15,0.02,0.24,0.08C11.4,7.68,11.47,7.85,11.39,8.03z"/>
<path class="st0" d="M15.1,9.57c-0.31,0.18-0.65,0.33-1.01,0.43s-0.75,0.15-1.16,0.15c0.02,0.28,0.1,0.5,0.24,0.67
	c0.14,0.16,0.32,0.26,0.54,0.29c0.13,0.02,0.26,0.01,0.39-0.01s0.26-0.06,0.37-0.11c0.12-0.05,0.22-0.11,0.32-0.17
	s0.18-0.13,0.25-0.19s0.15-0.11,0.23-0.13s0.14-0.02,0.18-0.01c0.11,0.04,0.15,0.16,0.12,0.36c-0.13,0.26-0.31,0.47-0.55,0.65
	s-0.51,0.29-0.8,0.34c-0.26,0.05-0.52,0.04-0.79-0.04c-0.27-0.07-0.52-0.21-0.73-0.42c-0.18-0.18-0.32-0.4-0.42-0.65
	s-0.16-0.5-0.18-0.77c-0.02-0.25,0-0.48,0.07-0.71c0.07-0.22,0.17-0.42,0.32-0.59c0.14-0.17,0.32-0.31,0.54-0.43
	c0.22-0.11,0.47-0.18,0.76-0.19c0.34-0.02,0.66,0.04,0.94,0.19c0.28,0.15,0.48,0.36,0.59,0.64c0.06,0.15,0.08,0.28,0.05,0.4
	C15.32,9.38,15.24,9.48,15.1,9.57z M13.72,8.75c-0.08,0.02-0.17,0.04-0.26,0.08c-0.09,0.04-0.18,0.09-0.25,0.15s-0.14,0.13-0.2,0.2
	c-0.06,0.08-0.09,0.16-0.1,0.26c0.14,0,0.29-0.01,0.45-0.04s0.32-0.05,0.48-0.09s0.3-0.08,0.43-0.13c0.13-0.05,0.24-0.1,0.33-0.16
	c-0.06-0.15-0.18-0.25-0.35-0.28C14.07,8.72,13.9,8.72,13.72,8.75z"/>
<path class="st0" d="M20,8.25c-0.14,0.08-0.29,0.16-0.45,0.25c-0.16,0.09-0.31,0.19-0.47,0.31c-0.16,0.12-0.3,0.25-0.44,0.41
	c-0.14,0.16-0.27,0.34-0.38,0.56c-0.16,0.3-0.27,0.61-0.32,0.93c-0.06,0.32-0.09,0.63-0.11,0.93c0,0.14-0.03,0.29-0.1,0.44
	c-0.07,0.15-0.16,0.22-0.28,0.22c-0.15,0-0.27-0.08-0.37-0.23c-0.09-0.16-0.15-0.31-0.19-0.45c-0.14-0.57-0.25-1.13-0.34-1.69
	s-0.16-1.11-0.23-1.66c0-0.11,0.03-0.18,0.1-0.22C16.5,8.01,16.57,8,16.66,8.01c0.1,0.01,0.19,0.03,0.28,0.07
	c0.09,0.04,0.14,0.1,0.16,0.19c0.03,0.3,0.07,0.61,0.12,0.93c0.05,0.32,0.1,0.6,0.14,0.83c0.03-0.27,0.12-0.54,0.26-0.79
	c0.14-0.26,0.32-0.49,0.53-0.7s0.45-0.38,0.72-0.53c0.27-0.14,0.54-0.24,0.82-0.29c0.12-0.02,0.22-0.02,0.3,0s0.14,0.04,0.17,0.08
	s0.04,0.1,0.02,0.19C20.16,8.09,20.1,8.17,20,8.25z"/>
<path class="st1" d="M27.01,15.31c-0.02,0.01-0.04,0.01-0.07,0.01c-0.03,0-0.05-0.02-0.07-0.05c-0.04-0.05-0.09-0.08-0.15-0.08
	c-0.05,0-0.1,0.01-0.14,0.04c-0.04,0.02-0.08,0.06-0.11,0.1c-0.03,0.04-0.06,0.08-0.08,0.13c-0.02,0.05-0.03,0.1-0.04,0.15
	c-0.01,0.09,0,0.16,0.05,0.23c0.04,0.06,0.11,0.09,0.2,0.09c0.07,0,0.16-0.01,0.25-0.04c0.09-0.03,0.18-0.07,0.26-0.12
	c0.04-0.02,0.07-0.02,0.1-0.03c0.03,0,0.06,0.01,0.08,0.05c0.03,0.04,0.02,0.08-0.02,0.12c-0.04,0.04-0.09,0.08-0.15,0.11
	c-0.06,0.04-0.13,0.07-0.2,0.09c-0.07,0.03-0.14,0.05-0.21,0.06c-0.07,0.01-0.14,0.01-0.21,0c-0.07-0.01-0.14-0.03-0.2-0.07
	c-0.1-0.07-0.16-0.16-0.18-0.28c-0.02-0.12-0.01-0.25,0.03-0.38c0.02-0.05,0.04-0.1,0.07-0.15c0.03-0.05,0.06-0.1,0.1-0.14
	c0.04-0.04,0.08-0.08,0.13-0.11c0.05-0.03,0.1-0.05,0.16-0.06c0.09-0.02,0.19-0.01,0.27,0.03c0.09,0.03,0.14,0.1,0.17,0.19
	c0.01,0.02,0.01,0.04,0,0.06C27.04,15.28,27.03,15.29,27.01,15.31z"/>
<path class="st1" d="M27.83,14.5c0.01,0.28,0.03,0.57,0.07,0.86c0.03,0.3,0.06,0.58,0.1,0.85c0.01,0.11-0.02,0.17-0.09,0.17
	c-0.02,0-0.03-0.01-0.05-0.02c-0.02-0.01-0.03-0.03-0.04-0.04c-0.01-0.02-0.02-0.04-0.04-0.06c-0.01-0.02-0.02-0.04-0.02-0.05
	c-0.02-0.13-0.04-0.27-0.06-0.41c-0.02-0.15-0.03-0.29-0.05-0.44c-0.01-0.15-0.03-0.29-0.04-0.43s-0.02-0.27-0.02-0.39
	c0.01-0.06,0.01-0.11,0.03-0.16c0.01-0.04,0.04-0.06,0.08-0.06c0.04,0,0.07,0.02,0.09,0.05C27.82,14.41,27.83,14.45,27.83,14.5z"/>
<path class="st1" d="M28.96,14.73c0,0.03-0.02,0.04-0.05,0.04c-0.03,0-0.06,0-0.08,0c-0.06,0-0.13,0.01-0.2,0.02
	c-0.07,0.01-0.14,0.03-0.21,0.05c-0.03,0.01-0.06,0.01-0.1-0.01c-0.04-0.02-0.06-0.05-0.07-0.11c0-0.02,0.01-0.04,0.02-0.05
	c0.02-0.01,0.03-0.02,0.05-0.03c0.03-0.02,0.07-0.03,0.12-0.04c0.05-0.01,0.09-0.02,0.14-0.02c0.05,0,0.09-0.01,0.14-0.01
	c0.04,0,0.08,0.01,0.11,0.01c0.04,0.01,0.07,0.03,0.1,0.06C28.95,14.66,28.96,14.69,28.96,14.73z M28.87,16
	c0.02,0.04,0.03,0.08,0.03,0.13c0,0.05-0.01,0.08-0.04,0.1c-0.04,0.02-0.07,0.02-0.12,0c-0.04-0.03-0.07-0.06-0.09-0.1
	c-0.03-0.05-0.05-0.12-0.07-0.2c-0.02-0.08-0.03-0.16-0.03-0.23c-0.01-0.08-0.01-0.15-0.01-0.21c0-0.07,0-0.12,0-0.15
	c0-0.04,0.01-0.07,0.03-0.1c0.02-0.03,0.04-0.05,0.07-0.05c0.05,0,0.08,0.02,0.11,0.06c0.03,0.04,0.04,0.09,0.04,0.15
	c0,0.05,0,0.1,0,0.15c0,0.06,0.01,0.11,0.02,0.17c0.01,0.06,0.02,0.11,0.03,0.16C28.84,15.93,28.85,15.97,28.87,16z"/>
<path class="st1" d="M30.12,15.31c-0.02,0.01-0.04,0.01-0.07,0.01c-0.03,0-0.05-0.02-0.07-0.05c-0.04-0.05-0.09-0.08-0.15-0.08
	c-0.05,0-0.1,0.01-0.14,0.04c-0.04,0.02-0.08,0.06-0.11,0.1c-0.03,0.04-0.06,0.08-0.08,0.13c-0.02,0.05-0.03,0.1-0.04,0.15
	c-0.01,0.09,0,0.16,0.05,0.23c0.04,0.06,0.11,0.09,0.2,0.09c0.07,0,0.16-0.01,0.25-0.04c0.09-0.03,0.18-0.07,0.26-0.12
	c0.04-0.02,0.07-0.02,0.1-0.03c0.03,0,0.06,0.01,0.08,0.05c0.03,0.04,0.02,0.08-0.02,0.12c-0.04,0.04-0.09,0.08-0.15,0.11
	c-0.06,0.04-0.13,0.07-0.2,0.09c-0.07,0.03-0.14,0.05-0.21,0.06c-0.07,0.01-0.14,0.01-0.21,0c-0.07-0.01-0.14-0.03-0.2-0.07
	c-0.1-0.07-0.16-0.16-0.18-0.28c-0.02-0.12-0.01-0.25,0.03-0.38c0.02-0.05,0.04-0.1,0.07-0.15c0.03-0.05,0.06-0.1,0.1-0.14
	c0.04-0.04,0.08-0.08,0.13-0.11c0.05-0.03,0.1-0.05,0.16-0.06c0.09-0.02,0.19-0.01,0.27,0.03c0.09,0.03,0.14,0.1,0.17,0.19
	c0.01,0.02,0.01,0.04,0,0.06C30.16,15.28,30.15,15.29,30.12,15.31z"/>
<path class="st1" d="M31.68,15.04c0.01,0,0.03,0,0.05-0.01c0.02,0,0.04,0,0.06,0c0.02,0,0.04,0.01,0.05,0.02
	c0.01,0.01,0.02,0.02,0.02,0.03c0,0.03,0,0.06-0.01,0.08c-0.01,0.02-0.04,0.05-0.07,0.06c-0.1,0.05-0.2,0.1-0.3,0.16
	c-0.1,0.06-0.19,0.11-0.27,0.16c0.05,0.03,0.1,0.07,0.16,0.1c0.06,0.04,0.12,0.08,0.19,0.12c0.06,0.04,0.13,0.09,0.19,0.13
	c0.06,0.05,0.12,0.09,0.18,0.14c0.05,0.04,0.06,0.08,0.03,0.12c-0.02,0.02-0.04,0.03-0.07,0.04c-0.03,0.01-0.07,0-0.1-0.01
	c-0.06-0.03-0.12-0.06-0.18-0.1c-0.07-0.04-0.13-0.08-0.2-0.12c-0.07-0.04-0.14-0.08-0.2-0.13c-0.07-0.04-0.12-0.08-0.18-0.12
	c0.01,0.09,0.02,0.18,0.03,0.27c0.01,0.09,0.02,0.18,0.02,0.27c0.02,0.05,0.01,0.09,0,0.12c-0.02,0.03-0.05,0.04-0.09,0.04
	c-0.04-0.01-0.08-0.02-0.1-0.05c-0.02-0.03-0.04-0.06-0.05-0.11c-0.02-0.1-0.03-0.23-0.05-0.37c-0.02-0.14-0.04-0.29-0.06-0.44
	c-0.02-0.15-0.04-0.3-0.06-0.45c-0.02-0.15-0.04-0.27-0.05-0.39c0-0.04-0.01-0.07-0.01-0.12c0-0.04,0.01-0.07,0.04-0.08
	c0.04-0.02,0.08-0.01,0.12,0.02c0.04,0.03,0.07,0.08,0.09,0.14c0.02,0.12,0.04,0.25,0.06,0.38c0.02,0.14,0.04,0.28,0.06,0.44
	c0.05-0.03,0.11-0.06,0.18-0.1c0.07-0.04,0.14-0.07,0.2-0.11c0.07-0.03,0.13-0.07,0.19-0.09C31.6,15.07,31.65,15.05,31.68,15.04z"/>
<path class="st1" d="M28.63,16.93c0.05,0,0.1,0.01,0.15,0.03s0.07,0.07,0.07,0.12c-0.01,0.04-0.03,0.07-0.07,0.08
	c-0.04,0.01-0.08,0.02-0.1,0.02c-0.05,0-0.11,0-0.16,0c-0.06,0-0.12,0.01-0.18,0.01c-0.01,0.08-0.01,0.16-0.01,0.24
	c0,0.07-0.01,0.14-0.01,0.2c0,0.06,0,0.1,0,0.14c0,0.04,0,0.06,0,0.06c0.06-0.01,0.12-0.03,0.18-0.05c0.07-0.02,0.13-0.05,0.2-0.08
	c0.07-0.03,0.13-0.06,0.19-0.09c0.06-0.03,0.12-0.06,0.18-0.09c0.03-0.01,0.05-0.02,0.07-0.01c0.02,0.01,0.04,0.02,0.04,0.03
	c0,0.03,0,0.06-0.01,0.1c-0.01,0.04-0.04,0.08-0.07,0.11c-0.04,0.03-0.09,0.07-0.15,0.11c-0.06,0.04-0.13,0.08-0.2,0.11
	c-0.07,0.04-0.14,0.07-0.22,0.09c-0.07,0.03-0.14,0.04-0.19,0.05c-0.08,0.01-0.15-0.02-0.19-0.07c-0.04-0.05-0.07-0.12-0.07-0.2
	c0-0.08-0.01-0.18,0-0.28c0-0.11,0.01-0.22,0.01-0.34c-0.05,0.01-0.1,0.01-0.14,0.01c-0.04,0-0.09,0.01-0.13,0.01
	c-0.03,0-0.07-0.01-0.11-0.02c-0.04-0.02-0.06-0.04-0.06-0.09c0-0.02,0.01-0.04,0.02-0.06c0.01-0.03,0.04-0.04,0.08-0.06
	c0.1-0.02,0.22-0.03,0.35-0.05c0.01-0.12,0.02-0.24,0.03-0.35s0.02-0.21,0.03-0.31c0-0.03,0.01-0.06,0.03-0.08
	c0.02-0.02,0.03-0.03,0.05-0.03c0.04,0,0.08,0.01,0.12,0.03c0.04,0.02,0.06,0.05,0.06,0.08c-0.01,0.09-0.02,0.19-0.03,0.3
	c-0.01,0.11-0.02,0.22-0.02,0.34c0.05-0.01,0.1-0.01,0.15-0.01C28.55,16.94,28.59,16.94,28.63,16.93z"/>
<path class="st1" d="M30.21,16.62c0.08,0.03,0.14,0.07,0.19,0.13c0.05,0.06,0.09,0.12,0.12,0.19c0.03,0.07,0.04,0.14,0.05,0.22
	c0,0.07,0,0.14-0.02,0.21c-0.03,0.07-0.06,0.14-0.11,0.21c-0.04,0.07-0.09,0.13-0.15,0.18c-0.06,0.05-0.12,0.1-0.19,0.13
	c-0.07,0.03-0.15,0.05-0.24,0.05c-0.1,0-0.19-0.02-0.26-0.07c-0.07-0.05-0.13-0.11-0.17-0.19c-0.04-0.08-0.07-0.16-0.08-0.26
	c-0.01-0.1-0.01-0.19,0.01-0.29c0.01-0.07,0.03-0.14,0.05-0.21c0.02-0.07,0.06-0.13,0.09-0.18c0.04-0.05,0.08-0.1,0.13-0.13
	c0.05-0.03,0.11-0.05,0.17-0.05c0.04,0,0.08,0.01,0.13,0.02c0.05,0.01,0.1,0.03,0.15,0.06C30.12,16.61,30.16,16.6,30.21,16.62z
	 M30.06,16.9c-0.03-0.02-0.06-0.04-0.1-0.07c-0.04-0.03-0.07-0.04-0.1-0.04c-0.03,0-0.06,0.01-0.09,0.04
	c-0.03,0.03-0.06,0.06-0.08,0.1c-0.02,0.04-0.04,0.07-0.06,0.11c-0.02,0.04-0.03,0.07-0.03,0.09c-0.01,0.04-0.01,0.08-0.02,0.14
	c0,0.05,0,0.11,0.01,0.16c0.01,0.05,0.03,0.1,0.06,0.14c0.03,0.04,0.07,0.07,0.13,0.09c0.04,0.01,0.08,0.01,0.13,0
	c0.05-0.01,0.1-0.03,0.14-0.06c0.05-0.03,0.09-0.07,0.13-0.12c0.04-0.05,0.07-0.11,0.1-0.18c0.03-0.07,0.03-0.15,0-0.23
	c-0.02-0.08-0.07-0.14-0.15-0.17c-0.02,0.01-0.04,0.02-0.05,0.02C30.09,16.91,30.07,16.91,30.06,16.9z"/>
<path class="st1" d="M28.04,18.37c-0.05,0.03-0.09,0.05-0.14,0.08c-0.05,0.03-0.1,0.06-0.15,0.1c-0.05,0.04-0.1,0.08-0.14,0.13
	c-0.04,0.05-0.08,0.11-0.12,0.18c-0.05,0.1-0.09,0.2-0.1,0.3c-0.02,0.1-0.03,0.2-0.03,0.3c0,0.05-0.01,0.09-0.03,0.14
	c-0.02,0.05-0.05,0.07-0.09,0.07c-0.05,0-0.09-0.02-0.12-0.07c-0.03-0.05-0.05-0.1-0.06-0.14c-0.04-0.18-0.08-0.36-0.11-0.54
	c-0.03-0.18-0.05-0.35-0.07-0.53c0-0.04,0.01-0.06,0.03-0.07c0.02-0.01,0.05-0.01,0.07-0.01c0.03,0,0.06,0.01,0.09,0.02
	c0.03,0.01,0.04,0.03,0.05,0.06c0.01,0.09,0.02,0.19,0.04,0.3c0.02,0.1,0.03,0.19,0.05,0.27c0.01-0.09,0.04-0.17,0.08-0.25
	c0.05-0.08,0.1-0.16,0.17-0.22c0.07-0.07,0.14-0.12,0.23-0.17c0.09-0.05,0.17-0.08,0.26-0.09c0.04-0.01,0.07-0.01,0.1,0
	c0.03,0.01,0.04,0.01,0.05,0.03s0.01,0.03,0.01,0.06C28.09,18.32,28.07,18.35,28.04,18.37z"/>
<path class="st1" d="M29.2,18.79c-0.1,0.06-0.21,0.1-0.32,0.14c-0.11,0.03-0.24,0.05-0.37,0.05c0.01,0.09,0.03,0.16,0.08,0.21
	c0.05,0.05,0.1,0.08,0.17,0.09c0.04,0.01,0.08,0,0.12,0c0.04-0.01,0.08-0.02,0.12-0.04c0.04-0.02,0.07-0.04,0.1-0.06
	c0.03-0.02,0.06-0.04,0.08-0.06c0.02-0.02,0.05-0.03,0.07-0.04c0.03-0.01,0.04-0.01,0.06,0c0.04,0.01,0.05,0.05,0.04,0.12
	c-0.04,0.08-0.1,0.15-0.18,0.21c-0.08,0.06-0.16,0.09-0.26,0.11c-0.08,0.02-0.17,0.01-0.25-0.01c-0.09-0.02-0.16-0.07-0.23-0.13
	c-0.06-0.06-0.1-0.13-0.13-0.21c-0.03-0.08-0.05-0.16-0.06-0.25c-0.01-0.08,0-0.15,0.02-0.23c0.02-0.07,0.06-0.13,0.1-0.19
	c0.05-0.05,0.1-0.1,0.17-0.14c0.07-0.04,0.15-0.06,0.24-0.06c0.11-0.01,0.21,0.01,0.3,0.06c0.09,0.05,0.15,0.12,0.19,0.2
	c0.02,0.05,0.03,0.09,0.02,0.13C29.27,18.73,29.24,18.77,29.2,18.79z M28.76,18.53c-0.03,0.01-0.05,0.01-0.08,0.03
	s-0.06,0.03-0.08,0.05s-0.05,0.04-0.07,0.07c-0.02,0.02-0.03,0.05-0.03,0.08c0.04,0,0.09,0,0.14-0.01c0.05-0.01,0.1-0.02,0.15-0.03
	s0.1-0.02,0.14-0.04c0.04-0.02,0.08-0.03,0.11-0.05c-0.02-0.05-0.06-0.08-0.11-0.09C28.87,18.52,28.81,18.52,28.76,18.53z"/>
<path class="st1" d="M30.33,18.55c-0.01-0.03-0.01-0.05-0.02-0.08c-0.01-0.03-0.02-0.04-0.04-0.05c-0.04-0.01-0.09-0.01-0.14,0
	c-0.05,0.01-0.09,0.03-0.13,0.05c-0.04,0.02-0.08,0.05-0.1,0.07c-0.03,0.03-0.04,0.05-0.05,0.07c-0.01,0.04,0,0.08,0.03,0.11
	c0.03,0.04,0.07,0.07,0.12,0.11c0.09,0.05,0.18,0.11,0.28,0.16c0.1,0.06,0.18,0.11,0.25,0.17c0.07,0.06,0.11,0.12,0.14,0.19
	c0.02,0.07,0.02,0.15-0.02,0.24c-0.03,0.07-0.08,0.13-0.16,0.17c-0.08,0.04-0.16,0.08-0.25,0.1c-0.09,0.02-0.18,0.04-0.28,0.05
	c-0.09,0.01-0.17,0.01-0.23,0.01c-0.02,0-0.03-0.01-0.06-0.02c-0.02-0.01-0.04-0.02-0.06-0.04c-0.02-0.02-0.04-0.03-0.05-0.05
	c-0.01-0.02-0.02-0.03-0.02-0.04c0-0.05,0.02-0.08,0.06-0.1c0.04-0.02,0.08-0.03,0.13-0.03c0.06,0,0.13,0,0.2-0.01
	c0.07-0.01,0.14-0.02,0.2-0.03c0.06-0.01,0.12-0.03,0.17-0.06c0.05-0.02,0.09-0.05,0.11-0.09c0.02-0.03,0.01-0.07-0.03-0.11
	c-0.04-0.04-0.09-0.09-0.16-0.13c-0.06-0.05-0.14-0.09-0.21-0.13c-0.08-0.04-0.14-0.08-0.19-0.12c-0.05-0.04-0.1-0.08-0.14-0.13
	s-0.06-0.11-0.07-0.19c0-0.07,0.01-0.13,0.04-0.19c0.03-0.06,0.07-0.12,0.12-0.16c0.05-0.05,0.11-0.08,0.17-0.11
	c0.06-0.03,0.13-0.04,0.19-0.04c0.11,0.01,0.2,0.04,0.27,0.09c0.07,0.05,0.11,0.14,0.13,0.24c0,0.04-0.01,0.07-0.02,0.09
	c-0.01,0.02-0.03,0.04-0.06,0.04c-0.04,0.01-0.06,0-0.09-0.01C30.35,18.59,30.34,18.57,30.33,18.55z"/>
<path class="st1" d="M31.84,18.79c-0.1,0.06-0.21,0.1-0.32,0.14c-0.11,0.03-0.24,0.05-0.37,0.05c0.01,0.09,0.03,0.16,0.08,0.21
	c0.05,0.05,0.1,0.08,0.17,0.09c0.04,0.01,0.08,0,0.12,0c0.04-0.01,0.08-0.02,0.12-0.04c0.04-0.02,0.07-0.04,0.1-0.06
	c0.03-0.02,0.06-0.04,0.08-0.06c0.02-0.02,0.05-0.03,0.07-0.04c0.03-0.01,0.04-0.01,0.06,0c0.04,0.01,0.05,0.05,0.04,0.12
	c-0.04,0.08-0.1,0.15-0.18,0.21c-0.08,0.06-0.16,0.09-0.26,0.11c-0.08,0.02-0.17,0.01-0.25-0.01c-0.09-0.02-0.16-0.07-0.23-0.13
	c-0.06-0.06-0.1-0.13-0.13-0.21c-0.03-0.08-0.05-0.16-0.06-0.25c-0.01-0.08,0-0.15,0.02-0.23c0.02-0.07,0.06-0.13,0.1-0.19
	c0.05-0.05,0.1-0.1,0.17-0.14c0.07-0.04,0.15-0.06,0.24-0.06c0.11-0.01,0.21,0.01,0.3,0.06c0.09,0.05,0.15,0.12,0.19,0.2
	c0.02,0.05,0.03,0.09,0.02,0.13C31.91,18.73,31.89,18.77,31.84,18.79z M31.4,18.53c-0.03,0.01-0.05,0.01-0.08,0.03
	c-0.03,0.01-0.06,0.03-0.08,0.05s-0.05,0.04-0.07,0.07c-0.02,0.02-0.03,0.05-0.03,0.08c0.04,0,0.09,0,0.14-0.01
	c0.05-0.01,0.1-0.02,0.15-0.03s0.1-0.02,0.14-0.04c0.04-0.02,0.08-0.03,0.11-0.05c-0.02-0.05-0.06-0.08-0.11-0.09
	C31.51,18.52,31.46,18.52,31.4,18.53z"/>
<path class="st1" d="M33.13,18.67c0.05,0,0.1,0.01,0.15,0.03c0.05,0.03,0.07,0.07,0.07,0.12c-0.01,0.04-0.03,0.07-0.07,0.08
	c-0.04,0.01-0.08,0.02-0.1,0.02c-0.05,0-0.11,0-0.16,0c-0.06,0-0.12,0.01-0.18,0.01c-0.01,0.08-0.01,0.16-0.01,0.24
	c0,0.07-0.01,0.14-0.01,0.2c0,0.06,0,0.1,0,0.14c0,0.04,0,0.06,0,0.06c0.06-0.01,0.12-0.03,0.18-0.05c0.07-0.02,0.13-0.05,0.2-0.08
	c0.07-0.03,0.13-0.06,0.19-0.09c0.06-0.03,0.12-0.06,0.18-0.09c0.03-0.01,0.05-0.02,0.07-0.01c0.02,0.01,0.04,0.02,0.04,0.03
	c0,0.03,0,0.06-0.01,0.1c-0.01,0.04-0.04,0.08-0.07,0.11c-0.04,0.03-0.09,0.07-0.15,0.11c-0.06,0.04-0.13,0.08-0.2,0.11
	c-0.07,0.04-0.14,0.07-0.22,0.09c-0.07,0.03-0.14,0.04-0.19,0.05c-0.08,0.01-0.15-0.02-0.19-0.07c-0.04-0.05-0.07-0.12-0.07-0.2
	c0-0.08-0.01-0.18,0-0.28s0.01-0.22,0.01-0.34c-0.05,0.01-0.1,0.01-0.14,0.01c-0.04,0-0.09,0.01-0.13,0.01
	c-0.03,0-0.07-0.01-0.11-0.02c-0.04-0.02-0.06-0.04-0.06-0.09c0-0.02,0.01-0.04,0.02-0.06c0.01-0.03,0.04-0.04,0.08-0.06
	c0.1-0.02,0.22-0.03,0.35-0.05c0.01-0.12,0.02-0.24,0.03-0.35c0.01-0.11,0.02-0.21,0.03-0.31c0-0.03,0.01-0.06,0.03-0.08
	c0.02-0.02,0.03-0.03,0.05-0.03c0.04,0,0.08,0.01,0.12,0.03c0.04,0.02,0.06,0.05,0.06,0.08c-0.01,0.09-0.02,0.19-0.03,0.3
	c-0.01,0.11-0.02,0.22-0.02,0.34c0.05-0.01,0.1-0.01,0.15-0.01C33.04,18.67,33.09,18.67,33.13,18.67z"/>
<polyline class="st2" points="25.27,14.86 21.5,12.27 22,13.57 "/>
<line class="st3" x1="23.39" y1="12.19" x2="21.5" y2="12.27"/>
</svg>
