<?xml version="1.0" encoding="utf-8"?>
<!-- Generator: Adobe Illustrator 23.0.2, SVG Export Plug-In . SVG Version: 6.00 Build 0)  -->
<svg version="1.1" id="Layer_1" xmlns="http://www.w3.org/2000/svg" xmlns:xlink="http://www.w3.org/1999/xlink" x="0px" y="0px"
	 viewBox="0 0 14.5 10.23" style="enable-background:new 0 0 14.5 10.23;" xml:space="preserve">
<style type="text/css">
	.st0{fill:#333333;stroke:#333333;stroke-width:0.25;stroke-miterlimit:10;}
</style>
<path class="st0" d="M1.4,3.76C1.35,3.74,1.3,3.71,1.25,3.66C1.2,3.61,1.17,3.56,1.16,3.52C1.14,3.43,1.11,3.32,1.09,3.18
	C1.06,3.05,1.03,2.9,1,2.75C0.97,2.6,0.94,2.44,0.92,2.28C0.89,2.12,0.87,1.96,0.84,1.82S0.8,1.54,0.78,1.42
	C0.77,1.31,0.76,1.21,0.75,1.14c0-0.07,0.03-0.12,0.08-0.13C0.95,1,1.04,1.05,1.09,1.15c0.02,0.08,0.05,0.18,0.08,0.29
	C1.2,1.54,1.23,1.66,1.25,1.78c0.11-0.04,0.21-0.1,0.3-0.16c0.09-0.07,0.16-0.14,0.22-0.21c0.06-0.08,0.1-0.16,0.12-0.24
	c0.03-0.08,0.03-0.16,0.01-0.24c-0.02-0.09-0.09-0.15-0.2-0.19C1.6,0.69,1.48,0.67,1.35,0.67c-0.19,0-0.35,0.04-0.5,0.1
	C0.7,0.84,0.57,0.93,0.45,1.03C0.39,1.07,0.33,1.08,0.26,1.07C0.19,1.05,0.15,1.01,0.13,0.94c0-0.07,0.01-0.12,0.03-0.17
	c0.02-0.05,0.05-0.09,0.09-0.13c0.14-0.15,0.31-0.26,0.51-0.32c0.2-0.06,0.41-0.09,0.62-0.09c0.18,0,0.35,0.03,0.51,0.08
	c0.17,0.05,0.31,0.15,0.42,0.3C2.38,0.71,2.41,0.8,2.41,0.91c0,0.1-0.01,0.2-0.04,0.3C2.34,1.3,2.29,1.4,2.23,1.49
	C2.18,1.57,2.12,1.65,2.06,1.72c0.12-0.01,0.24,0,0.36,0.03C2.53,1.78,2.64,1.83,2.74,1.9s0.17,0.17,0.24,0.28
	C3.03,2.3,3.07,2.44,3.07,2.6c0,0.19-0.04,0.36-0.12,0.51C2.87,3.26,2.76,3.4,2.63,3.5S2.34,3.7,2.17,3.76
	C2,3.82,1.83,3.85,1.65,3.85c-0.08,0-0.14-0.02-0.19-0.07C1.44,3.78,1.41,3.77,1.4,3.76z M1.36,2.29C1.4,2.47,1.43,2.66,1.47,2.86
	c0.03,0.2,0.07,0.39,0.11,0.59l0.03,0c0.1,0,0.22-0.02,0.34-0.06c0.12-0.04,0.24-0.09,0.35-0.17c0.11-0.07,0.19-0.16,0.26-0.27
	c0.07-0.11,0.1-0.22,0.1-0.35C2.62,2.49,2.57,2.4,2.49,2.34C2.4,2.28,2.3,2.24,2.18,2.22c-0.12-0.02-0.25-0.02-0.39,0
	S1.5,2.26,1.36,2.29z"/>
<path class="st0" d="M3.83,3.69C3.81,3.77,3.78,3.84,3.74,3.9S3.67,4,3.63,4.01c-0.09,0.02-0.16,0.01-0.2-0.04
	c-0.05-0.05-0.07-0.12-0.06-0.2C3.4,3.49,3.46,3.2,3.54,2.89c0.08-0.31,0.18-0.62,0.29-0.93c0.11-0.31,0.23-0.61,0.36-0.9
	C4.33,0.76,4.46,0.5,4.6,0.26C4.62,0.22,4.65,0.2,4.68,0.19c0.03-0.01,0.06-0.01,0.08,0c0.02-0.02,0.05-0.04,0.08-0.05
	s0.06-0.02,0.1-0.02c0.01,0,0.03,0,0.05,0.01c0.02,0,0.03,0.02,0.05,0.04c0.02,0.02,0.04,0.06,0.07,0.1
	c0.03,0.04,0.06,0.11,0.1,0.19C5.27,0.7,5.34,0.95,5.43,1.2C5.52,1.45,5.61,1.7,5.7,1.95c0.01,0,0.03-0.01,0.04-0.01
	c0.01,0,0.02-0.01,0.04-0.01c0.05-0.01,0.11,0,0.18,0.01c0.06,0.01,0.11,0.04,0.13,0.1C6.12,2.1,6.11,2.16,6.08,2.22
	c-0.04,0.05-0.1,0.1-0.2,0.15C5.93,2.52,6,2.66,6.06,2.81c0.06,0.14,0.12,0.28,0.19,0.41c0,0.02,0.01,0.06,0.02,0.11
	s0.02,0.1,0.02,0.15c0,0.05,0,0.09-0.01,0.14C6.27,3.65,6.25,3.68,6.22,3.7c-0.03,0.01-0.07,0.01-0.1-0.01
	c-0.04-0.02-0.07-0.04-0.1-0.07c-0.03-0.03-0.06-0.06-0.09-0.1C5.91,3.48,5.89,3.45,5.87,3.43C5.79,3.27,5.72,3.12,5.64,2.96
	C5.57,2.81,5.5,2.65,5.43,2.49c-0.2,0.04-0.41,0.07-0.64,0.1C4.57,2.62,4.34,2.64,4.12,2.65C4.06,2.83,4.02,3,3.97,3.17
	C3.92,3.34,3.87,3.51,3.83,3.69z M4.81,0.75C4.6,1.23,4.42,1.71,4.26,2.19c0.31-0.01,0.64-0.05,1-0.12C5.09,1.64,4.94,1.2,4.81,0.75
	z"/>
<path class="st0" d="M8.17,1.1C8.19,1.13,8.2,1.15,8.21,1.19c0,0.03,0,0.06-0.02,0.09C8.17,1.33,8.13,1.35,8.07,1.33
	c-0.1-0.02-0.2-0.03-0.31-0.03C7.66,1.31,7.55,1.35,7.44,1.43c-0.11,0.08-0.19,0.2-0.25,0.35C7.13,1.93,7.1,2.09,7.1,2.25
	c0,0.16,0.04,0.29,0.12,0.41c0.08,0.11,0.18,0.2,0.3,0.25c0.07,0.03,0.16,0.05,0.25,0.05c0.09,0,0.19,0,0.28-0.01
	c0.1-0.01,0.19-0.03,0.28-0.06C8.43,2.87,8.52,2.84,8.6,2.8C8.63,2.8,8.66,2.8,8.68,2.81c0.03,0.01,0.04,0.03,0.05,0.06
	C8.76,2.93,8.75,2.99,8.7,3.05C8.64,3.11,8.57,3.16,8.48,3.21C8.38,3.26,8.28,3.3,8.17,3.32C8.06,3.35,7.94,3.37,7.83,3.37
	c-0.12,0-0.23-0.01-0.33-0.04C7.35,3.3,7.23,3.24,7.13,3.17C7.03,3.1,6.95,3.02,6.88,2.92c-0.07-0.1-0.12-0.2-0.15-0.31
	C6.7,2.51,6.68,2.39,6.68,2.28C6.67,2,6.72,1.74,6.84,1.52c0.12-0.22,0.28-0.39,0.5-0.5c0.16-0.08,0.32-0.11,0.48-0.1
	C7.97,0.94,8.09,1,8.17,1.1z"/>
<path class="st0" d="M9.51,0.68c0.02,0.16,0.05,0.32,0.08,0.49c0.03,0.17,0.06,0.35,0.09,0.55c0.21-0.14,0.44-0.27,0.67-0.41
	C10.58,1.17,10.8,1.06,11,0.98c0.02,0,0.04-0.01,0.07,0c0.03,0,0.06,0.01,0.09,0.02c0.03,0.01,0.06,0.03,0.08,0.05
	c0.02,0.02,0.04,0.04,0.05,0.07c0.01,0.03,0,0.08-0.02,0.13c-0.02,0.05-0.05,0.09-0.08,0.09c-0.06,0.03-0.13,0.08-0.22,0.13
	C10.9,1.52,10.8,1.57,10.7,1.64c-0.1,0.06-0.2,0.12-0.29,0.18c-0.1,0.06-0.18,0.11-0.24,0.15c0.27,0.14,0.53,0.27,0.78,0.37
	c0.25,0.1,0.52,0.18,0.81,0.25c0.03,0,0.06,0.02,0.09,0.05c0.03,0.03,0.06,0.07,0.07,0.11c0.02,0.04,0.03,0.08,0.03,0.13
	c0,0.04-0.01,0.08-0.03,0.11c-0.03,0.04-0.07,0.06-0.11,0.07c-0.05,0.01-0.1,0.01-0.15,0c-0.35-0.08-0.68-0.18-0.97-0.31
	c-0.29-0.12-0.6-0.27-0.92-0.45C9.78,2.5,9.8,2.7,9.83,2.92c0.02,0.21,0.04,0.44,0.06,0.68c0,0.05-0.02,0.08-0.06,0.09
	c-0.04,0.01-0.09,0.01-0.14,0c-0.05-0.01-0.1-0.03-0.14-0.05C9.51,3.61,9.48,3.59,9.47,3.56C9.44,3.35,9.41,3.12,9.38,2.88
	c-0.03-0.24-0.07-0.48-0.1-0.72C9.24,1.92,9.2,1.68,9.15,1.44C9.11,1.2,9.07,0.97,9.02,0.75c-0.01-0.05,0-0.11,0.03-0.18
	C9.09,0.5,9.15,0.46,9.24,0.45c0.03,0,0.06,0.01,0.09,0.02c0.03,0.02,0.06,0.04,0.08,0.06c0.03,0.03,0.05,0.05,0.06,0.08
	C9.49,0.64,9.5,0.67,9.51,0.68z"/>
<path class="st0" d="M7.71,4.25C7.23,4.23,6.77,4.26,6.32,4.36c-0.44,0.1-0.88,0.23-1.31,0.4C4.9,4.8,4.81,4.8,4.76,4.75
	C4.7,4.69,4.67,4.64,4.67,4.59C4.7,4.5,4.76,4.43,4.84,4.38C5.8,3.91,6.75,3.74,7.71,3.86c0.05,0.01,0.09,0.05,0.12,0.1
	c0.03,0.05,0.04,0.1,0.03,0.14C7.85,4.14,7.83,4.18,7.81,4.21C7.79,4.24,7.76,4.25,7.71,4.25z M6.72,6.69c0,0.05-0.02,0.1-0.05,0.14
	C6.63,6.86,6.59,6.89,6.53,6.9c-0.09,0.01-0.15,0-0.18-0.05C6.32,6.8,6.31,6.75,6.3,6.69c0-0.33-0.01-0.65-0.02-0.97
	C6.28,5.39,6.26,5.06,6.24,4.74c0-0.02,0-0.04-0.01-0.07c0-0.03,0-0.05,0-0.08c0-0.03,0.02-0.05,0.03-0.07
	C6.28,4.51,6.31,4.5,6.35,4.49c0.11-0.02,0.18,0,0.23,0.05C6.62,4.59,6.65,4.65,6.65,4.7c0.04,0.34,0.06,0.67,0.07,1
	C6.73,6.03,6.73,6.36,6.72,6.69z"/>
<path class="st0" d="M10.74,5.56c-0.03,0.13-0.08,0.25-0.15,0.37c-0.07,0.12-0.15,0.23-0.25,0.33c-0.09,0.1-0.19,0.19-0.3,0.27
	C9.93,6.6,9.82,6.66,9.71,6.7C9.5,6.78,9.3,6.8,9.09,6.77C8.89,6.75,8.71,6.66,8.55,6.5C8.45,6.37,8.37,6.22,8.33,6.06
	C8.28,5.9,8.26,5.73,8.26,5.56c0-0.17,0.03-0.33,0.07-0.49s0.1-0.3,0.17-0.43c0.08-0.15,0.18-0.27,0.3-0.37
	c0.12-0.1,0.24-0.16,0.38-0.17c0.04-0.01,0.07,0,0.09,0.03c0.02,0.03,0.03,0.06,0.03,0.1c0.05-0.05,0.12-0.08,0.22-0.1
	c0.1-0.02,0.21-0.03,0.33-0.01c0.22,0.03,0.4,0.1,0.53,0.2c0.13,0.11,0.23,0.23,0.29,0.37c0.06,0.14,0.1,0.29,0.1,0.45
	C10.78,5.29,10.77,5.43,10.74,5.56z M9.22,4.59C9.12,4.63,9.05,4.7,8.98,4.78C8.92,4.86,8.87,4.95,8.83,5.05
	c-0.04,0.1-0.06,0.21-0.08,0.33c-0.01,0.12-0.01,0.23,0,0.35c0.01,0.16,0.06,0.3,0.15,0.4c0.08,0.1,0.21,0.16,0.39,0.16
	c0.1,0,0.2-0.02,0.3-0.06c0.1-0.04,0.19-0.09,0.28-0.16c0.08-0.07,0.16-0.14,0.23-0.23c0.07-0.09,0.13-0.19,0.17-0.28
	c0.02-0.05,0.04-0.12,0.06-0.19c0.01-0.08,0.02-0.16,0.01-0.24c0-0.08-0.02-0.16-0.06-0.23s-0.08-0.14-0.15-0.19
	c-0.1-0.07-0.21-0.11-0.35-0.13C9.64,4.56,9.5,4.59,9.35,4.67C9.32,4.69,9.29,4.69,9.26,4.68C9.22,4.67,9.21,4.64,9.22,4.59z"/>
<path class="st0" d="M2.05,7.92c-0.02,0-0.05,0-0.09-0.01C1.93,7.9,1.9,7.89,1.87,7.88C1.84,7.86,1.81,7.84,1.79,7.81
	C1.76,7.79,1.75,7.76,1.75,7.73c0-0.04,0.02-0.08,0.07-0.14C1.86,7.54,1.93,7.5,2.04,7.48c0.14-0.03,0.29-0.05,0.44-0.06
	c0.15-0.01,0.31-0.01,0.46,0c0.15,0.01,0.31,0.02,0.45,0.03c0.15,0.01,0.29,0.02,0.42,0.02c0.07,0,0.12,0.01,0.15,0.04
	c0.02,0.03,0.04,0.06,0.04,0.1c0,0.08-0.04,0.15-0.11,0.2C3.81,7.85,3.73,7.87,3.66,7.87c-0.08,0-0.16-0.01-0.25-0.01
	c-0.09,0-0.18,0-0.27,0c0,0.13,0.01,0.28,0.02,0.44C3.17,8.46,3.18,8.62,3.2,8.78C3.21,8.94,3.23,9.1,3.24,9.25
	C3.26,9.4,3.27,9.52,3.29,9.63c0.01,0.04,0,0.07-0.02,0.1C3.24,9.76,3.2,9.77,3.15,9.77c-0.1,0-0.17-0.06-0.22-0.18
	C2.84,9.36,2.78,9.1,2.74,8.81C2.49,8.96,2.24,9.06,2,9.1S1.54,9.13,1.35,9.07C1.16,9.02,1,8.93,0.88,8.79
	C0.76,8.66,0.7,8.5,0.7,8.31c0-0.18,0.03-0.38,0.1-0.59c0.07-0.21,0.16-0.41,0.28-0.61s0.26-0.37,0.43-0.53
	C1.67,6.42,1.86,6.3,2.06,6.21C2.13,6.19,2.2,6.19,2.26,6.2c0.06,0.01,0.12,0.03,0.17,0.07c0.05,0.03,0.1,0.08,0.15,0.13
	s0.08,0.1,0.12,0.14c0.02,0.03,0.04,0.07,0.04,0.1S2.73,6.72,2.7,6.75C2.63,6.8,2.57,6.8,2.52,6.74c-0.08-0.1-0.15-0.16-0.2-0.18
	c-0.05-0.02-0.13,0-0.22,0.06c-0.09,0.07-0.2,0.16-0.31,0.3C1.68,7.05,1.58,7.19,1.48,7.35c-0.1,0.16-0.17,0.33-0.23,0.5
	S1.18,8.18,1.2,8.32c0.01,0.13,0.08,0.22,0.21,0.27s0.27,0.08,0.43,0.07c0.16,0,0.32-0.03,0.48-0.09c0.16-0.06,0.29-0.13,0.37-0.22
	c0-0.08-0.01-0.16-0.01-0.24C2.67,8.03,2.67,7.95,2.67,7.87c-0.1,0.01-0.2,0.02-0.31,0.02C2.26,7.9,2.16,7.91,2.05,7.92z"/>
<path class="st0" d="M4.66,9.77C4.63,9.85,4.6,9.92,4.57,9.99c-0.04,0.06-0.08,0.1-0.12,0.11c-0.09,0.02-0.16,0.01-0.2-0.04
	C4.2,10,4.18,9.94,4.19,9.86c0.04-0.28,0.1-0.57,0.18-0.88c0.08-0.31,0.18-0.62,0.29-0.93c0.11-0.31,0.23-0.61,0.37-0.9
	C5.16,6.85,5.3,6.59,5.44,6.35c0.02-0.04,0.05-0.06,0.08-0.07c0.03-0.01,0.06-0.01,0.08,0c0.02-0.02,0.05-0.03,0.08-0.05
	c0.03-0.01,0.06-0.02,0.1-0.02c0.01,0,0.03,0,0.05,0.01c0.02,0,0.03,0.02,0.05,0.04c0.02,0.02,0.04,0.06,0.07,0.1
	C5.97,6.41,6,6.48,6.04,6.56C6.1,6.8,6.18,7.04,6.27,7.29c0.09,0.25,0.18,0.5,0.27,0.75c0.01,0,0.03-0.01,0.04-0.01
	c0.01,0,0.02-0.01,0.04-0.01c0.05,0,0.11,0,0.17,0.01c0.07,0.01,0.11,0.04,0.13,0.1C6.95,8.2,6.94,8.26,6.91,8.31
	c-0.04,0.05-0.1,0.1-0.2,0.15C6.76,8.62,6.82,8.76,6.88,8.9c0.06,0.14,0.12,0.28,0.19,0.42c0,0.02,0.01,0.06,0.02,0.11
	c0.01,0.05,0.01,0.1,0.02,0.15c0,0.05,0,0.09-0.01,0.14C7.09,9.75,7.07,9.78,7.05,9.79c-0.03,0.01-0.07,0.01-0.1-0.01
	c-0.04-0.02-0.07-0.04-0.1-0.07c-0.03-0.03-0.06-0.06-0.09-0.1C6.73,9.58,6.71,9.55,6.7,9.52C6.62,9.37,6.54,9.21,6.47,9.06
	S6.33,8.74,6.26,8.59c-0.2,0.04-0.41,0.07-0.64,0.1C5.39,8.71,5.17,8.73,4.94,8.74c-0.05,0.18-0.1,0.35-0.15,0.52
	C4.74,9.43,4.7,9.6,4.66,9.77z M5.65,6.84C5.43,7.32,5.25,7.8,5.09,8.28c0.31-0.01,0.65-0.05,1-0.12C5.92,7.74,5.77,7.3,5.65,6.84z"
	/>
<path class="st0" d="M11.07,10.03c-0.05,0-0.1-0.04-0.16-0.12c-0.05-0.08-0.08-0.16-0.09-0.23c-0.04-0.27-0.08-0.59-0.14-0.95
	c-0.05-0.36-0.13-0.79-0.21-1.28c-0.14,0.27-0.28,0.53-0.41,0.79C9.93,8.5,9.79,8.76,9.66,9.02C9.57,9.18,9.49,9.26,9.4,9.26
	c-0.13,0-0.23-0.07-0.31-0.2C8.93,8.82,8.76,8.6,8.59,8.39C8.41,8.19,8.23,7.98,8.04,7.78C8.03,8.09,8.04,8.39,8.05,8.69
	c0.02,0.3,0.05,0.59,0.09,0.88c0.01,0.05,0,0.1-0.02,0.14S8.08,9.77,8.06,9.78C7.99,9.8,7.93,9.79,7.86,9.74
	C7.8,9.69,7.76,9.63,7.74,9.57C7.7,9.4,7.67,9.22,7.65,9.01C7.63,8.81,7.62,8.6,7.61,8.39C7.61,8.18,7.6,7.97,7.6,7.77
	c0-0.2,0-0.39,0.01-0.56c0-0.19,0.06-0.28,0.18-0.28c0.07,0,0.14,0.03,0.19,0.08c0.05,0.05,0.08,0.13,0.08,0.23
	C8.3,7.47,8.52,7.71,8.73,7.95C8.93,8.2,9.13,8.45,9.33,8.7c0.16-0.29,0.33-0.59,0.5-0.9c0.17-0.31,0.36-0.61,0.57-0.9
	c0.01-0.05,0.04-0.1,0.08-0.16c0.04-0.05,0.09-0.09,0.14-0.11c0.05-0.02,0.11,0,0.16,0.06c0.06,0.06,0.09,0.13,0.11,0.21
	c0.08,0.47,0.15,0.94,0.21,1.41c0.06,0.47,0.12,0.94,0.17,1.41c0.01,0.09-0.01,0.16-0.05,0.22C11.17,10,11.12,10.03,11.07,10.03z"/>
<path class="st0" d="M13.86,8.03c0.02,0.05,0,0.09-0.06,0.14c-0.06,0.04-0.14,0.07-0.27,0.09c-0.21,0.03-0.42,0.06-0.64,0.09
	c-0.22,0.03-0.44,0.06-0.67,0.09c-0.01,0.24-0.01,0.47,0,0.71c0.11,0,0.24-0.01,0.39-0.03c0.15-0.02,0.31-0.05,0.47-0.08
	c0.16-0.03,0.31-0.07,0.46-0.1c0.15-0.03,0.27-0.06,0.37-0.09c0.05-0.01,0.1-0.02,0.16-0.03c0.06-0.01,0.11-0.01,0.15,0
	c0.04,0.01,0.08,0.02,0.11,0.05c0.03,0.03,0.04,0.07,0.04,0.12c0,0.01-0.02,0.03-0.05,0.06c-0.03,0.03-0.07,0.06-0.12,0.09
	c-0.05,0.03-0.1,0.06-0.15,0.08c-0.05,0.03-0.1,0.05-0.14,0.06c-0.29,0.09-0.57,0.17-0.85,0.24c-0.28,0.07-0.55,0.1-0.82,0.11
	c-0.15,0-0.27-0.04-0.35-0.12c-0.08-0.09-0.12-0.21-0.13-0.37c-0.01-0.23-0.01-0.46,0-0.69c-0.08-0.05-0.12-0.11-0.12-0.2
	c0.01-0.09,0.05-0.15,0.13-0.18c0.01-0.14,0.02-0.27,0.02-0.41c0-0.14,0.01-0.27,0.02-0.41c-0.05-0.01-0.1-0.03-0.14-0.08
	c-0.04-0.04-0.06-0.09-0.06-0.14c0-0.04,0.01-0.08,0.03-0.12c0.02-0.03,0.05-0.06,0.11-0.08c0.08-0.02,0.19-0.04,0.31-0.06
	c0.12-0.02,0.25-0.04,0.37-0.06c0.13-0.02,0.25-0.03,0.37-0.05c0.12-0.01,0.22-0.02,0.3-0.03c0.1-0.01,0.19,0,0.28,0.03
	c0.09,0.03,0.18,0.08,0.26,0.16c0.02,0.07,0.01,0.11-0.04,0.15c-0.04,0.03-0.1,0.05-0.17,0.06c-0.07,0.01-0.15,0.02-0.25,0.03
	c-0.1,0.01-0.2,0.02-0.3,0.04c-0.1,0.01-0.21,0.03-0.31,0.04c-0.1,0.01-0.2,0.02-0.3,0.04c0,0.01,0,0.02,0,0.03
	c0,0.01,0,0.02,0,0.03c-0.01,0.12-0.02,0.24-0.02,0.36c0,0.12-0.01,0.24-0.01,0.36c0.2-0.03,0.4-0.06,0.6-0.09
	c0.2-0.03,0.37-0.04,0.49-0.05c0.1-0.01,0.19,0,0.29,0.03C13.7,7.9,13.79,7.96,13.86,8.03z"/>
</svg>
