<?xml version="1.0" encoding="utf-8"?>
<!-- Generator: Adobe Illustrator 23.0.2, SVG Export Plug-In . SVG Version: 6.00 Build 0)  -->
<svg version="1.1" id="Layer_1" xmlns="http://www.w3.org/2000/svg" xmlns:xlink="http://www.w3.org/1999/xlink" x="0px" y="0px"
	 viewBox="0 0 187.14 155.66" style="enable-background:new 0 0 187.14 155.66;" xml:space="preserve">
<style type="text/css">
	.st0{fill:#9BA9F9;}
</style>
<g>
	<path class="st0" d="M126.23,8c0.82,0,1.64,0.02,2.48,0.07c8.88,0.53,16.42,4,22.76,10.2c0.34,0.33,1,0.54,1.56,0.54
		c0.13,0,0.26-0.01,0.37-0.04c7.2-1.53,14.01-4.13,20.4-7.8c0.15-0.09,0.32-0.14,0.68-0.3c-1.28,4.1-3.26,7.6-5.76,10.81
		c-2.49,3.2-5.51,5.86-8.91,8.18c6.66-0.45,12.92-2.41,19.33-5.01c-2.81,4.15-5.73,7.8-9.16,11.01c-2.27,2.12-4.68,4.09-7.08,6.06
		c-0.81,0.67-1.14,1.36-1.1,2.45c0.31,9.67-0.84,19.18-3.35,28.53c-3.64,13.58-9.67,25.97-18.23,37.14
		c-7.29,9.53-16.03,17.45-26.24,23.7c-8.71,5.33-18.09,9.11-28.05,11.42c-8.02,1.85-16.12,2.7-24.32,2.7
		c-1.21,0-2.41-0.02-3.62-0.05c-8.57-0.25-16.93-1.62-25.13-4.02c-8.56-2.5-16.61-6.17-24.2-10.84c-0.22-0.13-0.39-0.35-0.65-0.6
		c2.47,0.22,4.91,0.32,7.32,0.32c16.06,0,30.64-4.85,43.67-14.97c-17.54-1.19-28.78-13.12-32.26-24.61
		c2.12,0.36,4.23,0.55,6.34,0.55c2.96,0,5.94-0.38,9.04-1.24c-17.63-5.29-26.87-16.77-28.05-35.09c5.09,2.62,10.11,4.22,15.72,4.31
		C14.05,48.46,10.62,32.89,19,14.3c19.28,22.6,43.37,35.02,73.01,37.05c-0.15-1.32-0.26-2.34-0.39-3.36
		c-1.52-12.17,2.19-22.52,11.15-30.84C109.42,10.97,117.33,8,126.23,8 M174.47,10.68L174.47,10.68 M179.13,24.65L179.13,24.65
		 M126.23,0c-11.11,0-20.83,3.8-28.9,11.28c-9.11,8.45-13.89,19.09-14.03,31.06C60.18,38.77,41.07,27.84,25.08,9.1
		C23.55,7.31,21.32,6.3,19,6.29c-0.38,0-0.75,0.03-1.13,0.08C15.16,6.76,12.83,8.51,11.7,11c-6.37,14.15-6.75,27.33-1.26,38.98
		c-0.26,0.13-0.52,0.28-0.77,0.45c-2.41,1.58-3.79,4.33-3.6,7.21C6.93,70.94,11.51,81.42,19.75,89c-1.05,1.88-1.31,4.12-0.67,6.22
		c2.8,9.23,9.74,18.79,20.22,24.66c-7.43,3.08-15.37,4.59-23.97,4.59c-2.16,0-4.39-0.1-6.62-0.29c-0.23-0.02-0.47-0.03-0.7-0.03
		c-3.13,0-6,1.83-7.3,4.73c-1.38,3.09-0.68,6.71,1.76,9.05l0.03,0.03c0.31,0.32,0.96,1,1.96,1.61c8.32,5.13,17.12,9.06,26.15,11.71
		c8.9,2.61,18.04,4.07,27.14,4.33c1.29,0.04,2.59,0.06,3.86,0.06c9.01,0,17.79-0.98,26.12-2.9c10.86-2.51,21.09-6.68,30.42-12.39
		c10.95-6.7,20.51-15.33,28.42-25.66c9.1-11.88,15.69-25.32,19.61-39.94c2.51-9.37,3.74-18.91,3.66-28.41
		c1.86-1.54,3.76-3.14,5.6-4.86c3.59-3.36,6.84-7.24,10.22-12.22c0.93-1.31,1.48-2.91,1.48-4.64c0-3.87-2.75-7.1-6.4-7.84
		c0.48-1.13,0.91-2.29,1.29-3.47c0.29-0.83,0.45-1.73,0.45-2.66c0-4.37-3.5-7.92-7.84-8c-0.05,0-0.11,0-0.16,0
		c-0.16,0-0.32,0-0.47,0.01c-1,0.06-1.94,0.3-2.81,0.69l-0.09,0.04c-0.27,0.11-0.73,0.3-1.28,0.62c-4.79,2.75-9.91,4.84-15.25,6.24
		c-7.28-6.19-15.8-9.62-25.39-10.19C128.19,0.03,127.2,0,126.23,0L126.23,0z"/>
</g>
</svg>
